<svg width="720" height="523" viewBox="0 0 720 523" fill="none" xmlns="http://www.w3.org/2000/svg">
<path d="M92.3689 367.817C92.3689 367.817 68.1619 285.933 141.579 252.42C214.997 218.907 189.197 150.23 255.129 134.877C326.954 118.038 352.754 192.493 368.202 199.592C383.65 206.691 415.819 192.658 440.982 195.795C466.145 198.931 483.344 238.222 503.092 258.363C522.84 278.504 569.343 272.561 593.231 301.121C617.12 329.681 627.153 413.546 576.032 456.634" fill="#0251C6" fill-opacity="0.2"/>
<path d="M228.693 446.399C216.271 411.235 184.579 378.383 153.205 359.728C145.561 355.105 134.413 351.638 130.909 362.534C128.679 369.468 120.717 367.652 116.257 364.515C110.683 360.553 107.498 353.949 102.721 348.997C98.8983 345.035 94.1206 342.063 88.7059 341.073C83.4504 340.247 77.5579 341.568 73.7358 345.53C70.7099 348.502 68.9581 352.629 65.7729 355.105C60.3582 359.397 52.2361 357.747 46.5029 354.115C40.6104 350.318 35.9919 344.87 30.4179 340.908C24.6847 336.945 17.1996 334.469 11.1479 337.936C3.18502 342.393 2.38874 354.445 5.89238 363.194C7.96272 368.642 11.3071 376.402 15.2885 380.694C20.8625 386.637 29.1439 390.764 36.9475 392.25C42.6807 393.406 48.7325 393.406 54.4657 394.726C56.536 395.222 58.9249 396.212 59.4027 398.688C60.0397 402.32 55.7398 404.467 53.1917 405.787C48.8917 408.098 44.5918 412.886 46.6621 417.508C47.9362 420.315 51.1213 421.636 54.1472 422.131C63.0656 423.782 71.9839 420.975 80.5838 418.334C85.68 416.683 90.2985 413.381 95.554 411.896C98.2613 411.235 105.428 410.905 104.632 415.693C104.472 417.178 103.358 418.499 102.243 419.49C101.128 420.48 99.8539 421.306 98.8983 422.461C94.7577 427.579 98.8984 433.687 104.154 435.008C108.295 435.998 112.594 435.008 116.735 434.017C143.65 427.414 171.838 424.937 199.071 430.716C204.804 431.871 211.174 434.017 214.041 439.3" fill="#4AD6AE"/>
<path opacity="0.5" d="M199.708 424.277C179.96 405.292 153.683 392.745 126.291 389.113C109.25 386.967 91.8911 388.123 74.6914 386.472C57.4916 384.821 39.8141 380.199 27.3921 368.477" stroke="white" stroke-width="1.0479" stroke-miterlimit="10" stroke-linecap="round" stroke-linejoin="round"/>
<path opacity="0.25" d="M205.759 426.918C205.759 426.918 158.619 394.396 145.401 361.543C154.32 364.02 160.212 367.156 166.582 372.439C173.43 382.345 189.515 397.698 200.504 407.603C202.097 413.051 203.848 419.49 205.759 426.918Z" fill="#FCCCB1"/>
<path d="M204.008 415.858C202.256 404.466 197.319 393.075 195.408 381.354C192.382 362.699 191.904 343.879 195.249 325.224C198.115 309.376 202.734 292.867 197.638 276.853C196.204 272.561 193.656 267.938 188.401 268.103C186.33 268.103 184.26 269.094 182.667 270.415C178.845 274.047 178.049 279.164 177.412 283.952L175.342 300.296C174.705 305.579 166.901 306.239 165.308 301.121V300.956C164.034 296.664 164.194 292.041 164.671 287.584C165.468 277.844 166.582 267.938 165.149 258.198C163.397 246.477 157.186 234.425 145.083 230.133C140.783 228.647 136.005 228.317 131.705 229.638C119.602 233.27 117.054 245.156 119.602 255.062C121.354 261.995 125.176 268.434 128.679 274.707C137.12 290.225 132.661 305.083 134.731 322.583C138.872 359.397 173.749 395.056 204.008 415.858Z" fill="#41B792"/>
<path opacity="0.5" d="M137.438 250.934C162.919 282.796 153.682 358.242 198.115 398.854" stroke="white" stroke-width="1.0479" stroke-miterlimit="10" stroke-linecap="round" stroke-linejoin="round"/>
<path opacity="0.5" d="M187.127 288.409C189.993 304.588 179.96 322.583 177.731 332.653C175.342 342.723 174.227 359.728 176.616 369.798" stroke="white" stroke-width="1.0479" stroke-miterlimit="10" stroke-linecap="round" stroke-linejoin="round"/>
<path d="M507.392 389.278C509.144 378.878 527.458 313.998 559.788 331.332C578.898 341.568 575.554 379.208 545.614 407.768C551.506 401.825 558.195 395.221 566.317 393.571C570.617 392.745 575.872 394.726 579.217 397.863C582.084 400.669 582.88 404.962 583.039 409.089C583.517 423.947 576.032 438.64 564.087 446.729C570.617 442.932 576.35 438.144 583.995 437.484C586.383 437.319 590.524 438.64 591.798 440.951C593.072 443.427 592.913 452.672 578.421 459.606C637.664 447.885 641.168 474.134 619.827 474.134C598.487 474.134 478.885 474.134 478.885 474.134" fill="#4AD6AE"/>
<path d="M187.923 476.94C141.739 477.601 93.006 475.289 46.8215 475.95C45.2289 475.95 40.292 475.454 48.5733 469.841C55.7399 465.054 78.1951 469.346 78.1951 469.346C78.1951 469.346 72.9396 467.2 72.9396 464.393C72.9396 461.587 75.0099 459.111 77.558 457.955C79.9469 456.799 82.8135 456.634 85.5209 456.799C91.0949 457.13 96.5096 458.45 101.606 460.596C99.3762 459.276 98.7392 455.809 100.332 453.663C101.765 451.517 105.109 451.021 107.021 452.672C103.517 447.885 98.2614 426.258 114.665 416.848C135.209 404.962 150.975 414.702 154.32 421.966C156.072 414.867 163.716 409.584 168.971 408.263C180.597 405.292 188.56 405.622 199.071 411.4C234.426 430.881 218.023 473.473 215.634 478.096" fill="#41B792"/>
<path d="M536.695 477.105C583.358 477.766 632.886 475.454 679.549 476.115C681.141 476.115 686.237 475.619 677.638 470.006C670.471 465.219 647.697 469.511 647.697 469.511C647.697 469.511 652.953 467.365 652.953 464.393C652.953 461.587 650.882 459.111 648.334 457.79C645.786 456.634 642.92 456.469 640.212 456.634C634.638 456.964 629.064 458.285 623.968 460.431C626.198 459.111 626.835 455.644 625.401 453.498C623.968 451.351 620.624 450.856 618.553 452.507C622.057 447.554 627.153 423.947 610.59 414.207C590.843 402.485 575.395 416.518 572.05 423.617C570.299 416.518 561.221 408.924 556.125 407.438C528.892 400.009 513.922 418.499 511.533 422.131C493.218 449.701 505.959 472.318 508.825 476.94" fill="#41B792"/>
<path d="M666.967 477.105C659.323 443.923 663.782 408.263 679.548 379.208L680.504 379.703C664.897 408.429 660.438 443.923 668.082 476.775L666.967 477.105Z" fill="#4AD6AE"/>
<path d="M676.045 387.462C676.204 381.519 678.593 375.576 682.734 371.118C683.689 370.128 684.963 368.972 686.397 369.137C686.715 369.137 687.193 369.303 687.511 369.633C687.989 370.128 687.989 370.788 687.83 371.449C687.193 374.916 684.963 377.722 682.574 380.033C680.026 382.51 678.434 384.656 676.045 387.462Z" fill="#4AD6AE"/>
<path d="M671.745 398.853C674.293 393.405 678.752 388.948 684.008 386.637C685.282 385.976 686.875 385.646 688.149 386.307C688.467 386.472 688.786 386.802 688.945 387.132C689.104 387.792 688.786 388.453 688.467 388.948C686.556 391.755 683.371 393.405 680.345 394.726C677.16 395.882 675.089 397.202 671.745 398.853Z" fill="#4AD6AE"/>
<path d="M667.286 414.042C669.197 408.263 673.019 403.311 678.115 400.339C679.389 399.514 680.823 399.018 682.097 399.514C682.415 399.679 682.893 399.844 683.052 400.339C683.371 401 683.052 401.66 682.893 402.155C681.3 405.292 678.434 407.273 675.408 408.924C672.382 410.41 670.312 412.06 667.286 414.042Z" fill="#4AD6AE"/>
<path d="M664.897 429.395C666.808 423.617 670.63 418.664 675.727 415.692C677.001 414.867 678.434 414.372 679.708 414.867C680.026 415.032 680.504 415.197 680.664 415.692C680.982 416.353 680.664 417.013 680.504 417.508C678.912 420.645 676.045 422.626 673.019 424.277C669.993 425.763 667.923 427.414 664.897 429.395Z" fill="#4AD6AE"/>
<path d="M664.26 450.031C665.534 444.088 668.878 438.805 673.656 435.173C674.771 434.347 676.204 433.522 677.637 433.852C677.956 434.017 678.434 434.182 678.593 434.513C678.911 435.008 678.752 435.833 678.593 436.328C677.319 439.63 674.612 441.941 671.904 443.757C668.878 445.904 667.127 447.72 664.26 450.031Z" fill="#4AD6AE"/>
<path d="M665.215 465.054C666.171 459.606 669.037 454.158 673.337 450.031C674.452 449.04 675.726 448.05 677 448.215C677.319 448.215 677.797 448.38 677.956 448.545C678.274 449.04 678.115 449.701 677.956 450.196C677 453.333 674.452 455.974 671.904 458.12C669.515 460.431 667.763 462.412 665.215 465.054Z" fill="#4AD6AE"/>
<path d="M669.993 404.136C665.693 399.844 662.667 393.901 662.03 387.627C661.871 386.141 661.871 384.326 662.827 383.17C663.145 382.84 663.464 382.675 663.782 382.51C664.419 382.51 664.897 383.005 665.375 383.5C667.604 386.307 668.241 390.104 668.56 393.736C668.719 397.533 669.516 400.174 669.993 404.136Z" fill="#4AD6AE"/>
<path d="M666.967 416.023C661.712 413.051 657.571 407.933 655.341 401.99C654.864 400.504 654.386 398.853 655.023 397.533C655.182 397.202 655.501 396.872 655.819 396.707C656.456 396.542 657.093 396.872 657.571 397.367C660.278 399.514 661.871 403.146 662.986 406.612C664.26 409.914 665.534 412.391 666.967 416.023Z" fill="#4AD6AE"/>
<path d="M664.737 431.871C659.004 430.055 653.908 425.928 650.723 420.48C649.927 419.159 649.13 417.508 649.608 416.188C649.767 415.857 649.927 415.362 650.245 415.197C650.723 414.867 651.519 415.032 652.156 415.362C655.341 417.013 657.412 420.15 659.163 423.286C660.915 426.423 662.667 428.569 664.737 431.871Z" fill="#4AD6AE"/>
<path d="M663.941 452.342C658.845 449.205 654.704 443.922 652.634 437.979C652.156 436.493 651.838 434.843 652.475 433.522C652.634 433.192 652.953 432.862 653.271 432.697C653.908 432.531 654.545 432.862 655.023 433.357C657.73 435.668 659.164 439.135 660.278 442.767C661.234 446.069 662.508 448.545 663.941 452.342Z" fill="#4AD6AE"/>
<path d="M665.534 467.035C659.641 466.705 653.59 463.898 649.131 459.441C648.016 458.285 646.901 456.964 647.06 455.479C647.06 454.983 647.219 454.653 647.538 454.323C648.016 453.828 648.812 453.993 649.449 453.993C652.793 454.818 655.66 457.295 658.208 459.936C660.597 462.577 662.667 464.228 665.534 467.035Z" fill="#4AD6AE"/>
<path d="M717.93 478.096C717.93 480.572 558.195 482.553 342.721 482.553C127.246 482.553 3.18506 480.572 3.18506 478.096C3.18506 475.62 127.246 473.638 342.721 473.638C558.195 473.638 717.93 475.62 717.93 478.096Z" fill="#41B792"/>
<path d="M527.777 372.109H160.69V360.223C160.69 356.096 163.875 352.794 167.857 352.794H520.611C524.592 352.794 527.777 356.096 527.777 360.223V372.109Z" fill="#233C67"/>
<path d="M527.777 456.139H160.69V468.026C160.69 472.153 163.875 475.454 167.857 475.454H520.611C524.592 475.454 527.777 472.153 527.777 468.026V456.139Z" fill="#233C67"/>
<path d="M221.845 479.747H177.412C175.819 479.747 174.545 478.426 174.545 476.775V463.898H224.87V476.775C224.711 478.426 223.437 479.747 221.845 479.747Z" fill="#233C67"/>
<path d="M511.214 479.747H466.782C465.189 479.747 463.915 478.426 463.915 476.775V463.898H514.24V476.775C514.081 478.426 512.807 479.747 511.214 479.747Z" fill="#233C67"/>
<path d="M499.907 369.303H478.089L483.185 106.317C483.185 103.015 485.893 100.374 488.918 100.374C492.104 100.374 494.652 103.015 494.652 106.317L499.907 369.303Z" fill="#0385C0"/>
<path d="M499.907 369.303H494.97L489.874 100.539C491.148 100.704 492.103 101.364 492.9 102.19C494.014 103.18 494.651 104.666 494.651 106.317L499.907 369.303Z" fill="#0385C0"/>
<path d="M540.358 368.147V464.889C540.358 468.025 537.97 470.502 534.944 470.502H153.524C150.498 470.502 148.109 468.025 148.109 464.889V368.147C148.109 365.01 150.498 362.534 153.524 362.534H534.944C537.97 362.534 540.358 365.01 540.358 368.147Z" fill="#29CAFD"/>
<path d="M540.358 368.147V464.889C540.358 468.025 537.97 470.502 534.944 470.502H153.524C150.498 470.502 148.109 468.025 148.109 464.889C520.611 472.813 540.358 368.147 540.358 368.147Z" fill="#21A8D3"/>
<path d="M192.505 427.919C198.594 425.291 201.475 418.043 198.939 411.73C196.404 405.418 189.411 402.432 183.322 405.06C177.233 407.689 174.352 414.937 176.888 421.249C179.424 427.562 186.416 430.548 192.505 427.919Z" fill="#233C67"/>
<path d="M261.977 416.518C261.977 419.82 259.429 422.461 256.244 422.461C253.059 422.461 250.511 419.82 250.511 416.518C250.511 413.216 253.059 410.575 256.244 410.575C259.429 410.41 261.977 413.216 261.977 416.518Z" fill="#1C94BA"/>
<path d="M287.14 416.518C287.14 419.82 284.592 422.461 281.407 422.461C278.221 422.461 275.673 419.82 275.673 416.518C275.673 413.216 278.221 410.575 281.407 410.575C284.432 410.41 287.14 413.216 287.14 416.518Z" fill="#1C94BA"/>
<path d="M312.143 416.518C312.143 419.82 309.595 422.461 306.41 422.461C303.225 422.461 300.677 419.82 300.677 416.518C300.677 413.216 303.225 410.575 306.41 410.575C309.595 410.41 312.143 413.216 312.143 416.518Z" fill="#FFE1BD"/>
<path d="M337.147 416.518C337.147 419.82 334.599 422.461 331.414 422.461C328.228 422.461 325.68 419.82 325.68 416.518C325.68 413.216 328.228 410.575 331.414 410.575C334.599 410.41 337.147 413.216 337.147 416.518Z" fill="#FFE1BD"/>
<path d="M362.15 416.518C362.15 419.82 359.602 422.461 356.417 422.461C353.232 422.461 350.683 419.82 350.683 416.518C350.683 413.216 353.232 410.575 356.417 410.575C359.602 410.41 362.15 413.216 362.15 416.518Z" fill="white"/>
<path d="M387.312 416.518C387.312 419.82 384.764 422.461 381.579 422.461C378.394 422.461 375.846 419.82 375.846 416.518C375.846 413.216 378.394 410.575 381.579 410.575C384.764 410.41 387.312 413.216 387.312 416.518Z" fill="white"/>
<path d="M514.877 422.461H419.323C416.138 422.461 413.59 419.82 413.59 416.518C413.59 413.216 416.138 410.575 419.323 410.575H514.877C518.062 410.575 520.611 413.216 520.611 416.518C520.611 419.82 518.062 422.461 514.877 422.461Z" fill="white"/>
<path d="M488.918 91.4588C492.876 91.4588 496.085 88.1327 496.085 84.0298C496.085 79.9269 492.876 76.6008 488.918 76.6008C484.96 76.6008 481.752 79.9269 481.752 84.0298C481.752 88.1327 484.96 91.4588 488.918 91.4588Z" fill="#79D5FF"/>
<path d="M476.496 75.1151C475.541 75.1151 474.426 74.7849 473.63 73.9595C472.037 72.3086 472.037 69.6672 473.63 68.1814C477.771 63.8891 483.185 61.5779 488.919 61.5779C494.652 61.5779 500.066 63.8891 504.207 68.1814C505.8 69.8323 505.8 72.4737 504.207 73.9595C502.615 75.6104 500.066 75.6104 498.633 73.9595C496.085 71.3181 492.581 69.8323 488.919 69.8323C485.256 69.8323 481.752 71.3181 479.204 73.9595C478.567 74.7849 477.452 75.1151 476.496 75.1151Z" fill="#79D5FF"/>
<path d="M512.966 63.394C512.011 63.394 510.896 63.0638 510.1 62.2383C504.526 56.4602 496.881 53.1585 488.918 53.1585C480.956 53.1585 473.471 56.4602 467.737 62.2383C466.145 63.8892 463.597 63.8892 462.163 62.2383C460.571 60.5875 460.571 57.946 462.163 56.4602C469.33 49.0313 478.885 44.9041 488.918 44.9041C498.952 44.9041 508.507 49.0313 515.674 56.4602C517.266 58.1111 517.266 60.7525 515.674 62.2383C515.036 62.8987 513.922 63.394 512.966 63.394Z" fill="#79D5FF"/>
<path d="M528.255 50.1868C527.299 51.1773 526.025 51.6726 524.911 51.6726C523.637 51.6726 522.522 51.1773 521.566 50.1868C512.807 41.1069 501.341 36.1543 488.919 36.1543C476.656 36.1543 465.03 41.1069 456.271 50.1868C454.36 52.1679 451.334 52.1679 449.582 50.1868C447.671 48.2057 447.671 45.0691 449.582 43.2531C452.13 40.6117 454.997 38.1353 458.023 36.1543C467.1 29.8809 477.771 26.4141 489.078 26.4141C491.307 26.4141 493.537 26.5792 495.767 26.7442C508.189 28.23 519.496 34.0081 528.414 43.2531C530.166 45.2341 530.166 48.2057 528.255 50.1868Z" fill="#79D5FF"/>
<path d="M578.262 503.024C578.262 503.024 577.943 511.939 578.421 514.085C578.739 515.736 583.676 515.901 584.154 515.076C584.791 514.25 585.428 503.85 585.428 503.85" fill="#FFE1BD"/>
<path d="M586.065 515.406C586.065 516.727 585.747 518.708 585.587 519.863C585.428 520.358 585.11 520.854 584.473 520.854H578.421C578.421 520.854 575.714 520.854 573.962 520.854H568.069C563.769 520.854 561.221 520.358 561.062 519.533C560.584 516.231 577.465 510.783 578.262 511.113C578.262 511.113 578.421 511.774 579.058 512.599C580.013 513.755 580.81 514.25 582.243 513.92C583.199 513.755 583.995 513.425 584.632 512.764C584.632 512.764 586.065 513.26 586.065 515.406Z" fill="#233C67"/>
<path d="M651.52 506.821C651.52 506.821 652.476 511.279 652.953 512.765C653.431 514.25 658.209 513.26 658.527 512.269C658.846 511.279 656.616 502.859 656.616 502.859" fill="#FFE1BD"/>
<path d="M660.12 512.599C660.438 513.755 660.757 515.571 660.916 516.726C661.075 517.222 660.757 517.717 660.279 518.047L656.138 519.863C655.82 520.028 654.227 520.524 652.794 521.184C651.52 521.844 649.29 522.339 647.857 522.505C643.557 522.835 640.531 521.844 640.213 521.349C639.257 518.873 649.45 511.939 651.679 510.783C651.998 510.618 652.316 510.618 652.476 510.783C652.794 510.948 653.431 511.279 653.75 512.104C653.909 512.599 654.387 512.929 655.024 512.764C656.138 512.599 657.89 512.104 658.527 510.783C658.368 510.618 659.642 510.783 660.12 512.599Z" fill="#233C67"/>
<path d="M634.32 373.43C634.32 373.43 644.035 343.879 616.483 319.611C616.483 319.611 601.832 325.719 590.047 326.38C580.81 326.875 576.032 326.05 576.032 326.05C576.032 326.05 575.236 352.299 575.236 366.331L634.32 373.43Z" fill="#233C67"/>
<path d="M579.058 342.393C576.828 343.219 576.191 349.987 575.873 354.61C575.554 359.232 573.802 407.273 573.165 415.858C573.006 417.343 573.006 418.664 573.165 419.82C573.006 420.645 573.006 421.471 573.006 422.296C573.643 436.329 576.51 480.902 576.191 508.142C576.191 508.142 584.154 508.967 586.384 508.472C587.976 489.487 598.169 453.663 594.665 430.881C593.391 422.791 594.028 414.372 596.417 406.613C600.398 393.24 605.017 377.392 606.291 369.963C608.839 352.629 589.728 338.101 579.058 342.393Z" fill="#233C67"/>
<path d="M643.079 434.347C638.939 426.919 636.231 418.499 636.072 409.749C635.753 393.736 635.435 373.265 633.842 365.506C630.179 348.336 611.069 341.238 602.628 349.327C600.876 350.978 600.558 360.058 601.991 364.515C603.424 368.972 614.254 418.004 616.961 426.258C617.28 427.414 617.757 428.569 618.076 429.395C618.235 430.22 618.394 430.881 618.713 431.871C623.331 445.243 642.601 483.379 650.087 509.463C650.087 509.463 657.253 508.637 659.801 506.821C655.66 488.331 654.705 454.984 643.079 434.347Z" fill="#233C67"/>
<path d="M633.205 340.907C600.08 347.181 574.121 341.403 574.44 339.091C575.395 333.478 577.784 289.73 576.351 285.438C573.803 278.009 572.688 265.627 570.617 260.014C569.184 255.722 565.203 243.505 568.388 240.204C571.892 236.406 580.491 230.793 593.073 231.124C601.832 231.454 624.128 233.765 628.109 238.883C630.657 242.019 631.931 247.963 632.568 255.227C632.887 259.684 633.046 264.472 633.046 269.754C632.887 285.108 631.135 302.607 630.179 315.484C629.702 324.729 633.205 340.907 633.205 340.907Z" fill="#28C3F5"/>
<path d="M590.206 220.558C590.206 220.558 590.206 229.803 589.888 230.133C589.091 231.124 586.543 231.619 586.543 231.619C586.543 231.619 587.021 237.397 592.436 238.057C604.061 239.543 608.043 232.609 608.043 232.609C608.043 232.609 605.017 231.949 605.176 230.133C605.176 229.308 607.087 213.954 607.087 213.954" fill="#FFCCB0"/>
<path d="M590.206 221.549L596.417 222.704C596.417 222.704 594.347 225.015 590.206 225.015" fill="#F2A181"/>
<path d="M575.077 187.705C573.166 189.356 573.166 192.823 573.325 195.299C573.484 198.106 574.121 200.912 574.758 203.719C575.236 205.7 576.032 207.516 577.306 209.002C577.943 209.662 578.899 210.157 579.695 210.653C580.173 210.983 580.651 211.148 581.288 211.313C581.765 211.478 582.402 211.313 582.88 210.983C583.517 210.322 583.358 209.497 583.358 208.672C582.721 203.224 582.084 197.776 582.88 192.328" fill="#3B639F"/>
<path d="M578.899 204.049C578.262 202.563 576.192 202.233 575.555 204.379C574.918 206.195 575.714 208.837 576.351 210.653C577.147 212.964 579.058 212.634 580.492 212.304" fill="#FFCCB0"/>
<path d="M583.995 184.899C582.243 186.22 576.828 187.375 576.351 190.182C575.873 192.988 576.828 198.766 576.828 200.417C576.988 203.719 577.625 207.186 578.102 210.488C578.739 214.78 580.013 222.539 584.95 224.19C586.384 224.685 587.021 224.685 588.295 224.355C590.206 223.86 591.958 223.53 593.869 223.034C596.735 222.374 599.921 221.549 602.309 219.567C605.335 216.761 605.176 210.818 604.698 207.021L601.832 185.064L583.995 184.899Z" fill="#FFCCB0"/>
<path d="M605.335 202.894C603.902 202.728 602.628 202.398 602.31 203.884C602.15 204.71 602.31 205.7 601.672 206.195C601.035 206.691 600.08 206.36 599.602 205.7C599.124 205.04 598.965 204.214 598.965 203.389C598.806 201.573 598.647 199.757 598.487 197.941C598.328 196.125 598.01 194.144 596.895 192.988C596.258 192.328 595.461 191.998 594.665 191.668C591.958 190.842 588.932 191.007 586.225 191.668C583.358 192.328 580.651 193.153 577.784 193.483C576.669 193.649 575.395 193.649 574.28 193.318C572.369 192.658 570.936 191.172 570.14 189.356C569.343 187.54 569.184 185.394 569.503 183.413C569.98 183.908 570.458 184.404 571.095 184.899C571.095 183.908 571.254 182.918 571.573 181.927C574.121 185.889 591.162 176.644 595.939 176.81C599.284 176.81 601.991 176.644 603.902 181.597C604.061 181.927 604.38 181.927 604.698 182.092C608.202 183.413 610.591 185.889 612.661 190.017C615.209 195.134 614.572 202.233 613.457 207.846C613.139 209.332 613.139 210.157 612.343 211.478C611.706 212.799 609.954 213.954 608.68 214.285C607.246 214.615 604.858 215.77 604.221 214.45C603.743 213.459 605.017 210.983 605.335 209.827" fill="#3B639F"/>
<path d="M602.787 209.827C602.787 209.827 602.947 210.818 603.743 211.313C604.539 211.643 605.335 211.148 605.972 210.653C607.565 209.167 608.043 206.691 607.565 204.709C607.087 202.233 604.858 200.417 603.106 201.903C601.991 202.728 601.832 204.544 602.469 205.7" fill="#FFCCB0"/>
<path d="M567.432 242.02L561.062 265.627L575.395 267.278L579.217 252.75L567.432 242.02Z" fill="#28C3F5"/>
<path d="M539.85 305.832H618.364V302.695H539.85V305.832Z" fill="#00BDC7"/>
<path d="M524.751 305.909H592.913L580.651 264.637C580.014 262.325 577.943 260.84 575.714 260.84H515.992C513.763 260.84 512.011 263.151 512.807 265.462L524.751 305.909Z" fill="#00BDC7"/>
<path d="M523.955 305.909H591.002L578.739 264.637C578.102 262.325 576.032 260.84 573.802 260.84H514.081C511.851 260.84 510.1 263.151 510.896 265.462L522.522 305.083C522.84 305.413 523.318 305.909 523.955 305.909Z" fill="#2ACCFF"/>
<path d="M555.169 283.787C555.169 287.749 552.143 290.886 548.321 290.886C544.499 290.886 541.473 287.749 541.473 283.787C541.473 279.825 544.499 276.688 548.321 276.688C552.143 276.688 555.169 279.825 555.169 283.787Z" fill="white"/>
<path d="M612.661 267.278C612.661 267.278 609.954 285.933 609.157 290.886C608.52 294.683 607.087 305.909 607.087 305.909L611.546 315.319C611.546 315.319 615.528 313.998 618.394 310.366C621.261 306.569 626.994 277.513 626.994 277.513" fill="#FFCCB0"/>
<path d="M615.209 247.798C615.209 247.798 611.705 262.986 610.909 276.688C610.909 276.688 623.491 279.33 630.976 280.32C630.976 280.32 641.487 248.623 627.313 238.553" fill="#28C3F5"/>
<path d="M614.253 252.75L612.661 264.802C612.342 266.783 612.183 268.764 611.865 270.745C611.705 272.726 611.387 274.707 611.387 276.688L611.068 276.193C613.935 276.853 616.802 277.513 619.509 278.174C622.375 278.834 625.242 279.329 628.109 279.825C625.242 279.66 622.375 279.329 619.509 278.834C616.642 278.339 613.776 277.844 610.909 277.183H610.591V276.853C610.591 274.707 610.75 272.726 611.068 270.745C611.387 268.764 611.705 266.783 612.024 264.802C612.502 260.674 613.298 256.547 614.253 252.75Z" fill="#41B792"/>
<path d="M594.983 305.909C594.983 305.909 602.946 303.597 610.272 304.918C617.598 306.239 611.546 315.319 611.546 315.319C579.217 318.125 558.832 305.909 558.832 305.909H607.246" fill="#FFCCB0"/>
<path d="M552.781 305.909C552.781 305.909 557.399 307.89 562.973 308.055C568.706 308.22 569.503 305.909 569.503 305.909H552.781Z" fill="#FFCCB0"/>
<g opacity="0.5">
<g opacity="0.5">
<g opacity="0.5">
<path opacity="0.5" d="M538.288 189.026L546.41 193.483L542.27 182.588" fill="black"/>
</g>
<path opacity="0.5" d="M530.166 192.823C539.665 192.823 547.366 184.841 547.366 174.994C547.366 165.147 539.665 157.164 530.166 157.164C520.667 157.164 512.966 165.147 512.966 174.994C512.966 184.841 520.667 192.823 530.166 192.823Z" fill="#E4E9EB"/>
</g>
</g>
<path d="M531.44 182.918C530.803 183.578 529.688 183.578 529.051 182.918C528.414 182.257 528.414 181.102 529.051 180.441C529.688 179.781 530.803 179.781 531.44 180.441C532.077 181.102 532.077 182.257 531.44 182.918Z" fill="white"/>
<path d="M527.299 179.616C526.981 179.616 526.821 179.451 526.662 179.286C526.344 178.956 526.344 178.295 526.662 177.965C527.618 176.975 528.892 176.479 530.325 176.479C531.758 176.479 533.032 176.975 533.988 177.965C534.306 178.295 534.306 178.956 533.988 179.286C533.669 179.616 533.032 179.616 532.714 179.286C532.077 178.625 531.281 178.295 530.484 178.295C529.688 178.295 528.892 178.625 528.255 179.286C527.777 179.616 527.458 179.616 527.299 179.616Z" fill="white"/>
<path d="M535.899 176.809C535.581 176.809 535.421 176.644 535.262 176.479C533.988 175.159 532.236 174.333 530.325 174.333C528.414 174.333 526.662 175.159 525.388 176.479C525.07 176.809 524.433 176.809 524.114 176.479C523.796 176.149 523.796 175.489 524.114 175.159C525.866 173.343 528.096 172.517 530.484 172.517C532.873 172.517 535.103 173.508 536.855 175.159C537.173 175.489 537.173 176.149 536.855 176.479C536.377 176.809 536.058 176.809 535.899 176.809Z" fill="white"/>
<path d="M539.562 173.673C539.403 173.838 539.084 174.003 538.766 174.003C538.447 174.003 538.129 173.838 537.97 173.673C535.899 171.527 533.192 170.371 530.325 170.371C527.459 170.371 524.751 171.527 522.681 173.673C522.203 174.168 521.566 174.168 521.088 173.673C520.611 173.178 520.611 172.517 521.088 172.022C521.725 171.362 522.362 170.866 522.999 170.371C525.07 168.885 527.618 168.06 530.325 168.06C530.803 168.06 531.44 168.06 531.918 168.225C534.784 168.555 537.492 169.876 539.562 172.187C539.881 172.517 539.881 173.343 539.562 173.673Z" fill="white"/>
<path d="M78.8322 478.096C78.8322 478.096 71.5064 493.284 67.525 501.703C67.2065 502.199 67.2065 502.859 67.525 503.354C68.4805 505.5 71.1879 510.948 72.7804 513.095C71.5064 512.599 55.4215 507.977 58.7659 502.859C61.6325 498.567 63.5436 486.35 67.3657 473.804" fill="#FFE1BD"/>
<path d="M59.7213 500.218C59.8806 500.053 60.3583 500.053 60.5176 500.383C61.3139 501.538 63.0657 502.529 63.862 502.859C65.4546 503.354 67.0471 502.694 67.6841 503.189C68.3212 503.685 72.1433 512.269 75.647 515.241C78.1951 517.387 76.284 519.038 75.9655 519.203C66.5694 521.514 64.1805 516.396 63.225 515.241C60.9954 512.599 60.6769 511.279 58.6065 508.802C57.9695 508.142 56.8547 506.656 56.6954 505.666C56.3769 503.519 57.9695 501.373 59.7213 500.218Z" fill="#233C67"/>
<path d="M122.947 489.817C122.947 489.817 123.265 496.421 123.106 507.812C123.106 508.307 123.265 508.802 123.743 509.133C125.654 510.618 131.069 514.911 133.935 516.066C132.343 516.396 114.028 521.019 114.984 513.92C115.78 507.977 114.665 502.529 111.958 490.147" fill="#FFE1BD"/>
<path d="M114.824 510.949C114.984 510.618 115.302 510.453 115.621 510.453C116.895 510.949 118.806 510.783 119.761 510.783C121.035 510.949 122.946 508.802 123.743 508.967C124.539 509.133 130.432 513.26 134.094 514.911C134.891 515.241 136.324 515.736 138.394 516.562C142.535 518.543 139.509 520.359 138.394 520.524C136.643 521.019 120.239 520.854 116.895 519.863C115.302 519.533 114.347 519.038 113.71 518.212C112.754 516.892 114.028 513.59 114.824 510.949Z" fill="#233C67"/>
<path d="M132.502 362.864C133.139 382.51 123.743 497.741 123.743 497.741C123.743 497.741 122.469 498.402 119.761 498.402C116.099 498.402 112.754 497.907 112.754 497.907C112.754 497.907 106.225 468.686 107.18 438.805C107.339 434.843 107.499 430.881 107.976 426.919C108.614 420.645 108.613 414.372 107.658 408.098C106.543 401 105.428 393.24 104.473 384.986C102.562 368.972 101.128 351.803 100.81 337.606C99.6951 269.589 127.565 325.389 127.565 325.389C127.565 325.389 131.706 343.219 132.502 362.864Z" fill="#233C67"/>
<path d="M107.976 426.918C108.613 420.645 108.613 414.372 107.658 408.098C106.543 401 105.428 393.24 104.473 384.986L110.365 355.93C110.365 355.93 117.054 404.301 107.18 438.805C107.339 434.843 107.658 430.881 107.976 426.918Z" fill="#3B639F"/>
<path d="M81.2209 331.828C81.2209 331.828 72.9396 349.657 75.0099 368.642C76.4432 381.684 79.9469 396.212 82.6543 405.787C84.2468 411.4 83.769 417.343 81.3802 422.626C72.6211 442.437 61.3138 490.973 61.3138 490.973C61.3138 490.973 67.6841 494.605 72.9396 494.44C72.9396 494.44 97.7836 438.31 102.084 421.801C110.206 391.259 111.32 333.148 111.32 333.148L81.2209 331.828Z" fill="#233C67"/>
<path d="M120.876 199.262C122.469 203.389 120.08 208.011 119.602 212.304C119.283 215.275 119.761 218.412 119.92 221.549C119.92 224.685 119.443 227.987 117.372 230.133C115.621 231.949 113.072 232.775 110.524 232.94C104.632 233.27 98.7393 230.793 94.7579 226.336C90.7765 221.879 88.8654 215.44 89.821 209.497C90.1395 207.351 90.7765 205.205 91.5728 203.224C93.8024 198.106 97.4653 193.318 102.721 191.502C107.817 189.686 114.347 191.337 116.895 196.29" fill="#FFE1BD"/>
<path d="M89.184 189.686C86.6359 187.54 83.2915 186.385 80.1063 186.055C75.9656 185.724 71.5065 187.21 69.1176 190.512C66.7288 193.649 66.4102 197.941 64.4992 201.408C61.1548 207.186 53.9882 209.332 49.529 214.285C48.255 215.77 47.1402 217.586 47.2994 219.567C47.4587 222.044 49.3698 224.025 49.6883 226.501C50.3253 230.959 45.8661 234.756 46.5032 239.213C47.1402 243.01 51.1216 244.991 54.9438 245.486C60.5177 246.312 66.251 244.991 70.7102 241.524C75.1694 238.057 77.8767 232.114 77.2397 226.501C76.9212 224.025 75.9657 221.549 75.9657 219.072C75.8064 214.615 78.3545 210.323 78.036 205.7C77.8767 203.719 77.2397 201.408 78.1952 199.592C78.673 198.766 79.31 198.106 79.9471 197.611C82.0174 195.795 84.7248 193.979 87.1136 195.3" fill="#3B639F"/>
<path d="M124.857 197.281C124.539 195.465 124.22 193.649 123.265 192.163C121.513 189.191 117.532 188.201 114.506 189.521C114.187 188.696 113.869 188.036 113.391 187.375C108.613 180.442 97.7838 181.102 91.2542 184.239C89.8209 184.899 88.5469 185.559 87.5913 186.88C86.158 188.696 85.9988 191.172 85.8395 193.649C84.0877 193.979 82.6544 195.465 81.8581 196.95C81.0618 198.601 80.7433 200.417 80.584 202.233C80.1062 208.341 81.8581 214.78 85.521 219.567C86.9543 221.549 89.0246 223.199 91.2542 223.53C91.5727 223.53 92.0505 223.53 92.369 223.199C92.5283 223.034 92.5283 222.869 92.5283 222.704C92.5283 221.383 92.0505 220.228 91.8913 218.907C91.732 217.586 91.732 216.266 92.5283 215.11C93.1653 215.11 93.6431 216.431 94.2801 216.101C94.4394 216.101 94.4394 215.936 94.5986 215.77C95.5542 213.954 94.9171 211.643 94.9171 209.497C94.9171 209.167 95.0764 209.002 95.0764 208.672C101.287 204.71 109.569 206.691 115.78 202.233C116.258 201.903 116.895 201.408 117.213 200.747C117.532 200.087 117.691 199.427 117.691 198.601C118.328 199.592 118.965 200.582 119.283 201.573C120.239 204.875 120.557 206.525 120.08 211.643C121.354 209.332 122.787 207.351 124.061 204.875C124.539 204.049 125.017 203.059 125.176 202.068C125.335 200.417 125.176 198.766 124.857 197.281Z" fill="#3B639F"/>
<path d="M95.0764 215.935C95.3949 215.605 95.0764 215.275 94.7579 215.11C94.1208 214.615 93.4838 214.285 92.8468 214.119C92.2097 213.954 91.2542 213.954 90.7764 214.45C90.2987 214.945 89.9802 215.605 89.8209 216.431C89.5024 218.907 90.4579 221.714 92.5283 223.199C93.3245 223.86 94.2801 224.355 95.2356 224.025C96.1912 223.86 96.9875 222.704 96.6689 221.714" fill="#F5BC8E"/>
<path d="M133.617 286.758C133.617 286.758 127.565 324.564 126.928 330.342C126.45 334.964 128.998 338.266 132.024 329.516C134.094 323.573 147.313 293.692 143.809 284.117C140.305 274.707 136.483 283.127 136.483 283.127L133.617 286.758Z" fill="#FFE1BD"/>
<path d="M132.343 258.363C132.343 258.363 139.509 271.735 143.65 283.622C145.561 289.235 138.394 297.489 133.617 287.419C128.043 275.532 122.787 265.132 122.787 265.132" fill="#FFE1BD"/>
<path d="M134.094 261.005C133.935 261.17 133.776 261.335 133.457 261.5C132.502 262.325 130.909 263.481 128.68 264.967C128.361 265.132 128.043 265.297 127.724 265.627C120.876 269.589 117.213 257.868 117.213 257.868L116.258 237.892C116.258 237.892 119.761 238.553 125.654 245.982C126.132 246.642 131.387 253.906 134.094 261.005Z" fill="#25BBEA"/>
<path d="M133.617 261.5C132.661 262.325 131.069 263.481 128.839 264.967L121.513 261.17L122.628 247.798C122.628 247.798 126.132 253.741 127.724 256.052C129.476 258.528 131.706 259.684 133.617 261.5Z" fill="#20A5CF"/>
<path d="M128.52 283.622C122.946 293.692 128.043 319.776 129.794 333.809C129.794 334.304 129.476 334.799 128.998 334.964C119.602 336.78 101.447 339.257 89.1839 336.45C87.9099 336.12 86.6358 335.79 85.6803 335.625C83.6099 334.964 82.3359 334.469 81.3803 333.974C81.0618 333.809 80.9026 333.313 80.9026 332.983C81.0618 332.323 81.2211 331.663 81.2211 331.002C82.8136 322.087 83.9284 307.395 78.8322 285.768C75.3286 271.24 73.5767 254.566 78.9915 245.651C79.4692 244.826 80.1063 244.001 80.9026 243.175C86.6358 237.232 96.8282 236.407 111.48 237.067C114.346 237.232 117.372 238.883 118.806 240.204C122.946 243.835 122.628 257.043 127.724 264.472C130.113 267.113 134.891 272.231 128.52 283.622Z" fill="#28C3F5"/>
<path d="M85.8396 335.46C83.2915 334.634 80.4249 334.139 80.1064 332.653C79.9471 330.012 81.3804 327.535 81.5397 326.71C83.1322 317.795 84.4063 307.064 79.1508 285.438C75.6472 270.91 73.8954 254.236 79.3101 245.321C80.2656 243.67 82.1767 242.68 84.0878 242.68C85.0433 242.68 85.9989 242.68 87.1137 243.01C86.3174 245.321 85.2026 251.76 85.2026 251.76L92.3691 253.411C92.3691 253.411 94.121 256.052 89.821 271.736C88.3877 275.698 87.2729 278.504 87.1137 281.971C86.6359 288.244 87.7507 301.286 87.7507 301.286C87.7507 301.286 87.1137 326.215 85.8396 335.46Z" fill="#20A5CF"/>
<path d="M88.7063 263.811L79.4694 289.565C76.6028 292.702 73.0991 294.683 69.914 293.032C67.8437 292.041 67.5251 289.4 67.5251 287.749C67.5251 286.758 67.6844 286.263 67.6844 286.263C68.6399 280.65 70.0733 274.047 71.3473 268.599C71.6658 267.443 71.8251 266.287 72.1436 265.132C73.0991 261.335 73.7362 258.528 74.0547 257.538C74.2139 257.208 74.2139 257.042 74.2139 257.042L88.7063 263.811Z" fill="#FFE1BD"/>
<path d="M78.3545 270.58L74.3731 278.999C74.3731 278.999 71.188 280.65 72.462 277.844C73.7361 275.037 73.5768 270.58 73.5768 270.58C72.6213 270.085 71.825 269.259 71.188 268.764C71.5065 267.608 71.6658 266.453 71.9843 265.297C73.0991 265.297 75.8064 265.297 75.8064 265.297C75.9657 265.297 78.3545 270.58 78.3545 270.58Z" fill="#FCD4A9"/>
<path d="M82.814 241.194C73.7363 245.651 71.8252 256.382 70.2327 267.278L85.9991 273.882C85.9991 273.882 99.3767 252.75 91.0953 244.826C87.9102 241.524 86.3176 239.543 82.814 241.194Z" fill="#28C3F5"/>
<path d="M105.747 229.638C105.906 230.959 106.861 235.251 107.339 235.911C107.976 236.737 108.932 236.572 109.728 236.572C109.728 240.038 105.11 243.175 101.287 242.35C98.7393 241.854 96.032 239.708 95.0764 237.067C97.1468 235.416 97.1468 231.949 97.1468 229.473C97.1468 227.657 97.4653 225.015 96.8282 223.199" fill="#FFE1BD"/>
<path d="M103.039 229.638L93.484 233.105C92.847 233.27 92.0507 232.94 91.8914 232.279L84.5656 210.323C84.4064 209.662 84.7249 208.837 85.3619 208.672L94.9173 205.205C95.5543 205.04 96.3506 205.37 96.5099 206.03L103.836 227.987C103.995 228.647 103.676 229.308 103.039 229.638Z" fill="#2ACCFF"/>
<path d="M78.0361 296.003C81.2212 295.508 86.9545 286.593 89.184 277.348C93.6432 259.519 96.1913 246.312 97.1469 240.534C97.4654 238.388 97.6247 237.397 97.6247 237.397C97.6247 237.397 91.4136 235.251 91.4136 236.076C91.4136 236.737 91.4136 237.562 90.9359 238.388C87.7507 244.661 78.1953 262.986 73.4176 276.688C73.0991 277.513 72.1436 278.009 71.3473 277.844C67.8436 279.825 67.8436 290.555 67.8436 290.555L68.4807 291.876C71.3473 296.334 75.8065 296.334 78.0361 296.003Z" fill="#FFE1BD"/>
<path d="M91.5728 236.076C91.5728 236.076 92.0506 232.61 90.458 229.638C88.7062 226.501 88.2284 222.044 88.2284 222.044C88.2284 222.044 88.3877 214.615 89.0247 214.12C89.5024 213.459 89.9802 214.78 90.1395 215.936C90.2987 216.926 90.2987 221.218 90.458 222.209C90.6172 223.365 91.4135 225.015 91.4135 225.015C91.4135 225.015 91.095 219.237 91.095 217.421C91.095 215.605 91.095 213.789 91.5728 213.789C92.3691 213.955 92.8468 215.77 92.8468 218.082C92.8468 220.393 93.9616 225.181 93.9616 225.181C93.9616 225.181 93.8024 220.888 93.9616 219.402C94.1209 217.917 94.2801 215.11 94.5987 214.78C94.9172 214.45 95.8727 215.11 95.8727 216.431C95.8727 217.752 96.1912 222.209 96.3505 223.53C96.5097 224.85 97.306 225.841 97.306 225.841C97.306 225.841 97.1468 223.86 97.1468 221.879C97.1468 219.733 97.4653 217.421 97.7838 217.421C99.0579 217.421 98.7393 223.695 99.0578 224.685C100.65 229.473 98.1023 237.562 98.1023 237.562C98.1023 237.562 94.4394 241.194 93.9616 241.359C93.4839 241.524 90.7765 241.854 90.7765 241.854L91.5728 236.076Z" fill="#FFE1BD"/>
<g opacity="0.5">
<g opacity="0.5">
<g opacity="0.5">
<path opacity="0.5" d="M140.783 190.842L132.024 192.658L137.439 185.559" fill="#001B24"/>
</g>
<path opacity="0.5" d="M134.094 179.451C134.094 187.54 140.465 193.979 148.109 193.979C155.912 193.979 162.123 187.375 162.123 179.451C162.123 171.362 155.753 164.923 148.109 164.923C140.305 164.758 134.094 171.362 134.094 179.451Z" fill="#88DBF5"/>
</g>
</g>
<path d="M142.694 179.451C142.694 180.607 141.898 181.432 140.783 181.432C139.668 181.432 138.872 180.607 138.872 179.451C138.872 178.295 139.668 177.47 140.783 177.47C141.898 177.47 142.694 178.295 142.694 179.451Z" fill="white"/>
<path d="M148.109 181.432C149.164 181.432 150.02 180.545 150.02 179.451C150.02 178.357 149.164 177.47 148.109 177.47C147.053 177.47 146.198 178.357 146.198 179.451C146.198 180.545 147.053 181.432 148.109 181.432Z" fill="white"/>
<path d="M155.435 181.432C156.49 181.432 157.346 180.545 157.346 179.451C157.346 178.357 156.49 177.47 155.435 177.47C154.379 177.47 153.524 178.357 153.524 179.451C153.524 180.545 154.379 181.432 155.435 181.432Z" fill="white"/>
<g opacity="0.5">
<g opacity="0.5">
<path opacity="0.5" d="M8.75915 281.311C8.75915 282.631 7.64435 283.787 6.3703 283.787C5.09624 283.787 3.98145 282.631 3.98145 281.311C3.98145 279.99 5.09624 278.834 6.3703 278.834C7.64435 278.834 8.75915 279.825 8.75915 281.311Z" fill="#4AD6AE"/>
<path opacity="0.5" d="M240 80.398C240 81.7187 238.885 82.8743 237.611 82.8743C236.337 82.8743 235.222 81.7187 235.222 80.398C235.222 79.0772 236.337 77.9216 237.611 77.9216C238.885 77.9216 240 78.9122 240 80.398Z" fill="#4AD6AE"/>
<path opacity="0.5" d="M334.599 5.94312C334.599 7.26383 333.484 8.41945 332.21 8.41945C330.936 8.41945 329.821 7.26383 329.821 5.94312C329.821 4.62242 330.936 3.4668 332.21 3.4668C333.484 3.4668 334.599 4.45733 334.599 5.94312Z" fill="#4AD6AE"/>
<path opacity="0.5" d="M553.258 213.294C553.258 214.615 552.143 215.77 550.869 215.77C549.595 215.77 548.481 214.615 548.481 213.294C548.481 211.973 549.595 210.818 550.869 210.818C552.143 210.653 553.258 211.808 553.258 213.294Z" fill="#4AD6AE"/>
</g>
<g opacity="0.5">
<g opacity="0.5">
<g opacity="0.5">
<path opacity="0.5" d="M38.6991 161.456C38.2213 161.456 37.7435 160.961 37.7435 160.466V153.532C37.7435 153.037 38.2213 152.542 38.6991 152.542C39.1768 152.542 39.6546 153.037 39.6546 153.532V160.466C39.6546 160.961 39.1768 161.456 38.6991 161.456Z" fill="#4AD6AE"/>
</g>
<g opacity="0.5">
<path opacity="0.5" d="M42.0437 157.989H35.355C34.8772 157.989 34.3994 157.494 34.3994 156.999C34.3994 156.504 34.8772 156.008 35.355 156.008H42.0437C42.5215 156.008 42.9993 156.504 42.9993 156.999C42.9993 157.494 42.6808 157.989 42.0437 157.989Z" fill="#4AD6AE"/>
</g>
</g>
<g opacity="0.5">
<g opacity="0.5">
<path opacity="0.5" d="M193.019 249.613C192.541 249.613 192.064 249.118 192.064 248.623V241.689C192.064 241.194 192.541 240.699 193.019 240.699C193.497 240.699 193.975 241.194 193.975 241.689V248.623C193.975 249.118 193.656 249.613 193.019 249.613Z" fill="#4AD6AE"/>
</g>
<g opacity="0.5">
<path opacity="0.5" d="M196.364 246.147H189.675C189.197 246.147 188.719 245.651 188.719 245.156C188.719 244.661 189.197 244.166 189.675 244.166H196.364C196.841 244.166 197.319 244.661 197.319 245.156C197.319 245.651 197.001 246.147 196.364 246.147Z" fill="#4AD6AE"/>
</g>
</g>
<g opacity="0.5">
<g opacity="0.5">
<path opacity="0.5" d="M440.186 109.454C439.708 109.454 439.23 108.958 439.23 108.463V101.529C439.23 101.034 439.708 100.539 440.186 100.539C440.663 100.539 441.141 101.034 441.141 101.529V108.463C441.141 108.958 440.663 109.454 440.186 109.454Z" fill="#4AD6AE"/>
</g>
<g opacity="0.5">
<path opacity="0.5" d="M443.53 105.987H436.841C436.363 105.987 435.886 105.491 435.886 104.996C435.886 104.501 436.363 104.006 436.841 104.006H443.53C444.008 104.006 444.486 104.501 444.486 104.996C444.486 105.491 444.008 105.987 443.53 105.987Z" fill="#4AD6AE"/>
</g>
</g>
<g opacity="0.5">
<g opacity="0.5">
<path opacity="0.5" d="M554.373 82.8743C553.895 82.8743 553.417 82.379 553.417 81.8837V74.95C553.417 74.4547 553.895 73.9595 554.373 73.9595C554.85 73.9595 555.328 74.4547 555.328 74.95V81.8837C555.328 82.5441 555.01 82.8743 554.373 82.8743Z" fill="#4AD6AE"/>
</g>
<g opacity="0.5">
<path opacity="0.5" d="M557.717 79.4073H551.028C550.551 79.4073 550.073 78.9121 550.073 78.4168C550.073 77.9215 550.551 77.4263 551.028 77.4263H557.717C558.195 77.4263 558.673 77.9215 558.673 78.4168C558.673 78.9121 558.354 79.4073 557.717 79.4073Z" fill="#4AD6AE"/>
</g>
</g>
<g opacity="0.5">
<g opacity="0.5">
<path opacity="0.5" d="M529.21 326.875C528.732 326.875 528.255 326.38 528.255 325.884V318.951C528.255 318.455 528.732 317.96 529.21 317.96C529.688 317.96 530.166 318.455 530.166 318.951V325.884C530.166 326.38 529.847 326.875 529.21 326.875Z" fill="#4AD6AE"/>
</g>
<g opacity="0.5">
<path opacity="0.5" d="M532.555 323.408H525.866C525.388 323.408 524.91 322.913 524.91 322.417C524.91 321.922 525.388 321.427 525.866 321.427H532.555C533.032 321.427 533.51 321.922 533.51 322.417C533.51 322.913 533.192 323.408 532.555 323.408Z" fill="#4AD6AE"/>
</g>
</g>
<g opacity="0.5">
<g opacity="0.5">
<path opacity="0.5" d="M395.275 155.678C394.798 155.678 394.32 155.183 394.32 154.688V147.754C394.32 147.259 394.798 146.763 395.275 146.763C395.753 146.763 396.231 147.259 396.231 147.754V154.688C396.231 155.183 395.753 155.678 395.275 155.678Z" fill="#4AD6AE"/>
</g>
<g opacity="0.5">
<path opacity="0.5" d="M398.62 152.211H391.931C391.453 152.211 390.976 151.716 390.976 151.221C390.976 150.725 391.453 150.23 391.931 150.23H398.62C399.098 150.23 399.576 150.725 399.576 151.221C399.576 151.716 399.257 152.211 398.62 152.211Z" fill="#4AD6AE"/>
</g>
</g>
</g>
</g>
<path opacity="0.5" d="M182.508 60.5873C180.438 60.5873 178.527 61.5779 177.094 63.0637L171.361 58.9364C171.679 58.2761 171.838 57.6157 171.838 56.9554C171.838 54.1489 169.609 51.8376 166.901 51.8376C164.194 51.8376 161.964 54.1489 161.964 56.9554C161.964 59.7619 164.194 62.0731 166.901 62.0731C168.175 62.0731 169.449 61.5779 170.246 60.5873L175.979 64.7145C175.501 65.7051 175.183 66.8607 175.183 68.1814C175.183 69.9974 175.82 71.6482 176.775 72.969L173.749 76.1056C172.953 75.6104 172.157 75.2802 171.042 75.2802C168.335 75.2802 166.105 77.5914 166.105 80.3979C166.105 83.2044 168.335 85.5157 171.042 85.5157C173.749 85.5157 175.979 83.2044 175.979 80.3979C175.979 79.2423 175.66 78.2518 175.023 77.4263L178.049 74.2897C179.323 75.2802 180.757 75.7755 182.349 75.7755C186.331 75.7755 189.675 72.4737 189.675 68.1814C189.834 63.8891 186.49 60.5873 182.508 60.5873Z" fill="#88DBF5"/>
<path d="M408.175 256.713C408.175 256.713 402.442 273.552 399.098 288.41C399.098 288.41 378.872 284.778 370.431 278.999L373.457 286.594L404.353 300.791L408.972 277.349V272.726L408.175 256.713Z" fill="#F4CEA4"/>
<path d="M328.547 346.521C328.547 348.171 328.228 350.483 328.069 351.803C327.91 352.464 327.432 352.959 326.795 352.959L307.525 353.124C302.429 353.124 299.562 352.464 299.403 351.638C298.766 347.841 305.136 346.521 306.729 346.19C312.462 344.87 317.399 341.073 318.355 341.403C318.355 341.403 319.151 341.568 319.788 342.724C320.584 344.374 322.336 345.53 324.088 345.2C325.043 345.035 326.158 344.54 326.954 343.714C326.954 343.549 328.547 344.044 328.547 346.521Z" fill="#233C67"/>
<path d="M379.19 291.216C379.509 290.886 379.827 290.721 380.146 290.391C382.694 287.914 387.153 288.41 389.064 289.235C404.353 295.178 454.2 318.786 454.519 320.932C454.997 325.224 452.13 331.167 448.945 336.12C445.441 341.568 438.434 343.549 432.86 340.412C418.845 332.653 393.842 321.757 382.853 315.154C382.694 315.319 382.535 315.484 382.375 315.484C382.216 315.484 382.057 315.814 381.898 316.144C379.19 319.281 375.846 321.757 372.342 323.738C361.831 329.517 339.535 341.403 329.502 345.53C329.343 345.2 329.024 344.374 328.865 344.044C326.158 338.596 324.087 336.12 324.087 336.12C324.087 336.12 365.972 300.626 379.19 291.216Z" fill="#3B639F"/>
<path d="M311.984 337.771C311.984 337.771 300.04 340.082 297.492 341.403C295.421 342.393 296.855 349.327 298.129 349.987C299.403 350.483 313.418 348.337 313.418 348.337" fill="#FFE1BD"/>
<path d="M296.536 352.299C294.944 352.629 292.555 352.959 291.281 352.959C290.803 352.959 290.325 352.629 290.166 352.134L288.573 344.705C288.573 344.705 287.936 341.568 287.459 339.422L285.866 332.323C284.751 327.205 284.751 324.069 285.548 323.738C289.051 322.253 291.759 328.526 292.396 330.012C294.944 335.625 299.562 339.752 299.403 340.742C299.403 340.742 299.403 341.568 298.607 342.393C297.333 343.714 296.536 345.53 297.333 347.181C297.81 348.171 298.288 349.162 299.244 349.657C299.084 350.153 298.925 351.803 296.536 352.299Z" fill="#233C67"/>
<path d="M307.206 338.762C307.206 338.762 361.354 323.408 374.572 320.437C374.891 320.272 376.642 320.107 378.553 319.776C378.553 319.776 370.591 324.399 370.591 333.974C370.591 341.073 379.19 341.898 381.739 342.228C376.005 341.898 372.979 342.724 365.972 344.87C365.335 345.035 364.857 345.2 364.38 345.365C364.22 345.53 363.902 345.53 363.743 345.695C344.473 353.785 325.362 348.667 308.64 349.657C307.843 348.667 307.206 347.346 306.888 345.365C306.092 340.082 307.206 338.762 307.206 338.762Z" fill="#1D445E"/>
<path d="M368.68 336.12C368.361 324.069 378.394 319.776 378.394 319.776C382.376 319.941 453.404 326.38 454.519 328.691C456.271 332.653 455.315 339.092 453.882 344.87C452.289 351.308 443.053 354.94 436.682 355.105C412.635 355.105 368.839 343.219 368.68 336.12Z" fill="#1D445E"/>
<path d="M412.157 299.966C412.316 296.004 412.316 291.711 411.679 287.089C410.246 277.844 406.424 271.075 405.627 264.472C405.15 260.344 406.742 246.972 407.538 244.331C409.449 238.553 412.794 235.251 412.794 235.251C417.731 231.949 444.804 242.68 454.041 271.901C463.278 301.121 458.978 339.092 456.271 343.549C453.564 348.006 442.416 338.431 433.179 333.314C423.942 328.196 414.068 330.012 411.679 321.427C411.679 321.427 408.972 313.008 409.768 304.423C410.246 302.112 411.201 300.791 412.157 299.966Z" fill="#28C3F5"/>
<path d="M361.195 272.396C361.195 272.396 360.08 272.396 359.921 273.221C359.761 274.047 361.195 278.834 362.15 279.495C363.106 280.155 367.406 281.311 368.361 280.98C369.317 280.65 368.361 279.66 368.361 279.66L361.195 272.396Z" fill="#F4CEA4"/>
<path d="M426.968 252.585C426.968 252.585 432.542 264.802 425.853 286.098H424.26C424.26 286.098 420.438 304.423 411.042 314.163L414.227 290.06L426.968 252.585Z" fill="#20A5CF"/>
<path d="M348.773 263.481L369.635 281.146C370.113 281.641 370.909 281.476 371.387 280.981C371.865 280.485 371.706 279.66 371.228 279.165L350.365 261.5C349.887 261.005 349.091 261.17 348.613 261.665C348.136 262.326 348.295 263.151 348.773 263.481Z" fill="#28C4F6"/>
<path d="M361.035 280.155C361.195 280.485 361.673 280.981 362.15 281.641C364.38 283.787 368.839 286.759 368.839 286.759C379.031 295.508 403.398 319.116 409.131 316.64C413.59 314.824 421.075 292.867 424.26 274.542C425.216 269.259 425.694 264.307 425.694 260.179C425.534 245.652 418.368 245.321 418.368 245.321C408.812 243.175 403.238 298.15 403.238 298.15C395.594 295.178 380.783 287.749 374.572 284.447C374.572 284.447 372.661 283.127 372.183 281.146C371.706 279.165 369.158 276.028 367.884 274.542C366.609 273.056 366.609 274.707 367.087 276.193C367.565 277.679 368.839 279.495 368.998 279.825C369.158 280.155 367.884 280.485 366.291 280.155C364.539 279.825 362.787 278.504 362.469 278.009C362.31 277.679 360.717 272.891 359.921 272.891C358.965 273.056 360.558 278.669 361.035 280.155Z" fill="#FFE1BD"/>
<path d="M362.309 281.641C364.539 283.787 368.998 286.759 368.998 286.759C379.19 295.508 403.557 319.116 409.29 316.64C413.749 314.824 421.234 292.867 424.419 274.542L422.827 272.891L421.553 277.514C421.553 277.514 412.794 313.503 408.016 314.328C403.238 314.989 369.794 285.933 367.883 284.943C365.972 283.787 362.628 281.806 362.309 281.641Z" fill="#FCD4A9"/>
<path d="M425.853 280.815C425.853 280.815 409.131 277.349 404.831 274.377C405.786 265.957 409.449 244.991 418.527 244.331C427.605 243.671 431.745 263.316 425.853 280.815Z" fill="#28C3F5"/>
<path d="M410.086 250.439C409.131 254.401 408.175 258.363 407.379 262.325C406.901 264.307 406.582 266.288 406.105 268.269C405.786 270.25 405.468 272.231 405.308 274.212L405.149 273.717C407.219 274.872 409.449 275.863 411.679 276.688C413.908 277.514 416.138 278.339 418.527 278.834C416.138 278.504 413.749 278.009 411.519 277.183C409.29 276.523 407.06 275.533 404.831 274.377L404.512 274.212V273.882C404.831 269.754 405.786 265.792 406.582 261.83C407.697 258.198 408.812 254.401 410.086 250.439Z" fill="#20A5CF"/>
<path d="M419.005 235.251C418.846 235.911 418.527 236.572 418.209 237.232C415.501 242.185 407.698 244.331 407.698 244.331C407.698 244.331 408.335 241.855 405.149 237.232C401.487 240.204 397.664 242.35 394.957 241.855C392.568 240.369 390.498 238.553 388.427 236.242C387.472 236.737 385.561 237.562 384.765 236.572C383.968 235.581 383.65 231.124 383.491 229.473C383.491 229.473 383.491 229.308 383.331 229.308C383.013 228.152 381.102 224.85 380.783 224.52C377.757 221.879 378.235 219.568 378.235 219.568C378.235 219.568 382.535 208.342 383.172 208.011C383.809 207.681 397.983 200.252 398.461 200.417C399.098 200.417 409.131 207.351 412.953 217.091C414.386 220.888 414.386 224.025 413.909 226.501C414.068 226.666 415.82 233.765 419.005 235.251Z" fill="#FFE1BD"/>
<path d="M418.209 237.232C415.501 242.185 407.698 244.331 407.698 244.331C407.698 244.331 408.335 241.855 405.15 237.232C405.15 237.232 407.857 233.6 408.494 230.629L410.883 241.194C411.042 241.194 415.979 240.534 418.209 237.232Z" fill="#FCD4A9"/>
<path d="M378.394 219.733C383.968 221.879 395.594 215.275 397.983 216.266C400.372 217.256 402.124 222.539 403.079 222.539C404.194 222.539 403.557 220.888 403.238 218.907C402.92 217.587 402.92 214.45 405.787 214.12C410.405 213.789 408.812 219.072 410.405 222.374C413.272 227.987 414.068 226.666 414.068 226.666C418.209 215.936 413.431 193.484 398.461 196.455C398.461 196.455 394.002 193.649 388.746 195.134C388.746 195.134 388.746 195.134 388.587 195.134C379.828 197.776 379.828 204.71 377.598 206.195C375.05 208.011 373.617 205.7 373.617 205.7C369.954 212.139 372.82 217.752 378.394 219.733Z" fill="#3B639F"/>
<path opacity="0.2" d="M354.983 245.817H218.182C216.908 245.817 215.952 244.826 215.952 243.505V213.789C215.952 212.469 216.908 211.478 218.182 211.478H354.983C356.257 211.478 357.213 212.469 357.213 213.789V243.505C357.213 244.826 356.098 245.817 354.983 245.817Z" fill="#5FB0E7"/>
<path d="M351.161 242.02H215.474C213.882 242.02 212.608 240.699 212.608 239.048V210.488C212.608 208.837 213.882 207.516 215.474 207.516H351.161C352.754 207.516 354.028 208.837 354.028 210.488V239.048C354.028 240.699 352.754 242.02 351.161 242.02Z" fill="#2ACCFF"/>
<path d="M337.306 230.794H229.648C226.463 230.794 223.915 228.152 223.915 224.85C223.915 221.549 226.463 218.907 229.648 218.907H337.306C340.491 218.907 343.039 221.549 343.039 224.85C342.88 228.152 340.332 230.794 337.306 230.794Z" fill="white"/>
<path d="M330.299 237.892C337.247 237.892 342.88 232.053 342.88 224.85C342.88 217.648 337.247 211.808 330.299 211.808C323.35 211.808 317.717 217.648 317.717 224.85C317.717 232.053 323.35 237.892 330.299 237.892Z" fill="white"/>
<path d="M230.445 228.152C230.126 228.152 229.807 227.822 229.807 227.492V222.044C229.807 221.714 230.126 221.384 230.445 221.384C230.763 221.384 231.082 221.714 231.082 222.044V227.492C231.082 227.987 230.763 228.152 230.445 228.152Z" fill="#2ACCFF"/>
<path d="M335.554 229.308L333.165 227.162C333.802 226.336 334.121 225.346 334.121 224.19C334.121 221.549 332.05 219.402 329.502 219.402C326.954 219.402 324.884 221.549 324.884 224.19C324.884 226.831 326.954 228.978 329.502 228.978C330.617 228.978 331.573 228.647 332.369 227.987L334.758 230.133C334.917 230.298 335.076 230.298 335.076 230.298C335.236 230.298 335.395 230.298 335.554 230.133C335.873 229.803 335.873 229.473 335.554 229.308ZM329.502 227.822C327.591 227.822 325.999 226.171 325.999 224.19C325.999 222.209 327.591 220.558 329.502 220.558C331.413 220.558 333.006 222.209 333.006 224.19C333.006 226.171 331.413 227.822 329.502 227.822Z" fill="#2ACCFF"/>
<path d="M338.102 241.029L344.313 249.779V240.039" fill="#28C4F6"/>
</svg>
