<svg width="626" height="375" viewBox="0 0 626 375" fill="none" xmlns="http://www.w3.org/2000/svg">
<g clip-path="url(#clip0)">
<path opacity="0.5" d="M71.8425 114.931C78.6369 114.931 84.1449 109.331 84.1449 102.423C84.1449 95.515 78.6369 89.915 71.8425 89.915C65.0481 89.915 59.5402 95.515 59.5402 102.423C59.5402 109.331 65.0481 114.931 71.8425 114.931Z" fill="#28C3F5"/>
<path d="M71.8425 94.871L74.1295 99.5909L79.1766 100.299L75.4701 103.996L76.3376 109.109L71.8425 106.671L67.2686 109.109L68.136 103.996L64.5084 100.299L69.5555 99.5909L71.8425 94.871Z" fill="white"/>
<g opacity="0.5">
<g opacity="0.5">
<path opacity="0.5" d="M311.265 55.9314C320.255 68.5179 328.615 81.6551 336.659 95.107C326.17 47.7502 357.32 28.8704 357.32 28.8704C369.307 82.9924 351.879 102.344 344.308 108.008C349.119 116.504 353.614 125.157 357.951 133.968C359.765 83.9364 395.647 73.9459 395.647 73.9459C392.808 125.629 373.644 141.284 363.866 146.004C370.727 160.557 376.957 175.425 382.635 190.45C389.18 137.587 427.822 131.844 427.822 131.844C418.359 185.573 395.647 197.373 386.104 199.969C398.88 235.447 408.343 272.026 414.258 308.921C414.968 313.562 407.712 314.585 407.003 309.865C403.375 287.13 398.328 264.396 391.94 241.976C329.009 237.256 324.908 205.79 324.908 205.79C357.005 202.722 375.537 212.634 386.026 222.939C381.294 207.992 376.089 193.203 370.175 178.65C367.493 180.931 342.652 199.733 289.973 160.95C289.973 160.95 325.539 135.305 369.938 177.863C360.396 154.578 349.355 131.923 337.053 110.211C269.942 121.145 258.823 89.7577 258.823 89.7577C299.121 77.0138 321.359 90.7804 331.533 101.007C323.725 87.7911 315.603 74.9685 306.77 62.5393C248.886 34.6916 256.693 3.4613 256.693 3.4613C299.752 15.9692 309.294 42.1649 311.265 55.9314Z" fill="#4AD6AE"/>
</g>
</g>
<g opacity="0.5">
<g opacity="0.5">
<path opacity="0.5" d="M578.762 186.595C570.955 193.125 563.542 200.126 556.287 207.284C570.719 178.965 554 161.894 554 161.894C537.597 194.305 545.404 209.408 549.347 214.286C544.931 218.927 540.672 223.647 536.493 228.524C543.511 196.429 522.377 184.314 522.377 184.314C515.752 217.511 525.295 230.648 530.736 235.211C524.033 243.313 517.645 251.731 511.573 260.384C516.068 225.771 492.488 215.859 492.488 215.859C489.728 251.495 502.188 262.665 507.787 265.89C493.908 286.344 481.842 307.977 472.142 330.396C470.88 333.228 475.375 335.038 476.558 332.206C482.552 318.361 489.492 304.751 497.22 291.536C537.912 298.773 545.72 279.5 545.72 279.5C525.847 272.341 512.44 275.645 504.16 280.444C509.601 271.712 515.279 263.137 521.43 254.877C522.771 256.765 535.468 272.734 575.214 256.687C575.214 256.687 556.839 234.66 521.667 254.484C531.525 241.268 542.25 228.682 553.606 216.882C594.377 234.739 606.6 216.567 606.6 216.567C583.1 201.935 566.776 207.048 558.574 211.847C565.671 204.767 572.927 197.923 580.576 191.473C621.821 183.213 621.978 162.13 621.978 162.13C592.642 163.153 582.311 178.257 578.762 186.595Z" fill="#4AD6AE"/>
</g>
</g>
<g opacity="0.5">
<g opacity="0.5">
<g opacity="0.5">
<path opacity="0.5" d="M481.211 45.3902H480.028C480.186 37.445 477.268 29.9717 471.748 24.3078C466.227 18.6438 458.814 15.6545 451.007 15.8118V14.6319C459.209 14.4745 466.858 17.5425 472.615 23.4424C478.293 29.3424 481.369 37.1303 481.211 45.3902Z" fill="#4AD6AE"/>
</g>
<g opacity="0.5">
<path opacity="0.5" d="M473.325 46.4129H472.142C472.3 40.1983 470.013 34.377 465.675 30.0504C461.338 25.6451 455.581 23.2851 449.509 23.4425V22.2625C455.897 22.1051 461.969 24.5438 466.543 29.1851C471.038 33.7477 473.404 39.8836 473.325 46.4129Z" fill="#4AD6AE"/>
</g>
<g opacity="0.5">
<path opacity="0.5" d="M465.912 45.3116H464.729C464.808 41.4569 463.388 37.7596 460.707 35.0063C458.026 32.253 454.398 30.7584 450.613 30.9157V29.7357C454.792 29.6571 458.657 31.2304 461.574 34.2197C464.492 37.1303 465.991 41.0636 465.912 45.3116Z" fill="#4AD6AE"/>
</g>
<g opacity="0.5">
<path opacity="0.5" d="M452.348 47.9862C451.244 47.9862 450.218 47.5929 449.43 46.7275C447.774 45.0756 447.774 42.4009 449.43 40.7489C451.086 39.097 453.688 39.097 455.344 40.7489C457.001 42.4009 457.001 45.0756 455.344 46.7275C454.477 47.5142 453.373 47.9862 452.348 47.9862ZM452.348 40.6703C451.559 40.6703 450.849 40.9849 450.218 41.5356C449.036 42.7156 449.036 44.6822 450.218 45.8622C451.401 47.0422 453.294 47.0422 454.477 45.8622C455.66 44.6822 455.66 42.7156 454.477 41.5356C453.846 40.9849 453.136 40.6703 452.348 40.6703Z" fill="#4AD6AE"/>
</g>
</g>
</g>
<path d="M218.524 73.6312C218.524 86.2964 208.509 96.5229 196.128 96.5229C183.747 96.5229 173.731 86.2964 173.731 73.6312C173.731 60.966 183.747 50.7394 196.128 50.7394C208.43 50.7394 218.524 60.966 218.524 73.6312Z" fill="white"/>
<path opacity="0.5" d="M196.049 97.467C183.194 97.467 172.706 86.7684 172.706 73.6312C172.706 60.494 183.194 49.7955 196.049 49.7955C208.903 49.7955 219.392 60.494 219.392 73.6312C219.392 86.7684 208.903 97.467 196.049 97.467ZM196.049 51.6834C184.22 51.6834 174.52 61.5167 174.52 73.6312C174.52 85.7458 184.141 95.579 196.049 95.579C207.878 95.579 217.578 85.7458 217.578 73.6312C217.578 61.5167 207.957 51.6834 196.049 51.6834Z" fill="#28C3F5"/>
<path opacity="0.5" d="M207.72 67.7313C205.039 58.9993 196.838 66.9446 195.97 68.4392C195.103 66.9446 186.428 60.1007 184.22 67.7313C181.696 76.4632 195.812 86.5324 195.891 86.7684V86.8471C195.891 86.8471 195.97 86.8471 195.97 86.7684C196.049 86.7684 196.049 86.8471 196.049 86.8471V86.7684C198.02 85.7457 210.007 75.0472 207.72 67.7313Z" fill="#28C3F5"/>
<g opacity="0.5">
<g opacity="0.5">
<g opacity="0.5">
<path opacity="0.5" d="M119.396 44.6822C120.659 44.6822 121.683 43.6256 121.683 42.3222C121.683 41.0188 120.659 39.9622 119.396 39.9622C118.133 39.9622 117.109 41.0188 117.109 42.3222C117.109 43.6256 118.133 44.6822 119.396 44.6822Z" fill="#4AD6AE"/>
</g>
<g opacity="0.5">
<path opacity="0.5" d="M111.116 54.1221C111.116 53.2568 110.406 52.5488 109.538 52.5488C108.671 52.5488 107.961 53.2568 107.961 54.1221C107.961 54.9874 108.671 55.6954 109.538 55.6954C110.406 55.6954 111.116 54.9874 111.116 54.1221Z" fill="#4AD6AE"/>
</g>
<g opacity="0.5">
<path opacity="0.5" d="M121.92 63.4833C121.92 62.3033 120.973 61.3593 119.791 61.3593C118.608 61.3593 117.661 62.3033 117.661 63.4833C117.661 64.6633 118.608 65.6073 119.791 65.6073C120.973 65.6073 121.92 64.6633 121.92 63.4833Z" fill="#4AD6AE"/>
</g>
<g opacity="0.5">
<path opacity="0.5" d="M119.869 64.1913C119.79 64.1913 119.554 64.1126 109.065 54.1221L108.829 53.8861L118.765 42.1649L119.238 42.5582L109.696 53.8074C113.718 57.662 119.712 63.326 120.106 63.562C120.106 63.562 120.106 63.562 120.027 63.562L119.869 64.1913Z" fill="#4AD6AE"/>
</g>
</g>
</g>
<g opacity="0.5">
<g opacity="0.5">
<path opacity="0.5" d="M127.361 294.918C132.25 297.199 137.061 299.795 141.792 302.47C130.515 289.884 136.745 278.792 136.745 278.792C149.679 293.188 147.707 302.077 146.366 305.066C149.284 306.875 152.123 308.685 154.962 310.651C146.918 295.076 156.145 285.95 156.145 285.95C164.11 302.155 160.956 310.179 158.826 313.247C163.4 316.473 167.817 319.934 172.154 323.553C165.135 306.325 175.86 297.986 175.86 297.986C182.169 315.922 177.28 323.395 174.835 325.834C184.772 334.487 193.92 343.927 202.042 354.154C203.068 355.412 201.017 356.986 199.992 355.648C195.024 349.355 189.582 343.298 183.825 337.555C163.874 346.838 157.249 337.948 157.249 337.948C166.476 331.576 173.81 331.419 178.778 332.756C174.756 329.059 170.656 325.362 166.397 321.979C166.003 323.159 161.665 333.071 138.953 330.239C138.953 330.239 145.42 316.394 166.161 321.822C159.3 316.315 152.044 311.359 144.553 306.875C126.02 321.665 117.267 313.955 117.267 313.955C127.361 303.257 136.43 303.65 141.319 304.987C136.666 302.313 132.014 299.795 127.203 297.514C104.807 298.93 101.889 288.074 101.889 288.074C117.03 284.77 124.364 291.064 127.361 294.918Z" fill="#28C3F5"/>
</g>
</g>
<path d="M591.853 246.539C587.91 250.944 584.125 255.507 580.576 260.227C586.57 242.841 575.608 234.503 575.608 234.503C568.747 254.327 574.504 262.351 577.106 264.789C574.898 267.778 572.848 270.846 570.797 273.993C572.296 255.113 559.126 249.921 559.126 249.921C557.943 269.43 564.567 276.117 568.037 278.241C564.804 283.433 561.807 288.782 559.047 294.21C558.889 274.072 544.458 270.374 544.458 270.374C545.72 290.906 553.763 296.334 557.312 297.671C550.924 310.494 545.798 323.867 541.934 337.476C541.461 339.207 544.142 339.836 544.615 338.106C546.981 329.688 549.899 321.35 553.211 313.169C577.185 313.955 580.103 302.313 580.103 302.313C568.116 299.874 560.624 302.785 556.208 306.246C558.653 300.818 561.255 295.469 564.094 290.277C565.04 291.221 573.557 299.323 595.244 286.894C595.244 286.894 582.942 275.802 564.252 290.041C568.826 281.702 574.031 273.6 579.63 265.969C604.55 272.813 610.07 261.485 610.07 261.485C595.402 255.035 586.412 259.283 582.074 262.744C585.623 258.103 589.251 253.619 593.115 249.292C616.221 241.189 614.565 229.154 614.565 229.154C597.926 231.986 593.194 241.425 591.853 246.539Z" fill="#4AD6AE"/>
<path opacity="0.5" d="M287.843 308.134L283.979 310.887C283.269 311.359 283.112 312.382 283.585 313.09L289.184 320.957C289.657 321.665 290.682 321.822 291.392 321.35L295.256 318.597C295.966 318.125 296.124 317.102 295.651 316.394L290.051 308.527C289.499 307.741 288.553 307.583 287.843 308.134ZM301.644 299.559L297.937 302.234C297.228 302.785 296.203 302.549 295.729 301.762L294.073 299.087C293.994 298.93 293.916 298.851 293.758 298.694L290.84 296.098C290.288 295.626 289.499 295.548 288.868 296.02C288.159 296.491 288.001 297.514 288.474 298.222L290.367 300.818C290.525 301.054 290.682 301.447 290.682 301.762L290.603 307.898C290.603 308.213 290.682 308.527 290.919 308.842L295.572 315.371C295.887 315.843 296.439 316.079 296.991 316.001L300.224 315.607C300.461 315.607 300.777 315.45 300.934 315.293L306.297 311.438C306.849 311.045 307.085 310.415 306.928 309.786L304.798 301.605C304.72 301.447 304.641 301.211 304.562 301.054L303.694 299.874C303.3 299.166 302.275 299.009 301.644 299.559Z" fill="#28C3F5"/>
<path opacity="0.5" d="M532.865 37.209L528.922 34.5343C528.212 34.0623 527.266 34.2197 526.793 34.9277L521.351 42.8729C520.878 43.5809 521.036 44.5249 521.746 44.9969L525.689 47.6715C526.398 48.1435 527.345 47.9862 527.818 47.2782L533.259 39.3329C533.732 38.7036 533.575 37.7596 532.865 37.209ZM545.64 47.1995L541.855 44.6036C541.067 44.0529 540.988 43.0302 541.54 42.3222L543.511 39.8836C543.59 39.7263 543.669 39.6476 543.748 39.4903L545.167 35.8716C545.404 35.1637 545.167 34.4557 544.615 33.9837C543.906 33.5117 542.959 33.669 542.486 34.377L540.672 37.0516C540.514 37.2876 540.199 37.5236 539.884 37.6023L534.048 39.6476C533.732 39.7263 533.496 39.9623 533.259 40.1983L528.764 46.8062C528.449 47.2782 528.37 47.8289 528.685 48.3795L530.105 51.2901C530.263 51.5261 530.42 51.7621 530.657 51.9195L536.098 55.6954C536.65 56.0888 537.36 56.0888 537.833 55.6954L544.773 50.9755C544.931 50.8968 545.088 50.7395 545.167 50.5822L545.956 49.4022C546.587 48.6942 546.35 47.6715 545.64 47.1995Z" fill="#28C3F5"/>
<path opacity="0.5" d="M154.095 256.451L150.231 259.204C149.521 259.676 149.363 260.698 149.836 261.406L155.435 269.273C155.909 269.981 156.934 270.138 157.644 269.666L161.508 266.913C162.217 266.441 162.375 265.418 161.902 264.71L156.303 256.844C155.83 256.136 154.805 255.979 154.095 256.451ZM167.895 247.876L164.189 250.551C163.479 251.101 162.454 250.865 161.981 250.079L160.325 247.404C160.246 247.247 160.167 247.168 160.009 247.011L157.091 244.415C156.539 243.943 155.751 243.864 155.12 244.336C154.41 244.808 154.252 245.831 154.726 246.539L156.618 249.135C156.776 249.371 156.934 249.764 156.934 250.079L156.855 256.215C156.855 256.529 156.934 256.844 157.17 257.159L161.823 263.688C162.139 264.16 162.691 264.396 163.243 264.317L166.476 263.924C166.713 263.924 167.028 263.766 167.186 263.609L172.548 259.755C173.1 259.361 173.337 258.732 173.179 258.103L171.05 249.921C170.971 249.764 170.892 249.528 170.813 249.371L169.946 248.191C169.552 247.561 168.605 247.404 167.895 247.876Z" fill="#28C3F5"/>
<path d="M545.088 339.207C545.088 352.266 534.363 362.964 521.272 362.964H384.054C370.963 362.964 360.238 352.266 360.238 339.207V94.3203C360.238 81.2618 370.963 70.5632 384.054 70.5632H521.272C534.363 70.5632 545.088 81.2618 545.088 94.3203V339.207Z" fill="#233C67"/>
<path d="M384.054 330.082C376.168 330.082 369.78 324.26 369.78 317.023V93.1403C369.78 85.9817 376.168 80.0818 384.054 80.0818H521.273C529.159 80.0818 535.546 85.9031 535.546 93.1403V317.023C535.546 324.182 529.159 330.082 521.273 330.082H384.054Z" fill="#3B639F"/>
<path d="M384.054 321.35C381.452 321.35 379.322 319.383 379.322 317.023V93.1403C379.322 90.7804 381.452 88.8137 384.054 88.8137H521.272C523.875 88.8137 526.004 90.7804 526.004 93.1403V317.023C526.004 319.383 523.875 321.35 521.272 321.35H384.054Z" fill="white"/>
<path d="M535.625 269.43H361.973V347.31H535.625V269.43Z" fill="#EEF5FF"/>
<path d="M535.625 85.5884H361.973V123.741H535.625V85.5884Z" fill="#EEF5FF"/>
<path d="M446.039 346.208C446.039 350.85 449.824 354.704 454.556 354.704C459.209 354.704 463.073 350.928 463.073 346.208C463.073 341.567 459.288 337.712 454.556 337.712C449.824 337.791 446.039 341.567 446.039 346.208Z" fill="#EEF5FF"/>
<path d="M503.765 296.019H404.243C403.138 296.019 402.271 296.885 402.271 297.986C402.271 299.087 403.138 299.953 404.243 299.953H503.765C504.869 299.953 505.737 299.087 505.737 297.986C505.737 296.885 504.869 296.019 503.765 296.019Z" fill="#20A5CF"/>
<path fill-rule="evenodd" clip-rule="evenodd" d="M395.804 295.154C394.227 295.154 393.044 296.413 393.044 297.907C393.044 299.481 394.306 300.661 395.804 300.661C397.382 300.661 398.565 299.402 398.565 297.907C398.565 296.413 397.303 295.154 395.804 295.154Z" fill="#20A5CF"/>
<path fill-rule="evenodd" clip-rule="evenodd" d="M395.804 305.695C394.227 305.695 393.044 306.954 393.044 308.449C393.044 310.022 394.306 311.202 395.804 311.202C397.382 311.202 398.565 309.943 398.565 308.449C398.565 306.954 397.303 305.695 395.804 305.695Z" fill="#20A5CF"/>
<path d="M503.765 306.561H404.243C403.138 306.561 402.271 307.426 402.271 308.527C402.271 309.629 403.138 310.494 404.243 310.494H503.765C504.869 310.494 505.737 309.629 505.737 308.527C505.737 307.426 504.869 306.561 503.765 306.561Z" fill="#20A5CF"/>
<path d="M503.765 100.692H404.243C403.138 100.692 402.271 101.558 402.271 102.659C402.271 103.76 403.138 104.626 404.243 104.626H503.765C504.869 104.626 505.737 103.76 505.737 102.659C505.737 101.558 504.869 100.692 503.765 100.692Z" fill="#20A5CF"/>
<path d="M503.765 111.233H404.243C403.138 111.233 402.271 112.099 402.271 113.2C402.271 114.301 403.138 115.167 404.243 115.167H503.765C504.869 115.167 505.737 114.301 505.737 113.2C505.737 112.099 504.869 111.233 503.765 111.233Z" fill="#20A5CF"/>
<path d="M516.541 377.675C522.692 359.345 490.832 298.065 490.832 298.065C490.832 298.065 449.036 227.344 439.572 255.428C430.109 283.512 471.196 355.255 475.217 360.604C479.239 365.953 477.899 370.831 477.899 370.831C454.398 385.856 433.579 439.349 433.579 439.349C438.389 444.069 439.572 445.406 439.572 445.406C450.376 428.965 510.39 396.004 516.541 377.675Z" fill="white"/>
<path d="M439.572 446.035L439.178 445.642C439.178 445.642 437.916 444.305 433.184 439.663L432.948 439.427L433.027 439.191C433.263 438.641 454.083 385.62 477.425 370.595C477.583 369.729 478.214 365.481 474.744 360.84C471.511 356.592 429.399 283.669 439.02 255.271C440.44 250.944 442.805 248.663 445.881 248.427C460.943 247.247 489.807 295.783 491.068 297.829C492.409 300.346 522.928 359.503 516.856 377.753C513.386 388.137 493.198 402.926 473.719 417.165C458.735 428.099 444.54 438.483 439.809 445.642L439.572 446.035ZM460.943 258.181C455.423 252.675 450.139 248.899 446.039 249.213C443.279 249.449 441.228 251.573 439.888 255.507C430.424 283.669 472.299 356.041 475.533 360.289C479.634 365.717 478.372 370.673 478.293 370.909L478.214 371.067L478.056 371.145C455.739 385.384 435.629 435.101 433.973 439.191C437.285 442.417 438.783 443.99 439.414 444.619C444.461 437.382 458.42 427.155 473.167 416.378C492.567 402.218 512.598 387.586 515.989 377.36C521.982 359.424 490.595 298.694 490.28 298.065C490.201 297.907 474.981 272.262 460.943 258.181Z" fill="#BACEDB"/>
<path d="M432.238 267.228C408.974 292.244 428.216 337.24 432.475 345.658C439.099 358.637 435.314 370.831 435.314 370.831C418.122 420.39 439.572 463.263 439.572 463.263C442.333 467.196 444.935 464.836 444.935 464.836C447.537 437.539 466.07 379.327 475.691 343.612C484.523 311.045 474.981 273.521 473.64 267.621L432.238 267.228Z" fill="white"/>
<path d="M473.246 267.7C474.587 272.97 483.892 311.674 475.297 343.534C472.852 352.58 469.855 363.043 466.622 374.135C457.158 406.938 446.512 444.147 444.462 464.6C444.225 464.758 443.515 465.23 442.648 465.072C441.702 464.994 440.676 464.286 439.809 463.027C439.572 462.634 418.595 419.682 435.55 370.909C435.55 370.752 439.336 358.401 432.711 345.422C428.453 337.083 410.157 290.592 432.159 267.149L431.134 267.07C409.369 295.154 427.664 337.398 432.002 345.815C438.468 358.48 434.841 370.595 434.762 370.673C417.649 419.84 438.863 463.027 439.099 463.499C439.415 463.892 439.73 464.286 440.046 464.6C440.834 465.387 441.702 465.859 442.569 465.938C444.067 466.095 445.093 465.151 445.093 465.151L445.172 465.072V464.915C447.143 444.541 457.868 407.253 467.332 374.371C470.486 363.279 473.562 352.816 476.006 343.77C484.681 311.674 475.454 274.072 473.956 267.7H473.246Z" fill="#BACEDB"/>
<path d="M469.618 174.795C460.707 173.065 451.638 172.121 442.569 172.593C441.544 172.671 440.519 172.671 439.493 172.829C430.897 173.537 419.305 174.874 413.154 181.325C408.422 186.281 405.662 193.597 406.529 200.44C407.476 207.363 414.889 210.588 417.176 217.275C422.538 233.165 426.718 269.509 427.585 271.869C427.585 271.869 451.638 290.434 470.722 272.577C472.615 270.846 476.322 258.417 477.189 255.664C478.687 251.023 480.186 246.46 481.684 241.819C484.681 232.3 487.362 222.624 489.097 212.712C490.517 204.61 493.513 191.001 490.438 183.055C487.993 176.447 475.848 176.054 469.618 174.795Z" fill="#28C3F5"/>
<path d="M460.234 140.182C458.184 137.193 434.289 151.117 432.554 156.073C430.819 161.029 441.702 168.502 443.436 168.974C445.25 169.446 462.127 165.985 464.887 161.422C467.647 156.86 463.94 145.846 463.94 145.846C463.94 145.846 462.284 143.172 460.234 140.182Z" fill="#FEA086"/>
<path d="M461.338 133.024C459.84 133.653 456.212 133.496 459.288 130.035C462.363 126.573 454.556 123.269 442.254 130.192C429.951 137.115 431.055 142.228 430.898 145.846C430.74 149.465 429.241 150.094 430.109 153.398C431.055 156.702 429.084 158.433 433.973 162.288C438.862 166.142 442.411 167.086 441.78 165.592C441.149 164.097 433.973 162.288 435.629 158.748C437.285 155.208 440.913 161.58 441.071 158.669C441.228 155.758 441.386 152.14 441.386 152.14C448.168 153.556 456.37 142.857 456.37 142.857C458.657 147.656 463.704 148.678 463.704 148.678L463.94 151.196L464.887 153.792L465.991 152.769C465.991 152.769 465.044 144.037 464.729 142.228C464.492 140.418 465.518 140.812 465.991 139.002C466.464 137.193 462.679 139.16 462.757 137.744C462.836 136.328 466.148 134.676 466.227 133.26C466.543 131.844 462.836 132.316 461.338 133.024Z" fill="#3B639F"/>
<path d="M467.883 160.085C467.016 156.073 466.07 152.769 466.07 152.769L464.965 153.792L465.281 154.893C465.281 154.893 465.518 156.702 464.729 158.118C463.94 159.534 455.975 158.354 451.401 163.94C446.749 169.446 441.149 158.669 441.149 158.669L439.572 158.905C439.572 158.905 444.698 165.749 441.859 165.592C438.941 165.434 436.733 164.254 436.733 164.254C436.733 164.254 440.676 173.537 448.799 177.942C456.922 182.347 473.088 177.47 474.744 173.93C476.4 170.311 468.751 164.097 467.883 160.085Z" fill="#3B639F"/>
<path d="M485.943 180.381C485.943 180.381 468.751 196.035 481.763 229.153C494.775 262.272 509.68 252.753 509.68 252.753C509.68 252.753 510.942 248.033 504.239 214.758C497.614 181.403 485.943 180.381 485.943 180.381Z" fill="#20A5CF"/>
<path d="M518.197 167.401V167.479C512.124 181.875 505.342 195.878 499.112 210.195C495.485 218.534 491.857 226.951 488.861 235.525C485.548 245.201 492.961 253.776 502.346 255.113C509.838 256.215 515.437 251.495 518.276 244.887C527.739 223.018 524.427 168.738 524.427 168.738C521.351 169.603 518.197 167.401 518.197 167.401Z" fill="#20A5CF"/>
<path d="M379.322 208.622C380.032 208.7 380.663 208.779 381.373 208.936C388.549 209.88 395.725 210.51 402.823 211.296C408.58 211.926 414.573 213.184 420.015 210.588C426.087 207.678 430.03 201.148 430.503 194.462C430.897 188.798 428.847 179.122 423.327 176.29C418.28 173.773 394.937 186.202 383.186 179.909C376.483 176.369 350.774 140.497 346.91 143.329C344.781 144.902 342.494 147.184 342.652 149.465C342.967 154.893 348.645 164.333 350.774 169.053C354.008 176.211 367.966 206.891 379.322 208.622Z" fill="#20A5CF"/>
<path d="M344.466 148.285C345.727 147.42 346.832 146.476 348.093 145.61C348.803 145.138 349.513 144.824 350.223 144.745C350.301 143.014 350.301 140.969 349.986 138.924C349.04 132.945 345.727 129.169 345.649 132.08C345.57 134.99 347.305 139.081 346.201 141.205C345.097 143.408 336.658 132.945 336.658 131.057C336.58 129.169 334.135 126.967 333.583 132.159C333.031 137.272 339.576 148.364 342.81 150.252C342.889 150.33 342.967 150.33 343.046 150.33C343.283 149.465 343.756 148.757 344.466 148.285Z" fill="#F49E87"/>
<path d="M525.215 178.414L530.42 176.605C531.84 176.133 532.628 174.481 532.076 173.065L522.219 145.138C521.745 143.722 520.089 142.936 518.67 143.486L513.465 145.296C512.046 145.768 511.257 147.42 511.809 148.836L521.667 176.762C522.219 178.178 523.796 178.886 525.215 178.414Z" fill="#28C3F5"/>
<path d="M527.029 155.758C522.534 153.005 520.484 163.468 524.111 166.142C531.524 171.491 532.392 158.984 527.029 155.758Z" fill="#FEA086"/>
<path d="M517.251 164.175C517.014 162.917 516.304 160.793 517.329 159.77C517.881 159.22 518.67 158.826 519.143 158.118C519.616 157.41 519.537 156.309 518.67 156.073C518.433 155.994 518.118 156.073 517.881 156.152C512.756 157.804 514.096 162.76 516.146 166.535C516.383 167.007 516.699 167.479 517.172 167.794C517.487 168.03 517.881 168.109 518.276 167.951C518.276 166.85 517.487 165.434 517.251 164.175Z" fill="#FEA086"/>
<path d="M538.543 143.25L572.611 149.622L551.319 86.0604L528.054 113.672L538.543 143.25Z" fill="#3B639F"/>
<path d="M512.774 152.355L538.573 143.257L528.086 113.665L502.286 122.763L512.774 152.355Z" fill="#20A5CF"/>
<path d="M508.812 153.748L512.752 152.358L502.262 122.766L498.321 124.156L508.812 153.748Z" fill="#233C67"/>
<path d="M501.217 149.67L506.719 147.73L500.487 130.152L494.986 132.093L501.217 149.67Z" fill="#28C3F5"/>
<path d="M540.751 275.959C542.329 276.589 543.985 277.611 545.641 279.106C558.101 290.67 542.802 335.116 533.969 349.905L522.613 363.436C522.929 356.356 515.752 318.911 515.595 309.471C515.358 294.996 526.477 272.183 539.411 275.487C539.805 275.645 540.278 275.802 540.751 275.959Z" fill="#4AD6AE"/>
<path d="M568.037 277.533C568.116 277.612 568.274 277.612 568.353 277.69C569.378 278.32 570.324 279.185 571.192 280.129C577.816 287.366 580.261 298.143 577.264 307.505C576.239 310.809 574.583 313.877 572.769 316.866C564.094 331.498 552.265 344.32 538.307 354.232L522.534 363.515C525.216 359.267 531.288 336.532 532.944 331.812C535.31 324.811 536.099 317.417 537.203 310.101C538.386 302.785 539.963 295.39 543.669 289.018C547.455 282.646 553.685 277.376 561.098 276.51C563.069 276.274 565.198 276.432 567.091 277.14C567.485 277.218 567.801 277.376 568.037 277.533Z" fill="#41B792"/>
<path d="M523.481 362.571C523.165 362.885 522.929 363.2 522.613 363.436C522.85 363.2 523.165 362.885 523.481 362.571Z" fill="#D9FDFF"/>
<path d="M523.481 362.571C523.56 362.492 523.638 362.413 523.717 362.256C523.638 362.335 523.56 362.492 523.481 362.571Z" fill="#D9FDFF"/>
<path d="M553.133 314.821C556.681 307.977 560.309 300.897 562.438 293.502C564.015 287.996 564.804 282.253 567.17 277.14C567.485 277.297 567.801 277.376 568.116 277.533C568.195 277.612 568.353 277.612 568.432 277.69C565.75 283.433 565.119 290.041 563.069 296.098C560.545 303.807 556.681 311.202 552.817 318.361C547.218 328.902 532.786 352.659 523.717 362.256C533.338 351.951 547.218 326.306 553.133 314.821Z" fill="#D9FDFF"/>
<path d="M533.338 311.517C530.736 322.137 526.793 353.367 522.613 363.436C527.187 352.58 530.184 319.619 532.786 308.134C534.364 301.211 535.389 294.131 536.414 287.13C536.966 283.04 537.676 278.87 539.174 275.094C539.569 275.173 540.042 275.33 540.515 275.488C538.622 280.129 538.07 285.321 537.36 290.356C536.335 297.514 534.995 304.594 533.338 311.517Z" fill="white"/>
<path d="M598.793 318.675C598.951 319.069 599.188 319.541 599.345 320.013C601.001 325.047 600.449 331.734 595.639 338.971C586.333 352.895 529.947 362.728 522.613 363.436L533.338 350.378C540.042 343.062 579.709 312.146 587.989 311.202C592.169 310.73 596.585 313.719 598.793 318.675Z" fill="#4AD6AE"/>
<path d="M587.516 327.328C591.38 324.654 595.087 321.665 598.793 318.675C598.951 319.069 599.187 319.541 599.345 320.013C595.954 322.845 592.484 325.598 588.857 328.115C583.573 331.812 577.974 334.644 571.98 337.162C563.069 341.016 554.237 345.028 545.719 349.591C554.71 344.32 563.858 339.207 569.378 336.768C575.687 334.094 581.838 331.262 587.516 327.328Z" fill="white"/>
<path d="M522.613 363.436L538.07 353.918C540.594 352.423 543.117 351.007 545.72 349.591C536.651 354.862 527.739 360.368 522.613 363.436Z" fill="#407BDB"/>
<path opacity="0.5" d="M267.813 181.718L263.475 163.94C263.87 162.681 264.106 161.265 264.106 159.928V142.857C264.106 135.305 257.955 129.169 250.384 129.169H205.828C198.257 129.169 192.106 135.305 192.106 142.857V159.928C192.106 167.48 198.257 173.615 205.828 173.615H247.072V173.694L267.813 181.718Z" fill="#28C3F5"/>
<path d="M228.54 214.364L235.953 215.544C235.953 215.544 260.715 225.063 264.343 230.648C268.049 236.233 258.349 236.076 254.643 235.211C250.936 234.345 238.319 232.3 235.795 228.446C233.35 224.67 228.54 214.364 228.54 214.364Z" fill="#233C67"/>
<path d="M238.319 198.002C238.319 198.002 242.262 198.474 242.262 198.789C242.262 199.025 239.975 211.847 239.659 211.926C239.423 212.004 234.928 210.982 234.928 210.982L237.057 196.665L238.319 198.002Z" fill="#00BDC7"/>
<path d="M236.978 200.362L238.004 198.631L237.609 199.497L241.71 200.205L239.66 210.588L235.795 209.88L235.559 206.734L236.978 200.362Z" fill="white"/>
<path d="M206.222 273.521C203.935 271.869 203.541 273.993 203.541 273.993C204.408 282.332 207.642 283.59 208.036 281.309C208.273 279.893 208.273 278.241 208.194 277.454C208.194 277.376 208.194 277.297 208.194 277.218C208.194 276.904 208.194 277.061 208.194 277.454C208.351 278.32 209.14 278.949 209.14 278.949C210.244 277.376 206.222 273.521 206.222 273.521Z" fill="#FEA086"/>
<path d="M248.886 230.334C248.807 228.131 248.571 225.928 248.097 223.647C247.703 221.602 247.072 219.556 245.81 217.826C243.839 215.151 240.29 214.758 237.293 213.814C229.171 212.791 220.969 213.656 213.32 217.511C196.049 226.794 194.787 248.191 195.418 252.832C196.049 257.473 203.225 274.937 203.225 274.937C203.225 274.937 203.146 273.757 206.143 273.993C206.143 273.993 202.989 251.888 205.197 247.797C207.405 243.707 213.477 235.29 213.635 236.548C213.793 237.807 218.84 263.452 218.84 263.452C218.84 263.452 230.827 270.689 241.473 263.452C242.183 262.98 242.735 259.991 242.971 259.204C243.602 257.473 244.154 255.743 244.706 254.012C247.23 246.067 249.201 238.357 248.886 230.334Z" fill="#233C67"/>
<path d="M235.953 195.563C234.455 193.361 231.695 193.282 229.329 193.597C226.411 193.99 224.124 196.114 223.73 199.103C223.73 199.103 222.547 197.766 221.679 201.07C220.812 204.374 223.178 205.711 224.203 205.711C224.203 205.711 224.282 208.779 225.701 210.352V214.443C229.723 217.118 232.247 214.443 232.247 214.443V211.532C232.641 211.454 232.956 211.375 233.351 211.296C235.243 210.746 236.032 207.914 236.584 206.262C236.663 206.026 236.742 205.79 236.821 205.554C237.451 203.351 237.53 201.07 237.215 198.867C236.899 197.609 236.584 196.507 235.953 195.563Z" fill="#FEA086"/>
<path d="M241.946 263.452C241.946 263.452 233.35 267.385 219.313 263.452C219.313 263.452 210.165 268.959 210.165 292.952C210.165 296.649 210.007 300.504 210.402 304.279C210.796 308.37 211.821 312.461 211.427 316.551C210.954 321.271 208.667 325.519 207.878 330.239C207.168 334.408 206.616 338.656 206.222 342.826C205.828 346.444 205.512 350.063 205.197 353.603C205.118 354.232 204.487 358.874 204.96 359.346C204.96 359.346 206.695 361.863 209.692 359.346C212.216 352.344 214.66 343.927 217.736 337.162C220.733 330.554 224.833 324.339 226.805 317.259C228.067 312.539 228.146 307.741 228.382 302.863C228.461 299.953 227.751 292.086 231.063 290.513C232.325 289.884 235.953 303.493 240.211 311.359C244.47 319.226 244.312 317.653 244.785 323.002C245.258 328.351 251.252 351.479 257.088 359.346C257.088 359.346 259.453 361.391 261.819 359.346C261.819 359.346 259.532 321.822 258.744 313.798C257.876 305.853 248.728 275.645 241.946 263.452Z" fill="#28C3F5"/>
<path d="M261.662 359.424C261.662 359.424 259.138 360.998 256.93 359.424C256.93 359.424 256.378 362.807 256.93 364.931C257.482 367.055 258.428 365.56 261.662 366.425C264.895 367.291 268.917 365.56 268.207 363.987C267.497 362.335 261.819 361.391 261.662 359.424Z" fill="#233C67"/>
<path d="M209.534 359.424C209.534 359.424 207.011 360.998 204.803 359.424C204.803 359.424 204.251 362.807 204.803 364.931C205.355 367.055 206.301 365.56 209.534 366.425C212.768 367.291 216.79 365.56 216.08 363.987C215.37 362.335 209.692 361.391 209.534 359.424Z" fill="#233C67"/>
<path d="M241.71 191.473C242.656 190.293 241.868 190.529 240.527 189.899C239.186 189.27 237.925 190.922 237.451 190.371C236.978 189.821 238.082 186.753 235.953 188.326C233.824 189.899 232.72 189.427 230.275 188.405C227.83 187.461 227.515 189.821 225.859 189.978C224.991 190.057 223.73 190.922 222.783 192.338C220.891 193.911 220.339 198.238 221.206 203.037C222.152 208.15 224.36 207.835 224.36 207.835C224.203 207.206 224.045 205.711 224.045 205.711C220.417 204.689 221.995 200.519 221.995 200.519C222.073 200.519 222.231 200.598 222.389 200.519C222.783 200.598 223.335 200.913 223.73 201.935C224.203 203.115 224.755 200.991 224.991 199.811C226.49 199.654 228.067 199.811 228.934 199.575C230.117 199.261 230.669 196.35 231.616 197.451C232.562 198.553 233.193 198.71 234.77 199.497C236.347 200.283 237.057 200.519 237.136 202.879C237.215 204.217 238.634 202.879 238.634 202.879C239.502 202.25 239.029 199.89 239.344 198.71C239.66 197.53 241.079 198.317 241.789 196.979C242.499 195.642 241 195.249 240.133 194.226C239.265 193.046 240.842 192.653 241.71 191.473Z" fill="#3B639F"/>
<path d="M240.054 202.093C240.763 201.385 242.735 203.273 243.129 203.666C244.628 205.396 246.284 209.723 242.814 210.51C242.183 210.667 240.606 209.644 240.448 209.251C240.211 208.858 240.842 205.711 240.921 204.846C241 204.059 240.211 203.273 239.817 202.722C239.738 202.407 239.896 202.171 240.054 202.093Z" fill="#FEA086"/>
<path d="M261.031 223.411C264.106 228.21 266.314 235.368 263.791 235.919C261.977 236.312 257.876 235.919 254.643 235.211C248.097 229.232 241.946 210.195 241.946 210.195L245.022 207.363C245.022 207.442 257.955 218.612 261.031 223.411Z" fill="#233C67"/>
<path d="M240.054 150.96H235.322L234.06 156.073H238.24V159.613H233.114L231.694 165.12H228.067L229.486 159.613H225.543L224.124 165.12H220.496L221.915 159.613H217.894V156.073H222.783L224.045 150.96H219.629V147.42H224.912L226.253 142.07H229.88L228.54 147.42H232.483L233.824 142.07H237.451L236.11 147.42H239.896V150.96H240.054ZM231.773 150.96H227.751L226.411 156.073H230.432L231.773 150.96Z" fill="white"/>
<path d="M138.244 364.144C136.43 364.38 132.723 361.941 132.171 361.863C131.619 361.784 130.279 360.368 130.436 359.739C130.594 359.109 129.175 358.637 128.859 359.267C128.544 359.896 124.995 359.109 126.336 357.143C127.676 355.176 130.436 352.974 130.436 352.974C131.777 355.176 133.906 354.783 133.906 354.783C133.906 354.783 133.67 356.356 134.143 358.244C134.616 360.053 140.057 363.908 138.244 364.144Z" fill="#233C67"/>
<path d="M159.536 298.537C159.536 298.537 160.798 315.922 157.328 322.058C153.858 328.115 132.96 355.57 132.96 355.57L130.358 353.367C130.358 353.367 138.559 326.62 146.288 315.135C146.288 315.135 147.076 300.031 144.553 296.963C144.553 297.042 149.205 296.649 159.536 298.537Z" fill="#FEB39E"/>
<path d="M136.351 363.121C135.799 363.2 134.064 362.256 133.985 361.627C133.906 360.997 132.487 360.997 132.329 361.705C132.25 362.413 128.623 362.807 129.253 360.525C129.963 358.244 131.856 355.255 131.856 355.255C133.827 356.907 135.72 355.805 135.72 355.805C135.72 355.805 136.036 357.379 136.982 358.952C137.928 360.525 144.395 362.492 142.739 363.279C141.161 364.144 136.903 363.043 136.351 363.121Z" fill="#233C67"/>
<path d="M136.036 217.039L135.878 211.611L140.294 211.69L140.61 217.118C140.61 217.118 138.638 219.635 136.036 217.039Z" fill="#FEA086"/>
<path d="M144.552 297.042C144.552 297.042 145.341 316.551 144.079 318.911C142.817 321.271 135.326 351.164 135.72 355.884C135.72 355.884 134.3 357.851 131.777 355.491C131.777 355.491 128.622 324.654 130.831 318.203C132.96 311.753 127.834 299.323 127.834 299.323C127.834 299.323 138.086 296.727 144.552 297.042Z" fill="#FEA086"/>
<path d="M125.547 259.519C128.623 250.944 133.591 247.168 134.379 246.067L147.155 246.224C151.335 249.607 156.776 259.991 158.353 269.666C160.482 282.804 159.536 298.615 159.536 298.615C159.536 298.615 146.84 298.851 127.755 299.323C127.755 299.323 121.998 269.116 125.547 259.519Z" fill="#233C67"/>
<path d="M140.609 202.014L133.275 208.7C133.275 208.7 133.749 217.118 140.609 216.41C147.549 215.623 147.47 206.104 146.287 203.744C145.183 201.306 140.609 202.014 140.609 202.014Z" fill="#F7B690"/>
<path d="M148.18 201.227C146.76 200.362 145.104 200.283 143.764 199.26C143.606 199.182 143.369 199.103 143.133 198.946C142.896 198.867 142.739 198.788 142.502 198.71C142.265 198.631 142.108 198.552 141.871 198.474C141.713 198.395 141.556 198.395 141.398 198.316C141.24 198.238 141.082 198.238 140.925 198.159C138.874 197.294 136.509 197.53 134.774 198.867C134.537 199.024 134.379 199.182 134.222 199.339C133.985 199.496 133.827 199.654 133.591 199.811C133.118 200.204 132.723 200.676 132.487 201.227C132.408 201.384 132.329 201.62 132.25 201.778C132.013 202.171 131.935 202.643 131.777 203.115C131.698 203.351 131.698 203.587 131.698 203.823C131.146 205.632 131.619 208.386 133.039 209.015C133.196 209.094 133.433 209.172 133.591 209.172C134.143 209.172 134.537 209.015 134.931 208.858C135.483 208.543 135.957 208.15 136.509 207.835C136.745 207.756 136.903 207.599 137.061 207.442C138.322 206.34 139.19 204.374 140.925 203.823C142.66 203.272 144.474 205.082 145.262 206.576C145.656 207.284 145.814 210.274 147.47 209.723C149.442 209.094 148.969 205.711 149.205 204.138C149.521 203.036 149.284 201.935 148.18 201.227Z" fill="#3B639F"/>
<path d="M128.701 207.52C128.78 207.756 133.433 218.927 133.67 218.927C133.906 218.927 137.77 217.118 137.77 217.118L133.118 205.711C133.118 205.711 128.622 207.284 128.701 207.52Z" fill="#00BDC7"/>
<path d="M129.49 208.7L133.433 217.747L137.139 216.252L133.275 207.127L129.49 208.7Z" fill="white"/>
<path d="M126.809 192.417C123.97 194.147 119.554 195.485 115.058 190.293C110.484 185.179 104.57 184.393 99.6017 185.258C94.6334 186.123 97.7879 188.641 102.914 189.113C108.04 189.506 109.065 200.205 114.585 201.778C116.951 202.486 119.554 201.935 121.841 201.227C123.339 200.755 124.68 200.047 126.099 199.575C128.307 198.867 130.594 199.969 132.881 199.654C133.512 199.575 134.143 199.339 134.616 199.025C136.114 198.002 136.745 195.957 135.641 194.147C133.67 191.158 129.648 190.686 126.809 192.417Z" fill="#3B639F"/>
<path d="M180.119 214.915C180.119 214.915 180.119 214.915 179.803 213.499C179.488 212.083 169.709 231.592 167.974 231.75C166.239 231.907 155.435 221.759 155.435 221.759L156.618 237.099C156.697 238.043 168.368 240.875 169.63 240.875C172.469 240.796 174.677 230.884 175.387 228.682C176.491 225.535 177.516 222.31 178.542 219.084C178.542 219.084 178.542 219.084 179.803 218.455C181.065 217.826 186.349 213.735 185.324 212.87C184.298 212.083 180.119 214.915 180.119 214.915Z" fill="#F7B690"/>
<path d="M156.066 222.231C154.647 220.736 141.871 218.927 141.871 218.927C139.584 221.208 137.376 218.927 137.376 218.927C137.376 218.927 129.806 219.95 129.806 220.028C128.623 220.186 125.547 226.322 124.916 227.344C123.181 229.94 121.446 232.536 119.711 235.132C123.497 232.615 127.676 233.716 130.2 237.492C131.383 239.301 132.408 241.268 133.039 243.392C133.827 245.909 133.749 246.853 136.745 246.853C140.057 246.853 143.843 247.089 147.155 246.381C146.761 246.46 149.836 239.931 150.467 239.301C152.518 237.256 154.568 235.919 157.17 237.649C158.669 237.335 161.902 228.288 161.508 227.344C161.192 226.243 157.565 223.726 156.066 222.231Z" fill="#28C3F5"/>
<path d="M137.455 219.163C137.455 219.163 140.136 221.366 141.95 219.163V214.915L137.455 215.544V219.163Z" fill="#F7B690"/>
<path d="M130.515 210.352C129.175 211.926 129.963 216.646 129.175 217.59C127.834 219.163 125.705 220.264 124.127 221.523C120.342 224.276 115.532 227.895 113.797 232.379C113.087 234.188 112.85 237.335 115.137 238.279C117.976 239.459 119.238 235.84 120.421 234.267C120.579 234.031 131.935 218.455 132.802 218.062C133.67 217.668 133.354 213.027 133.354 211.454C133.196 209.802 131.856 208.7 130.515 210.352Z" fill="#F7B690"/>
<g opacity="0.75">
<g opacity="0.75">
<path opacity="0.75" d="M123.812 128.933C140.846 128.933 154.647 140.812 154.647 155.522C154.647 160.085 153.306 164.412 150.94 168.188V168.345C150.94 169.132 151.177 169.918 151.492 170.626L157.801 182.583L142.266 176.841C137.14 180.145 130.673 182.19 123.733 182.19C106.699 182.19 92.8986 170.312 92.8986 155.601C92.9774 140.812 106.778 128.933 123.812 128.933Z" fill="#28C3F5"/>
</g>
</g>
<path d="M123.497 139.239L128.071 148.678L138.244 150.173L130.831 157.489L132.645 167.873L123.497 162.996L114.349 167.873L116.084 157.489L108.75 150.173L118.923 148.678L123.497 139.239Z" fill="white"/>
<path d="M342.021 251.731C342.021 251.731 343.441 253.461 354.56 253.855C354.56 253.855 367.651 262.98 370.175 284.456C372.698 305.931 386.893 358.008 386.893 358.008H383.896C383.896 358.008 367.493 335.038 363.55 315.765C359.528 296.413 351.484 279.342 348.488 278.32C345.491 277.218 329.64 339.286 327.116 358.087H324.041C324.041 358.087 319.546 334.644 324.514 313.719C329.482 292.637 318.599 271.082 342.021 251.731Z" fill="#233C67"/>
<path d="M312.054 234.975C312.054 234.975 312.527 234.503 319.388 226.715C326.249 218.927 323.095 220.028 329.088 217.196C335.082 214.364 349.04 214.128 354.876 214.679C360.711 215.151 368.676 219.635 368.676 219.635L349.04 205.475L350.538 202.958C350.538 202.958 384.37 216.882 382.95 227.58C382.241 232.536 360.554 229.862 360.554 229.862C360.554 229.862 358.977 236.47 358.188 241.504C357.163 245.123 355.428 250.079 354.481 253.697C350.46 258.968 343.204 256.215 341.312 254.641C340.208 253.776 339.577 252.124 338.946 250.865C337.447 247.719 335.791 238.515 332.952 236.234C332.637 235.998 332.4 235.84 332.085 235.762C332.006 235.683 331.927 235.604 331.848 235.604C329.404 234.11 315.209 244.336 313.237 244.336C311.266 244.336 279.958 231.435 279.958 231.435L282.166 229.704L312.054 234.975Z" fill="#28C3F5"/>
<path d="M355.428 207.206L349.119 210.982L344.387 202.171L348.882 196.822L355.428 207.206Z" fill="#00BDC7"/>
<path d="M354.087 206.419L349.277 209.33L345.728 202.565L349.119 198.474L354.087 206.419Z" fill="white"/>
<path d="M341.312 194.698C343.598 194.462 345.807 195.249 347.068 197.687C349.04 201.542 349.513 210.51 344.466 212.476C335.003 216.252 329.64 196.035 341.312 194.698Z" fill="#F49E87"/>
<path d="M345.57 216.016C345.57 216.016 343.835 218.455 340.602 216.016V210.352L345.57 209.644V216.016Z" fill="#F49E87"/>
<path d="M271.125 223.568C271.44 223.018 272.308 224.512 272.308 223.962C272.308 223.411 272.545 223.411 273.491 224.512C274.437 225.614 277.907 227.03 277.197 225.85C276.488 224.748 276.566 224.512 276.566 224.512C276.566 224.512 278.459 225.535 279.8 226.086C281.14 226.636 282.008 229.626 282.008 229.626C281.614 232.379 279.8 231.356 279.8 231.356C275.857 232.536 271.283 226.322 271.283 225.85C271.283 225.378 273.018 227.108 272.387 226.322C271.677 225.535 270.81 224.119 271.125 223.568Z" fill="#F49E87"/>
<path d="M307.007 202.565C315.524 195.17 318.284 193.361 323.962 194.462C329.64 195.485 335.239 189.899 341.627 191.63C348.015 193.361 350.459 196.193 349.75 202.25C349.04 208.228 347.542 209.172 347.542 209.172C347.542 209.172 348.33 206.498 347.226 203.666C347.226 203.666 347.542 203.351 345.097 201.935C342.652 200.519 340.129 199.497 339.813 197.373C339.813 197.373 338.788 197.058 338.788 198.789C338.788 200.519 339.892 205.082 335.791 208.15C335.791 208.15 336.58 211.375 340.681 212.87C340.681 212.87 340.917 216.095 340.523 216.488C340.207 216.803 332.006 216.803 329.561 219.32C327.116 221.759 321.044 212.948 315.445 216.882C309.767 220.736 297.386 227.108 287.844 219.714C278.301 212.319 275.857 209.802 281.14 203.823C286.503 197.609 298.49 209.959 307.007 202.565Z" fill="#3B639F"/>
<path d="M386.893 358.008C386.893 358.008 388.076 360.998 389.259 361.706C390.442 362.414 392.965 361.548 391.073 361.784C389.18 362.02 383.265 361.784 383.265 361.784C383.265 361.784 382.792 359.503 383.896 358.008H386.893Z" fill="#233C67"/>
<path d="M326.959 358.008C326.959 358.008 329.955 359.346 331.138 360.054C332.321 360.762 333.031 361.548 331.138 361.784C329.246 362.02 323.331 361.784 323.331 361.784C323.331 361.784 322.858 359.503 323.962 358.008H326.959Z" fill="#233C67"/>
<path d="M596.926 84.7842L564.971 103.669L565.373 104.346L597.328 85.4609L596.926 84.7842Z" fill="#3B639F"/>
<path d="M571.015 122.648L570.923 123.429L607.81 127.76L607.902 126.979L571.015 122.648Z" fill="#3B639F"/>
<path d="M609.877 105.696L573.532 113.328L573.695 114.098L610.04 106.465L609.877 105.696Z" fill="#3B639F"/>
<path d="M35.251 177.234C50.9739 177.234 63.7199 167.795 63.7199 156.152C63.7199 144.508 50.9739 135.069 35.251 135.069C19.5281 135.069 6.7821 144.508 6.7821 156.152C6.7821 167.795 19.5281 177.234 35.251 177.234Z" fill="#28C3F5"/>
<path d="M62.3004 183.213C62.3004 186.202 59.0671 188.641 55.0451 188.641C51.0232 188.641 47.7899 186.202 47.7899 183.213C47.7899 180.223 51.0232 177.785 55.0451 177.785C58.9882 177.785 62.3004 180.223 62.3004 183.213Z" fill="#28C3F5"/>
<path d="M70.2656 192.574C70.2656 194.383 68.2152 195.957 65.7705 195.957C63.2469 195.957 61.2754 194.462 61.2754 192.574C61.2754 190.686 63.3258 189.191 65.7705 189.191C68.2152 189.191 70.2656 190.686 70.2656 192.574Z" fill="#28C3F5"/>
<path d="M28.7058 202.407C29.731 201.935 32.2545 198.002 34.9358 198.867C37.6171 199.733 36.9862 201.07 39.5886 200.126C42.1911 199.103 45.2666 201.699 45.8975 203.115C46.5284 204.452 44.7146 208.464 44.3203 208.071C43.926 207.678 33.9106 216.803 33.9106 216.803C33.9106 216.803 31.2293 218.534 29.1001 215.78C26.9708 213.106 25.6302 213.656 24.9993 211.847C24.3684 210.116 25.6302 206.891 26.4977 206.183C27.3651 205.318 27.6806 202.879 28.7058 202.407Z" fill="#3B639F"/>
<path d="M13.5643 286.816C14.1952 273.678 22.1602 261.564 22.1602 261.564C25.7878 261.328 50.2348 262.508 50.2348 262.508C50.2348 262.508 59.1461 311.831 59.5404 315.765C59.9347 319.698 52.6795 356.514 52.6795 356.514H47.7901C44.7145 338.42 46.7649 317.653 46.7649 317.653C45.1877 310.258 36.6707 281.702 35.0146 286.265C33.3585 290.906 28.2325 316.787 26.8919 319.383C24.1317 324.969 10.8042 356.514 10.8042 356.514H5.83594C7.25544 327.958 14.3529 318.99 14.3529 315.371C14.3529 311.753 12.9334 300.031 13.5643 286.816Z" fill="#233C67"/>
<path d="M19.9522 240.245C19.4002 238.593 28.7846 223.411 26.7343 223.332C30.7562 220.815 35.4878 219.163 40.1407 219.163C51.5755 219.084 60.0925 220.264 62.5372 219.163C64.9819 218.062 47.2382 214.836 47.2382 214.836L46.9227 212.712C46.9227 212.712 69.7136 212.87 73.8932 216.331C77.8363 219.635 77.2843 226.086 70.4233 228.052C56.0706 232.143 57.569 231.986 55.7552 237.492C54.4934 241.268 50.0772 262.429 50.0772 262.429C50.0772 262.429 36.9073 268.172 22.6335 261.721L19.9522 240.245Z" fill="#28C3F5"/>
<path d="M33.9894 214.522C35.9609 213.892 37.9325 213.656 38.3268 210.667C38.7211 207.678 39.9828 207.206 41.0869 205.869C42.1121 204.531 41.3235 203.902 41.3235 203.902C41.3235 203.902 47.3958 208.622 48.6576 213.184C49.9194 217.747 43.295 218.534 41.3235 218.534C39.352 218.534 39.352 216.96 37.065 218.534C34.8569 220.028 32.0179 215.072 33.9894 214.522Z" fill="#F7B690"/>
<path d="M43.3736 219.95C43.3736 220.894 42.5061 221.68 41.4021 221.68C40.298 221.68 39.4305 220.894 39.4305 219.95V217.275H43.3736V219.95Z" fill="#F7B690"/>
<path d="M10.7252 356.514C13.3277 358.402 14.7472 358.323 16.3244 359.66C16.9553 360.211 16.561 361.312 15.6935 361.312H5.83585C3.78545 360.132 5.83585 356.514 5.83585 356.514H10.7252Z" fill="#233C67"/>
<path d="M52.5217 356.514C55.1242 358.402 56.5437 358.323 58.1209 359.66C58.7518 360.211 58.3575 361.312 57.49 361.312H47.8689C45.8185 360.132 47.8689 356.514 47.8689 356.514H52.5217Z" fill="#233C67"/>
<path d="M37.4592 209.723C37.4592 209.723 38.4055 213.735 37.4592 214.364C36.5129 215.072 34.4625 213.656 34.147 215.387C33.8316 217.196 39.3519 217.826 39.3519 217.826V219.163C39.3519 219.163 34.6202 220.422 33.2796 219.399C31.9389 218.455 34.147 219.478 31.9389 218.455C29.7308 217.432 27.9959 216.41 28.3113 214.758C28.5479 213.106 30.9926 209.959 31.2292 209.723C31.4658 209.487 37.4592 209.723 37.4592 209.723Z" fill="#3B639F"/>
<path d="M14.4321 245.201C15.615 239.695 17.2711 234.267 20.3466 229.311C20.9775 228.367 21.6084 227.423 22.397 226.715C23.7377 225.456 25.1572 224.276 26.7344 223.332C28.7059 223.411 30.2043 224.591 30.7563 226.322C35.6457 237.571 23.0279 245.988 23.7377 256.451C23.9743 259.755 24.8417 262.508 25.8669 266.362C27.6807 272.577 29.1002 275.016 27.6019 276.117C26.7344 276.746 26.2612 276.51 25.4726 276.038C23.6588 274.937 21.2141 271.082 19.9523 269.352C17.9808 266.756 15.8516 262.98 14.5109 259.991C12.0662 254.641 13.328 250.629 14.4321 245.201Z" fill="#28C3F5"/>
<path d="M25.4725 276.196C24.053 275.33 22.3969 272.97 20.9774 271.004C20.5831 270.374 20.1888 269.902 19.8733 269.43C18.0595 267.07 15.9303 263.373 14.353 259.991C12.1449 255.035 12.9335 251.259 13.9587 246.46C14.0376 246.067 14.1165 245.595 14.2742 245.123C15.6937 238.593 17.5863 233.48 20.1888 229.154C20.8197 228.131 21.5294 227.266 22.2392 226.479C23.5009 225.22 24.9993 224.04 26.6554 223.018H26.7342H26.8131C28.7846 223.096 30.3619 224.276 30.9927 226.086C33.8318 232.536 30.9139 238.121 27.996 243.549C25.8668 247.64 23.6587 251.809 23.9741 256.293C24.2107 259.361 24.9204 261.957 25.8668 265.34L26.1034 266.126C26.5765 267.7 26.9708 269.037 27.3651 270.217C28.4692 273.521 29.0212 275.252 27.7594 276.117C27.3651 276.432 27.0497 276.51 26.7342 276.51C26.2611 276.668 25.8668 276.432 25.4725 276.196ZM22.5546 226.872C21.8449 227.58 21.1351 228.446 20.5042 229.468C17.9018 233.716 16.0091 238.751 14.6685 245.28C14.5896 245.752 14.5108 246.145 14.353 246.617C13.3278 251.337 12.5392 255.113 14.6685 259.991C16.1668 263.295 18.2961 266.992 20.1099 269.352C20.4254 269.745 20.8197 270.296 21.214 270.925C22.4757 272.734 24.2107 275.173 25.5513 275.96C26.2611 276.353 26.6554 276.589 27.444 276.038C28.4692 275.33 27.996 273.836 26.9708 270.532C26.5765 269.352 26.1822 268.014 25.709 266.441L25.4725 265.655C24.5261 262.272 23.7375 259.676 23.5009 256.529C23.1855 251.967 25.3936 247.719 27.6017 243.628C30.4407 238.279 33.3586 232.772 30.5196 226.479C29.9676 224.748 28.4692 223.726 26.6554 223.647C25.2359 224.512 23.8164 225.614 22.5546 226.872Z" fill="#4AD6AE"/>
<path d="M26.1033 275.645C26.5765 275.33 27.1285 275.016 27.6017 274.622C27.8383 274.386 28.0748 274.15 28.2326 273.914C28.8635 274.15 29.5732 274.544 30.2041 275.016C32.0968 276.432 32.9642 278.398 31.939 277.926C30.9138 277.454 29.8098 276.038 28.8635 276.117C27.9171 276.196 30.283 281.388 30.9138 281.702C31.5447 282.096 31.939 283.433 30.0464 282.725C28.1537 282.017 25.3936 277.533 25.157 275.881V275.802C25.5513 275.881 25.8667 275.802 26.1033 275.645Z" fill="#F7B690"/>
<path d="M25.5514 152.061C27.6018 145.374 33.9107 151.51 34.6204 152.612C35.3302 151.432 41.9545 146.24 43.6895 152.061C45.661 158.748 34.7781 166.536 34.6993 166.693V166.772C34.6993 166.772 34.6993 166.772 34.6204 166.693C34.5416 166.693 34.5416 166.772 34.5416 166.772V166.693C33.0432 165.906 23.8164 157.725 25.5514 152.061Z" fill="white"/>
</g>
<defs>
<clipPath id="clip0">
<rect width="626" height="375" fill="white"/>
</clipPath>
</defs>
</svg>
