<svg width="558" height="405" viewBox="0 0 558 405" fill="none" xmlns="http://www.w3.org/2000/svg">
<path d="M264.348 201.335C231.475 201.057 199.688 213.853 176.337 236.838C163.104 249.843 153.197 265.248 147.035 282.113C143.044 292.997 148.015 305.098 158.518 310.174C170.631 316.016 185.264 310.279 189.885 297.726C200.808 267.925 229.62 246.609 263.368 246.609C297.081 246.609 325.893 267.925 336.851 297.726C341.472 310.279 356.106 316.016 368.219 310.174C378.651 305.132 383.692 293.066 379.736 282.217C373.645 265.561 363.913 250.261 350.889 237.36C327.679 214.375 297.011 201.613 264.348 201.335Z" fill="#CAF0FF"/>
<path d="M456.3 243.236C445.763 218.443 430.639 196.223 411.419 177.098C392.2 158.008 369.794 142.986 344.833 132.52C318.997 121.67 291.55 116.176 263.298 116.176C235.047 116.176 207.6 121.67 181.764 132.52C156.803 142.986 134.432 158.008 115.178 177.098C95.958 196.189 80.8343 218.443 70.2968 243.236C70.2267 243.376 70.1567 243.549 70.1217 243.689C65.4306 254.746 70.3668 267.473 81.1844 272.724C92.9822 278.427 107.126 273.106 112.202 261.11C137.058 202.587 195.417 161.416 263.298 161.416C331.145 161.416 389.504 202.587 414.395 261.11C419.506 273.106 433.65 278.427 445.413 272.724C456.265 267.473 461.166 254.712 456.475 243.689C456.44 243.549 456.37 243.376 456.3 243.236Z" fill="#CAF0FF"/>
<path d="M156.873 112.177C156.978 111.412 158.483 106.231 158.763 105.814C159.043 105.397 162.159 106.127 165.24 102.615C174.027 92.5307 178.788 80.2211 187.785 69.4763C188.275 59.6703 189.011 53.7589 189.011 53.7589L201.964 55.3932C202.909 65.3383 203.119 77.1611 200.739 78.9345C198.358 80.7079 180.189 103.936 168.181 106.996C168.181 107.553 160.269 110.543 159.253 111.482C158.273 112.351 156.768 112.942 156.873 112.177Z" fill="#FFB164"/>
<path d="M146.02 124.765C148.751 114.403 178.578 104.214 189.746 102.267L208.791 103.067C207.39 102.684 163.98 137.179 163.98 137.179C167.411 161.416 165.59 163.641 169.651 196.119C164.75 198.762 160.934 196.71 160.934 196.71C145.635 166.875 142.555 137.909 146.02 124.765Z" fill="#3B639F"/>
<path d="M153.862 116.176L182.079 102.893C182.639 102.65 182.849 101.954 182.569 101.433C182.289 100.946 181.694 100.737 181.169 100.981L156.523 112.317C155.577 112.769 154.457 112.421 153.897 111.517L136.323 82.9334C135.938 82.3423 135.168 82.1684 134.572 82.5509C134.012 82.9334 133.872 83.6637 134.222 84.22L153.862 116.176Z" fill="#21A8D3"/>
<path d="M167.865 195.006C168.74 199.144 169.581 200.57 169.581 200.57C169.231 203.943 166.745 203.7 163.524 202.135C163.524 202.135 161.284 195.876 161.249 193.65C161.214 191.494 167.865 195.006 167.865 195.006Z" fill="#FDC78B"/>
<path d="M155.787 202.031C149.276 203.874 145.46 205.821 152.322 206.099C156.628 206.273 167.165 207.246 169.966 206.481C172.801 205.751 171.576 199.283 170.281 199.214C169.371 199.179 168.916 201.161 167.55 201.752C166.185 202.344 164.434 199.736 163.139 199.283C161.844 198.831 158.168 201.335 155.787 202.031Z" fill="#233C67"/>
<path d="M190.271 199.77C192.301 203.491 193.527 204.638 193.527 204.638L188.17 207.872C188.17 207.872 184.214 202.517 183.549 200.396C182.884 198.275 190.271 199.77 190.271 199.77Z" fill="#FDC78B"/>
<path d="M229.655 117.741C227.975 129.32 224.229 133.319 214.742 135.232C208.265 136.553 177.738 142.256 177.738 142.256C187.505 164.719 179.313 169.727 191.881 199.979C187.855 203.804 183.654 202.83 183.654 202.83C160.969 178.107 155.052 148.306 153.372 134.815C151.691 121.323 196.992 102.893 196.992 102.893L211.766 100.807L229.655 117.741Z" fill="#233C67"/>
<path d="M181.449 211.558C176.617 211.871 173.152 215.314 179.243 215.314C181.379 215.314 182.709 215.314 184.319 215.314C185.93 215.314 194.402 209.298 196.082 206.899C197.728 204.499 192.581 200.396 191.531 201.161C190.831 201.718 191.776 203.526 191.146 204.847C190.516 206.169 187.47 205.334 186.175 205.821C184.914 206.342 183.234 211.037 181.449 211.558Z" fill="#233C67"/>
<path d="M199.408 41.5188C204.729 43.2574 204.764 54.802 204.134 62.8346C198.113 63.0432 192.301 62.2435 187.785 60.018C189.01 49.9338 193.492 39.6063 199.408 41.5188Z" fill="#21A8D3"/>
<path d="M205.499 35.3292C209.245 35.4335 214.601 37.1722 219.713 44.6136C224.789 52.055 235.431 96.3209 230.355 119.584C214.006 115.968 211.556 102.197 189.78 102.232C189.78 57.2709 195.662 45.2743 197.027 42.2142C198.322 39.1542 203.504 35.2944 205.499 35.3292Z" fill="#29CAFD"/>
<path d="M159.358 106.197C159.603 105.397 162.964 99.2419 162.964 99.2419C165.099 97.5728 165.59 99.381 169.546 96.1124C180.923 86.7932 187.26 79.9082 198.988 69.9284C201.333 59.3922 203.224 53.1331 203.224 53.1331L216.947 57.271C216.142 68.1897 214.181 81.0209 211.276 82.5162C208.37 84.0114 185.229 98.9637 171.646 100.076C171.541 100.668 163.349 105.049 162.089 105.849C160.828 106.649 159.113 106.996 159.358 106.197Z" fill="#FDC78B"/>
<path d="M212.956 43.8139C218.172 45.8307 217.542 57.3753 216.457 65.3383C210.435 65.1992 204.659 64.0865 200.283 61.6176C202.138 51.603 207.179 41.5536 212.956 43.8139Z" fill="#21A8D3"/>
<path d="M197.237 44.3006C199.933 49.2732 210.155 43.779 207.425 38.8065L200.703 29.1396L192.756 33.4167L197.237 44.3006Z" fill="#FFB164"/>
<path d="M194.717 39.9541L195.942 39.6759C202.488 38.285 206.654 31.9216 205.254 25.419L203.784 18.6035C202.383 12.101 195.977 7.96302 189.43 9.35394L188.205 9.63212C181.658 11.023 177.492 17.3865 178.893 23.889L180.363 30.7045C181.763 37.207 188.205 41.345 194.717 39.9541Z" fill="#FDC78B"/>
<path d="M176.722 2.50365C182.674 2.15592 183.234 6.95458 189.745 6.25912L194.122 5.45935C196.712 5.0073 199.163 6.71117 199.653 9.24959L199.828 10.1537C202.419 9.70164 204.869 11.4055 205.359 13.9439L208.755 32.7561C209.07 34.4947 207.915 36.129 206.164 36.442C204.064 36.8245 202.174 35.0859 202.419 32.9647L203.119 26.4969C202.664 23.9585 200.633 21.9765 198.078 21.5592C196.887 21.3506 195.942 20.4465 195.732 19.2642C195.452 17.7342 193.982 16.691 192.441 16.9692L178.718 19.4033C178.543 19.4381 178.333 19.4381 178.158 19.4728V19.5076C178.158 19.5076 177.948 19.5424 177.598 19.5424C177.317 19.5424 176.967 19.5424 176.547 19.5076C176.512 19.5076 176.477 19.5076 176.442 19.5076C176.127 19.4728 175.812 19.4381 175.462 19.3337C175.427 19.3337 175.427 19.3337 175.392 19.3337C175.112 19.2642 174.832 19.1946 174.552 19.0903C174.517 19.0903 174.482 19.0555 174.412 19.0555C173.327 18.6383 172.206 17.8733 171.471 16.5171C169.476 12.9355 170.806 2.81661 176.722 2.50365Z" fill="#3B639F"/>
<path d="M196.712 24.6539C196.712 26.8446 198.498 28.5833 200.668 28.5833C202.874 28.5833 204.624 26.8099 204.624 24.6539C204.624 22.4633 202.839 20.7246 200.668 20.7246C198.498 20.7246 196.712 22.498 196.712 24.6539Z" fill="#FDC78B"/>
<path d="M95.4329 282.912C95.4329 282.912 87.591 253.529 73.3076 251.234C72.8875 251.165 72.5024 251.199 72.1873 251.269C72.9925 251.582 73.6576 251.93 74.1127 252.312C85.0704 258.154 81.4995 290.562 80.9394 294.979C83.0049 299.881 84.9654 304.367 86.1907 307.392C76.3533 308.957 58.2539 330.273 58.2539 330.273C58.2539 330.273 96.3081 328.569 102.96 322.38C103.415 321.962 104.36 320.571 104.43 320.467C108.386 312.956 102.4 295.778 95.4329 282.912Z" fill="#FDC78B"/>
<path d="M51.0073 240.976C51.0073 240.976 43.0254 234.717 43.4105 223.312C43.7606 212.497 49.1519 212.428 49.1519 212.428C49.1519 212.428 54.8582 203.908 67.2162 208.116C82.725 213.367 73.8678 238.264 67.1112 242.019C60.3896 245.775 51.0073 240.976 51.0073 240.976Z" fill="#3B639F"/>
<path d="M31.3322 327.804L29.4067 334.55L58.2537 345.399V330.273L31.3322 327.804Z" fill="#233C67"/>
<path d="M85.1054 327.804L87.0658 334.55L58.1838 345.399V330.273L85.1054 327.804Z" fill="#3B639F"/>
<path d="M24.0507 329.751C16.4188 326.935 6.68646 326.066 3.18561 335.385C-0.420258 344.947 4.30588 355.97 30.5972 360.977C49.3968 364.559 91.407 367.723 91.407 367.723L93.2974 357.709C93.3324 357.674 29.1969 331.629 24.0507 329.751Z" fill="#3B639F"/>
<path d="M91.3719 356.839C91.3719 356.839 99.5639 357.118 106.776 360.56C113.987 364.003 114.618 366.924 114.407 367.48C113.847 368.767 110.592 370.192 104.57 370.54C98.5487 370.888 88.5012 367.515 88.5012 367.515C88.5012 367.515 92.6322 363.342 91.3719 356.839Z" fill="#233C67"/>
<path d="M92.527 329.751C100.159 326.935 109.891 326.066 113.392 335.385C116.998 344.947 112.272 355.97 85.9804 360.977C67.1809 364.559 25.1707 367.723 25.1707 367.723L23.2803 357.709C23.2453 357.674 87.4158 331.629 92.527 329.751Z" fill="#233C67"/>
<path d="M25.2411 356.839C25.2411 356.839 17.0491 357.118 9.83738 360.56C2.62564 364.003 1.99548 366.924 2.20553 367.48C2.76567 368.767 6.02146 370.192 12.0429 370.54C18.0644 370.888 28.1118 367.515 28.1118 367.515C28.1118 367.515 23.9458 363.342 25.2411 356.839Z" fill="#233C67"/>
<path d="M74.1475 252.486C69.7714 248.87 49.3265 248.383 42.3948 252.486C29.9668 258.363 35.6382 295.639 35.6382 295.639C31.4021 314.138 29.6167 330.586 29.6167 330.586C29.6167 330.586 43.025 336.602 57.0984 336.254C57.4835 336.254 57.9036 336.219 58.2886 336.219C58.6737 336.219 59.0938 336.254 59.4789 336.254C73.5873 336.567 86.9606 330.586 86.9606 330.586C86.9606 330.586 85.1752 314.138 80.9391 295.639C80.9041 295.639 85.8753 258.745 74.1475 252.486Z" fill="#29CAFD"/>
<path d="M62.8749 239.029L59.164 239.203L55.4531 239.029C55.4531 239.029 50.902 250.608 51.2171 250.852C51.2171 250.852 53.9477 253.425 58.4288 253.807C58.6038 253.807 58.7789 253.842 58.9889 253.842V253.877C59.059 253.877 59.129 253.877 59.199 253.877C59.269 253.877 59.339 253.877 59.409 253.877V253.842C59.5841 253.842 59.7591 253.807 59.9692 253.807C64.4503 253.425 67.1809 250.852 67.1809 250.852C67.426 250.608 62.8749 239.029 62.8749 239.029Z" fill="#FDC78B"/>
<path d="M59.5493 248.07C61.8948 248.244 63.8553 247.27 65.4657 245.879C64.2754 242.645 62.8401 239.029 62.8401 239.029L59.1292 239.203L55.4183 239.029C55.4183 239.029 54.158 242.263 53.0027 245.323C54.7181 246.992 56.9236 248.244 59.5493 248.07Z" fill="#FFB164"/>
<path d="M75.6533 229.64C75.1631 228.388 73.5177 227.241 71.6273 228.562C69.7368 229.884 71.0671 231.518 69.7718 232.805C68.8266 233.743 69.8769 223.346 66.6211 223.068C66.6211 223.068 62.7701 226.824 54.7182 227.137C51.2173 227.276 50.5172 231.135 50.5172 231.97C50.5172 232.805 50.1321 233.222 49.4319 232.04C48.7317 230.857 49.2219 229.884 47.3664 228.562C45.476 227.241 43.8306 228.388 43.3404 229.64C42.8503 230.892 42.8153 234.647 45.1959 236.108C47.5765 237.568 48.5567 236.421 48.5567 236.421C48.5567 236.421 52.3726 246.436 59.5144 245.949C66.6561 246.47 70.472 236.421 70.472 236.421C70.472 236.421 71.4522 237.568 73.8328 236.108C76.1784 234.682 76.1434 230.892 75.6533 229.64Z" fill="#FDC78B"/>
<path d="M68.8264 250.504C68.8264 250.504 79.0489 249.878 85.1404 258.815C91.2318 267.751 96.063 282.182 96.063 282.182C96.063 282.182 84.9303 286.842 81.6045 287.328C81.6395 287.328 84.4752 256.694 68.8264 250.504Z" fill="#29CAFD"/>
<path d="M22.4052 282.912C22.4052 282.912 30.2471 253.529 44.5306 251.234C44.9507 251.165 45.3358 251.199 45.6509 251.269C44.8457 251.582 44.1805 251.93 43.7254 252.312C32.7677 258.154 36.3386 290.562 36.8987 294.979C34.8332 299.881 32.8728 304.367 31.6475 307.392C41.4848 308.957 59.5842 330.273 59.5842 330.273C59.5842 330.273 21.53 328.569 14.8784 322.38C14.4233 321.962 13.4781 320.571 13.4081 320.467C9.41709 312.956 15.4035 295.778 22.4052 282.912Z" fill="#FDC78B"/>
<path d="M49.1866 250.33C49.1866 250.33 38.9641 249.704 32.8726 258.641C26.7811 267.577 21.95 282.008 21.95 282.008C21.95 282.008 32.8726 286.807 36.1634 287.328C36.1634 287.328 33.8178 256.45 49.1866 250.33Z" fill="#29CAFD"/>
<path d="M91.1268 327.7C91.1268 330.482 88.6412 332.777 85.5955 332.777H31.4373C28.3916 332.777 25.906 330.516 25.906 327.7V294.144C25.906 291.362 28.3916 289.067 31.4373 289.067H85.5955C88.6412 289.067 91.1268 291.327 91.1268 294.144V327.7Z" fill="#21A8D3"/>
<path d="M58.2538 314.417C60.2839 314.417 61.9296 312.564 61.9296 310.279C61.9296 307.993 60.2839 306.141 58.2538 306.141C56.2236 306.141 54.5779 307.993 54.5779 310.279C54.5779 312.564 56.2236 314.417 58.2538 314.417Z" fill="white"/>
<path d="M498.52 215.801C498.52 215.801 498.45 206.447 500.166 202.865C501.881 199.284 506.467 191.946 511.894 190.451C514.904 189.617 517.565 177.794 510.843 174.177C504.087 170.596 492.884 174.803 492.884 174.803C492.884 174.803 479.686 166.667 470.584 195.876C462.742 221.086 446.848 231.692 448.283 239.968C449.754 248.244 450.769 249.217 457.385 247.409C464.037 245.601 498.52 215.801 498.52 215.801Z" fill="#3B639F"/>
<path d="M488.543 269.699C494.18 274.358 525.722 265.213 525.722 265.213C525.722 265.213 532.374 265.595 534.894 263.613C537.415 261.631 537.835 259.823 537.415 257.911C536.96 255.998 535.98 254.329 533.879 254.19C532.059 254.051 530.483 255.059 530.483 255.059C530.483 255.059 521.976 257.806 520.856 258.085C518.16 258.676 491.414 256.311 491.064 255.442C491.064 255.407 482.942 265.039 488.543 269.699Z" fill="#FDC78B"/>
<path d="M505.592 229.397C505.382 224.355 503.632 217.157 497.645 217.331C483.957 217.713 485.672 258.258 485.672 258.258C485.602 261.631 485.917 264.622 486.723 266.847C486.933 267.751 487.353 268.586 488.088 269.316C488.123 269.351 488.123 269.386 488.158 269.42C488.858 270.22 489.593 270.568 490.329 270.603C498.941 273.037 523.376 266.465 523.376 266.465L520.821 258.084C519.14 258.467 508.288 257.702 500.131 256.833C500.166 256.798 505.802 234.439 505.592 229.397Z" fill="#29CAFD"/>
<path d="M482.697 271.507C467.398 287.607 476.885 300.751 480.141 314.347C483.397 327.978 482.522 330.934 482.522 330.934C482.522 330.934 478.846 336.949 481.156 351.206C483.467 365.463 488.998 392.795 488.998 392.795L497.365 394.22L502.792 335.941L504.507 274.463L482.697 271.507Z" fill="#3B639F"/>
<path d="M480.176 339.244L502.196 276.966L472.474 269.942C459.696 279.644 466.663 297.169 465.542 311.148C464.422 325.092 462.672 327.665 462.672 327.665C462.672 327.665 457.35 332.255 455.145 346.547C452.939 360.838 449.789 388.518 449.789 388.518L457.315 392.412L480.176 339.244Z" fill="#233C67"/>
<path d="M488.998 392.795L497.47 393.177C497.47 393.177 501.146 395.229 503.947 397.454C506.747 399.68 508.778 401.731 508.778 401.731H488.088C488.088 401.731 488.298 393.56 488.998 392.795Z" fill="#233C67"/>
<path d="M450.244 385.805L457.841 389.526C457.841 389.526 460.361 392.864 462.042 395.994C463.722 399.158 464.772 401.836 464.772 401.836L445.798 393.629C445.798 393.664 449.298 386.257 450.244 385.805Z" fill="#233C67"/>
<path d="M503.631 218.965C503.631 218.965 513.329 223.451 514.799 233.709C516.234 244.001 507.167 247.235 507.167 247.235L503.631 218.965Z" fill="#29CAFD"/>
<path d="M487.282 209.472C487.282 209.472 477.97 207.038 470.828 213.992C463.687 220.947 472.439 247.235 472.439 247.235L465.122 276.966C465.122 276.966 476.01 280.652 487.212 281.487C498.415 282.321 505.592 281.487 505.592 281.487C505.592 281.487 510.598 244.28 508.988 229.432C507.902 219.417 507.027 221.503 505.382 218.165C500.621 208.533 487.282 209.472 487.282 209.472Z" fill="#29CAFD"/>
<path d="M508.428 250.434C503.317 248.487 497.68 251.999 495.825 253.355L495.72 252.938C493.129 253.842 466.278 254.572 465.822 253.773C465.822 253.773 458.891 264.274 465.017 268.273C471.144 272.237 497.715 260.971 497.715 260.971L497.435 259.788C499.326 261.214 504.962 261.284 505.382 259.684C505.837 257.98 501.041 259.997 502.826 257.493C504.612 254.99 510.878 259.336 512.524 258.71C514.029 258.084 514.694 252.799 508.428 250.434Z" fill="#FDC78B"/>
<path d="M481.961 222.581C481.156 217.574 476.71 208.185 467.853 215.175C457.105 223.659 460.781 257.215 460.781 257.215C461.131 260.553 461.797 263.509 462.847 265.596C463.162 266.465 463.687 267.23 464.492 267.891C464.527 267.925 464.562 267.96 464.562 267.96C465.332 268.656 466.103 268.934 466.873 268.899C475.73 270.29 499.221 260.936 499.221 260.936L495.72 252.903C494.109 253.46 483.222 253.981 475.03 254.086C475.03 254.086 482.732 227.589 481.961 222.581Z" fill="#29CAFD"/>
<path d="M533.074 239.029L510.878 263.926H532.724L556.284 238.681L533.074 239.029Z" fill="#21A8D3"/>
<path d="M537.45 258.258C537.45 258.258 535.594 254.92 532.653 255.755C529.713 256.589 533.564 263.022 533.564 263.022C533.564 263.022 537.415 261.562 537.45 258.258Z" fill="#FDC78B"/>
<path d="M495.229 201.231L494.109 214.584C494.109 214.584 485.357 215.627 482.802 211.837C480.246 208.046 488.158 199.736 488.158 199.736L495.229 201.231Z" fill="#FDC78B"/>
<path d="M486.757 202.1C486.757 202.1 490.258 205.96 494.774 206.934L495.264 201.196L490.608 195.632L486.757 202.1Z" fill="#FFB164"/>
<path d="M506.047 185.131C506.047 185.131 508.358 203.317 500.761 205.264C494.845 206.794 488.158 199.736 488.158 199.736C488.158 199.736 497.54 181.306 506.047 185.131Z" fill="#FDC78B"/>
<path d="M495.23 193.164C495.02 194.867 493.304 196.084 491.414 195.841C489.523 195.598 488.193 194.033 488.403 192.294C488.613 190.59 490.328 189.373 492.219 189.617C494.074 189.86 495.44 191.46 495.23 193.164Z" fill="#FDC78B"/>
<path d="M488.158 199.736C488.158 199.736 480.421 211.732 482.381 217.783C484.377 223.833 479.826 220.878 474.749 218.478C469.673 216.079 462.251 219.939 459.03 226.615C455.81 233.291 462.006 212.532 471.669 208.255C481.366 203.978 488.158 199.736 488.158 199.736Z" fill="#3B639F"/>
<path d="M320.607 295.5C325.509 300.925 358.066 296.3 358.066 296.3C358.066 296.3 364.578 297.621 367.379 296.022C370.179 294.387 370.845 292.684 370.705 290.701C370.529 288.719 369.794 286.946 367.729 286.494C365.943 286.111 362.863 287.05 362.863 287.05L364.263 286.876C364.263 286.876 364.333 284.651 361.567 285.103C356.666 285.938 355.441 288.406 354.286 288.511C351.52 288.719 325.369 282.599 325.158 281.695C325.123 281.695 315.706 290.11 320.607 295.5Z" fill="#FDC78B"/>
<path d="M298.097 265.596C298.097 265.561 298.132 265.526 298.132 265.491C299.182 261.701 304.083 259.128 307.724 260.38C312.205 261.91 319.732 274.184 319.732 274.184C322.708 278.322 324.633 281.417 325.124 281.695C325.159 281.695 325.194 281.765 325.229 281.8C327.084 282.947 351.835 287.989 354.496 287.781L356.421 297.204C356.421 297.204 330.41 300.334 322.323 296.683C317.527 294.735 311.575 288.928 306.534 282.46C306.534 282.46 301.108 276.549 298.622 270.116C298.622 270.081 298.587 270.081 298.587 270.046C298.587 270.012 298.552 269.942 298.552 269.907C298.412 269.525 298.272 269.177 298.167 268.829C298.167 268.76 298.132 268.725 298.132 268.656C298.132 268.621 298.132 268.621 298.132 268.586C298.062 268.273 297.992 267.995 297.957 267.717C297.957 267.647 297.957 267.612 297.922 267.543C297.852 266.847 297.887 266.291 298.027 265.769C298.062 265.735 298.062 265.665 298.097 265.596Z" fill="#41B792"/>
<path d="M392.655 290.389H359.397C358.312 290.389 357.541 289.345 357.857 288.302L366.049 262.466C366.259 261.805 366.889 261.353 367.589 261.353H399.727C400.777 261.353 401.547 262.362 401.267 263.37L394.195 289.206C394.02 289.902 393.355 290.389 392.655 290.389Z" fill="#21A8D3"/>
<path d="M391.85 288.372H360.307L368.219 263.405H398.676L391.85 288.372Z" fill="#73D9FF"/>
<path d="M392.585 290.389H343.783L345.219 287.502H393.88L392.585 290.389Z" fill="#00BDC7"/>
<path d="M355.651 292.823L308.39 312.156L308.565 315.425L301.598 330.273C301.598 330.273 301.038 350.268 316.652 346.512C328.169 343.73 341.123 329.508 346.164 325.022C355.686 316.538 359.957 314.591 360.972 314.173C363.248 316.468 366.434 319.111 370.88 321.858C383.938 329.96 406.483 346.964 406.483 346.964L418.176 342.965L373.645 294.075C368.429 288.615 355.651 292.823 355.651 292.823Z" fill="#233C67"/>
<path d="M326.419 237.047C326.419 237.047 330.55 253.008 324.003 255.581C318.892 257.598 312.871 252.277 312.871 252.277C312.871 252.277 318.402 234.613 326.419 237.047Z" fill="#FDC78B"/>
<path d="M322.883 255.894C320.467 253.807 320.467 249.078 320.467 249.078C320.467 249.078 316.021 245.671 313.956 249.322C313.711 249.948 313.501 250.504 313.325 250.956C313.29 251.095 313.255 251.199 313.22 251.339C313.15 251.721 313.115 252.104 313.15 252.451C314.271 253.425 318.682 256.728 322.883 255.894Z" fill="#FFB164"/>
<path d="M310.665 249.635C310.665 249.635 306.744 259.406 306.639 261.701C306.639 262.014 309.51 263.822 313.116 263.613C319.067 263.231 319.102 261.91 319.102 261.91C319.102 261.91 318.717 258.467 318.682 254.538C318.647 251.408 319.102 250.156 319.102 250.156L310.665 249.635Z" fill="#FDC78B"/>
<path d="M318.052 252.312C318.052 252.312 314.551 253.877 309.3 252.312C304.048 250.747 299.252 244.245 300.477 237.708C301.598 231.727 304.503 231.309 304.503 231.309C304.503 231.309 306.674 220.356 320.292 224.007C329.815 226.546 332.545 236.317 325.824 243.271C319.102 250.191 318.052 252.312 318.052 252.312Z" fill="#3B639F"/>
<path d="M321.413 243.897C321.413 243.897 322.288 249.391 322.988 249.635C323.653 249.878 322.988 242.124 322.988 242.124L321.413 243.897Z" fill="#3B639F"/>
<path d="M322.078 247.27C322.078 247.27 321.693 244.523 319.802 245.462C317.912 246.401 319.137 248.626 320.467 249.113C321.798 249.6 322.078 247.27 322.078 247.27Z" fill="#FDC78B"/>
<path d="M378.232 333.542L377.882 333.472L377.496 333.403V333.437L310.105 324.918L309.93 326.587L291.586 324.918C291.586 324.918 284.584 359.378 317.947 360.56C324.143 360.769 328.485 360.108 331.39 358.822C338.182 357.257 345.114 354.823 351.625 354.127C362.933 352.91 366.749 353.467 369.514 353.814L369.479 353.849C369.479 353.849 375.361 358.474 390.73 357.952C406.133 357.431 435.751 355.275 435.751 355.275L438.376 346.721L378.232 333.542Z" fill="#233C67"/>
<path d="M432.915 355.379L435.331 346.79C435.331 346.79 438.306 343.522 441.282 341.157C444.258 338.792 446.848 337.193 446.848 337.193L441.947 358.404C441.982 358.404 433.545 356.248 432.915 355.379Z" fill="#233C67"/>
<path d="M314.166 259.962C314.166 259.962 302.613 255.442 296.732 265.283C293.896 270.046 295.611 301.585 295.611 301.585L289.52 337.228C289.52 337.228 302.473 347.764 311.19 340.357C326.874 327.074 336.816 328.291 336.816 328.291C336.816 328.291 332.79 300.925 334.366 281.278C335.171 271.124 330.445 269.038 327.714 266.43C323.023 261.944 314.166 259.962 314.166 259.962Z" fill="#29CAFD"/>
<path d="M343.853 301.481C349.384 306.245 379.807 297.134 379.807 297.134C379.807 297.134 387.264 296.335 390.344 295.048C393.32 293.796 393.845 292.614 393.425 290.667C393.005 288.719 390.659 290.076 388.559 290.11C383.693 290.18 385.023 288.824 385.023 288.824C385.023 288.824 386.178 288.546 386.773 287.537C387.369 286.529 385.863 285.346 383.203 286.181C378.441 287.607 377.531 290.215 376.376 290.423C373.68 290.98 346.934 288.094 346.619 287.224C346.654 287.224 338.322 296.717 343.853 301.481Z" fill="#FDC78B"/>
<path d="M317.807 274.532C317.807 274.497 317.807 274.463 317.842 274.428C318.437 270.533 322.953 267.404 326.734 268.169C331.39 269.142 340.352 280.409 340.352 280.409C343.818 284.164 346.129 287.016 346.654 287.19C346.689 287.19 346.724 287.224 346.794 287.294C348.789 288.198 373.96 290.18 376.586 289.624L379.667 298.734C379.667 298.734 354.251 305.028 345.744 302.385C340.737 301.029 334.086 295.987 328.309 290.215C328.309 290.215 322.183 284.999 318.927 278.948C318.927 278.914 318.892 278.914 318.892 278.879C318.857 278.844 318.857 278.809 318.822 278.74C318.612 278.392 318.472 278.044 318.332 277.731C318.297 277.696 318.297 277.627 318.262 277.592C318.262 277.557 318.262 277.557 318.227 277.523C318.122 277.244 318.017 276.966 317.947 276.688C317.947 276.619 317.912 276.584 317.912 276.514C317.737 275.854 317.702 275.262 317.772 274.741C317.807 274.706 317.807 274.636 317.807 274.532Z" fill="#29CAFD"/>
<path d="M288.684 349.448C302.711 335.516 302.711 312.926 288.684 298.994C274.657 285.061 251.914 285.061 237.887 298.994C223.86 312.926 223.86 335.516 237.887 349.448C251.914 363.381 274.657 363.381 288.684 349.448Z" fill="#CAF0FF"/>
<path d="M365.208 280.165L391.499 280.478L393.775 272.307C393.775 272.307 391.289 270.151 387.788 273.419C384.288 276.688 382.292 276.688 380.087 274.845C377.846 272.967 376.341 271.959 374.765 275.054C373.19 278.148 370.634 278.357 368.499 277.662C366.398 276.931 365.208 280.165 365.208 280.165Z" fill="white"/>
</svg>
