<svg width="60" height="60" viewBox="0 0 60 60" fill="none" xmlns="http://www.w3.org/2000/svg">
<path d="M56.7773 8.11629H41.4115C39.7672 3.39645 35.2731 0 30 0C28.0794 0 26.2424 0.438047 24.54 1.30207C23.5267 1.81641 24.322 3.38355 25.3356 2.86957C26.7892 2.13188 28.3584 1.75781 30 1.75781C35.6918 1.75781 40.3225 6.38848 40.3225 12.0803C40.3225 17.7721 35.6918 22.4027 30 22.4027C24.3082 22.4027 19.6775 17.7721 19.6775 12.0803C19.6775 9.61875 20.5583 7.23504 22.1577 5.36836C22.8971 4.50551 21.5621 3.36141 20.8228 4.22461C19.8345 5.37809 19.0833 6.70125 18.5917 8.11617H3.22266C1.44563 8.11617 0 9.5618 0 11.3388V56.7773C0 58.5544 1.44563 60 3.22266 60H56.7773C58.5544 60 60 58.5544 60 56.7773V18.75V11.3389C60 9.56191 58.5544 8.11629 56.7773 8.11629ZM56.7773 9.8741C57.5851 9.8741 58.2422 10.5312 58.2422 11.3389V17.8711H40.5991C41.9289 15.4471 42.3814 12.5924 41.8777 9.8741H56.7773ZM3.22266 9.8741H18.1243C17.619 12.5932 18.0705 15.446 19.4007 17.8711H1.75781V11.3389C1.75781 10.5312 2.41488 9.8741 3.22266 9.8741ZM56.7773 58.2422H3.22266C2.41488 58.2422 1.75781 57.5851 1.75781 56.7773V19.6289H20.5761C22.7919 22.3896 26.1928 24.1605 30 24.1605C33.8141 24.1605 37.2205 22.3833 39.4361 19.6139C39.4874 19.6233 58.2422 19.6289 58.2422 19.6289V56.7773C58.2422 57.5851 57.5851 58.2422 56.7773 58.2422Z" fill="white"/>
<path d="M48.6522 42.4563H11.3476C4.84607 42.4563 4.83494 52.5574 11.3476 52.5574H48.652C55.1537 52.5574 55.1649 42.4563 48.6522 42.4563ZM48.6522 50.7996H11.3476C7.11072 50.7996 7.08154 44.2141 11.3476 44.2141H48.652C52.8891 44.2141 52.9181 50.7996 48.6522 50.7996Z" fill="white"/>
<path d="M14.1977 46.6278C13.0666 46.6278 13.0647 48.3856 14.1977 48.3856C15.3286 48.3856 15.3305 46.6278 14.1977 46.6278Z" fill="white"/>
<path d="M18.7123 46.6278C17.5812 46.6278 17.5793 48.3856 18.7123 48.3856C19.8434 48.3856 19.8453 46.6278 18.7123 46.6278Z" fill="white"/>
<path d="M23.2274 46.6278C22.0963 46.6278 22.0945 48.3856 23.2274 48.3856C24.3585 48.3856 24.3604 46.6278 23.2274 46.6278Z" fill="white"/>
<path d="M27.7423 46.6278C26.6112 46.6278 26.6094 48.3856 27.7423 48.3856C28.8734 48.3856 28.8753 46.6278 27.7423 46.6278Z" fill="white"/>
<path d="M32.2575 46.6278C31.1264 46.6278 31.1245 48.3856 32.2575 48.3856C33.3886 48.3856 33.3905 46.6278 32.2575 46.6278Z" fill="white"/>
<path d="M36.7726 46.6278C35.6415 46.6278 35.6396 48.3856 36.7726 48.3856C37.9036 48.3856 37.9055 46.6278 36.7726 46.6278Z" fill="white"/>
<path d="M41.2875 46.6278C40.1564 46.6278 40.1545 48.3856 41.2875 48.3856C42.4186 48.3856 42.4205 46.6278 41.2875 46.6278Z" fill="white"/>
<path d="M45.8026 46.6278C44.6715 46.6278 44.6697 48.3856 45.8026 48.3856C46.9337 48.3856 46.9356 46.6278 45.8026 46.6278Z" fill="white"/>
<path d="M48.6522 29.1935H11.3476C4.84607 29.1935 4.83494 39.2946 11.3476 39.2946H40.9331C42.0695 39.2946 42.0695 37.5368 40.9331 37.5368H11.3476C7.11072 37.5368 7.08154 30.9513 11.3476 30.9513H48.652C52.889 30.9513 52.9181 37.5368 48.652 37.5368H45.6206C44.4843 37.5368 44.4843 39.2946 45.6206 39.2946H48.652C55.1537 39.2946 55.1649 29.1935 48.6522 29.1935Z" fill="white"/>
<path d="M30 4.93384C28.2765 4.93384 26.8745 6.33587 26.8745 8.05935V10.1324C25.8447 10.2406 25.0393 11.1137 25.0393 12.1716V16.7073C25.0393 17.8381 25.9593 18.7581 27.0901 18.7581H32.9099C34.0406 18.7581 34.9606 17.8381 34.9606 16.7073V12.1716C34.9606 11.1136 34.1553 10.2406 33.1255 10.1324V8.05935C33.1255 6.33587 31.7234 4.93384 30 4.93384ZM28.6323 8.05923C28.6323 6.34829 31.3678 6.27001 31.3678 8.05923V10.1207H28.6323V8.05923ZM33.2028 16.7073C33.2028 16.8688 33.0713 17.0003 32.9099 17.0003H27.0901C26.9286 17.0003 26.7971 16.8688 26.7971 16.7073V12.1716C26.7971 12.0101 26.9286 11.8786 27.0901 11.8786H32.9099C33.0713 11.8786 33.2028 12.0101 33.2028 12.1716V16.7073Z" fill="white"/>
<path d="M46.6816 34.244C46.6816 33.7586 46.2881 33.3651 45.8027 33.3651H14.1972C13.0609 33.3651 13.0609 35.1229 14.1972 35.1229H45.8027C46.2881 35.1229 46.6816 34.7294 46.6816 34.244Z" fill="white"/>
<path d="M30.0002 13.5604C28.8691 13.5604 28.8672 15.3182 30.0002 15.3182C31.1312 15.3182 31.1331 13.5604 30.0002 13.5604Z" fill="white"/>
</svg>
