<svg width="28" height="28" viewBox="0 0 28 28" fill="none" xmlns="http://www.w3.org/2000/svg">
<path d="M12.4776 10.4266V12.0331H11.3016V13.9966H12.4776V19.8334H14.895V13.9966H16.5166C16.5166 13.9966 16.6695 13.0551 16.743 12.0249H14.9043V10.6832C14.9043 10.4814 15.168 10.2119 15.4293 10.2119H16.7453V8.16675H14.9545C12.4181 8.16675 12.4776 10.1326 12.4776 10.4266Z" fill="white"/>
<path d="M5.6 2.8C4.85739 2.8 4.1452 3.095 3.6201 3.6201C3.095 4.1452 2.8 4.85739 2.8 5.6V22.4C2.8 23.1426 3.095 23.8548 3.6201 24.3799C4.1452 24.905 4.85739 25.2 5.6 25.2H22.4C23.1426 25.2 23.8548 24.905 24.3799 24.3799C24.905 23.8548 25.2 23.1426 25.2 22.4V5.6C25.2 4.85739 24.905 4.1452 24.3799 3.6201C23.8548 3.095 23.1426 2.8 22.4 2.8H5.6ZM5.6 0H22.4C23.8852 0 25.3096 0.589998 26.3598 1.6402C27.41 2.69041 28 4.11479 28 5.6V22.4C28 23.8852 27.41 25.3096 26.3598 26.3598C25.3096 27.41 23.8852 28 22.4 28H5.6C4.11479 28 2.69041 27.41 1.6402 26.3598C0.589998 25.3096 0 23.8852 0 22.4V5.6C0 4.11479 0.589998 2.69041 1.6402 1.6402C2.69041 0.589998 4.11479 0 5.6 0Z" fill="white"/>
</svg>
