<svg width="60" height="60" viewBox="0 0 60 60" fill="none" xmlns="http://www.w3.org/2000/svg">
<path d="M57.0968 13.5484H34.8387V4.83871C34.8387 2.17065 32.6681 0 30 0H4.83871C2.17065 0 0 2.17065 0 4.83871V55.1613C0 57.8294 2.17065 60 4.83871 60H30C32.6681 60 34.8387 57.8294 34.8387 55.1613V40.6452H32.9032V50.3226H1.93548V9.67742H32.9032V13.5484H24.1935C22.5929 13.5484 21.2903 14.851 21.2903 16.4516V30.5671L13.1477 38.7097H57.0968C58.6974 38.7097 60 37.4071 60 35.8064V16.4516C60 14.851 58.6974 13.5484 57.0968 13.5484ZM32.9032 52.2581V55.1613C32.9032 56.7619 31.6006 58.0645 30 58.0645H4.83871C3.23806 58.0645 1.93548 56.7619 1.93548 55.1613V52.2581H32.9032ZM1.93548 7.74194V4.83871C1.93548 3.23806 3.23806 1.93548 4.83871 1.93548H30C31.6006 1.93548 32.9032 3.23806 32.9032 4.83871V7.74194H1.93548ZM58.0645 35.8064C58.0645 36.3406 57.631 36.7742 57.0968 36.7742H17.82L23.2258 31.3684V16.4516C23.2258 15.9174 23.6594 15.4839 24.1935 15.4839H57.0968C57.631 15.4839 58.0645 15.9174 58.0645 16.4516V35.8064Z" fill="white"/>
<path d="M50.3226 25.1613C49.2552 25.1613 48.3871 24.2932 48.3871 23.2258C48.3871 22.1584 49.2552 21.2903 50.3226 21.2903C51.39 21.2903 52.2581 22.1584 52.2581 23.2258H54.1936C54.1936 21.091 52.4575 19.3549 50.3226 19.3549C48.1878 19.3549 46.4517 21.091 46.4517 23.2258C46.4517 25.3607 48.1878 27.0968 50.3226 27.0968C51.39 27.0968 52.2581 27.9649 52.2581 29.0323C52.2581 30.0997 51.39 30.9678 50.3226 30.9678C49.2552 30.9678 48.3871 30.0997 48.3871 29.0323H46.4517C46.4517 31.1671 48.1878 32.9032 50.3226 32.9032C52.4575 32.9032 54.1936 31.1671 54.1936 29.0323C54.1936 26.8974 52.4575 25.1613 50.3226 25.1613Z" fill="white"/>
<path d="M30.9679 25.1613C29.9005 25.1613 29.0324 24.2932 29.0324 23.2258C29.0324 22.1584 29.9005 21.2903 30.9679 21.2903C32.0353 21.2903 32.9034 22.1584 32.9034 23.2258H34.8389C34.8389 21.091 33.1027 19.3549 30.9679 19.3549C28.8331 19.3549 27.0969 21.091 27.0969 23.2258C27.0969 25.3607 28.8331 27.0968 30.9679 27.0968C32.0353 27.0968 32.9034 27.9649 32.9034 29.0323C32.9034 30.0997 32.0353 30.9678 30.9679 30.9678C29.9005 30.9678 29.0324 30.0997 29.0324 29.0323H27.0969C27.0969 31.1671 28.8331 32.9032 30.9679 32.9032C33.1027 32.9032 34.8389 31.1671 34.8389 29.0323C34.8389 26.8974 33.1027 25.1613 30.9679 25.1613Z" fill="white"/>
<path d="M41.8248 19.3549L40.6451 24.0745L39.4655 19.3549H36.7742V31.9355H38.7097V24.3126L40.6451 32.0545L42.5806 24.3126V31.9355H44.5161V19.3549H41.8248Z" fill="white"/>
<path d="M21.2903 54.1936H13.5483V56.1291H21.2903V54.1936Z" fill="white"/>
<path d="M30.9677 40.6451H29.0322V42.5806H30.9677V40.6451Z" fill="white"/>
<path d="M27.0969 40.6451H25.1614V42.5806H27.0969V40.6451Z" fill="white"/>
<path d="M23.2258 40.6451H21.2903V42.5806H23.2258V40.6451Z" fill="white"/>
<path d="M19.3547 40.6451H17.4192V42.5806H19.3547V40.6451Z" fill="white"/>
</svg>
