<svg width="28" height="28" viewBox="0 0 28 28" fill="none" xmlns="http://www.w3.org/2000/svg">
<path d="M18.167 15.6104C18.1174 15.53 17.9882 15.4804 17.794 15.3837C17.5989 15.2889 16.6379 14.8192 16.4599 14.7542C16.3823 14.7262 16.3136 14.7036 16.2504 14.7036C16.1673 14.7036 16.0932 14.7415 16.0201 14.8508C15.89 15.045 15.5152 15.4804 15.4023 15.6104C15.3381 15.6845 15.2722 15.7215 15.1927 15.7215C15.1331 15.7215 15.0636 15.7007 14.9805 15.6583C14.7836 15.5635 14.1549 15.3575 13.4098 14.6991C12.8299 14.1851 12.4379 13.5511 12.3232 13.3569C12.2094 13.1645 12.3114 13.0588 12.4099 12.9631C12.4975 12.8736 12.6041 12.7355 12.7034 12.6225C12.801 12.5096 12.8335 12.4293 12.8976 12.3001C12.9618 12.1709 12.9301 12.0571 12.8805 11.9605C12.8326 11.8638 12.4424 10.9109 12.278 10.5225C12.157 10.2335 12.035 10.1965 11.9339 10.1965C11.8996 10.1965 11.867 10.201 11.8381 10.201C11.7261 10.201 11.597 10.1838 11.4651 10.1838C11.335 10.1838 11.1246 10.2326 10.9449 10.4277C10.7669 10.6201 10.2611 11.0889 10.2611 12.0418C10.2611 12.9956 10.9602 13.9151 11.0596 14.0442C11.1562 14.1743 12.4099 16.193 14.3934 16.9689C15.5432 17.4187 16.0273 17.5207 16.3001 17.5207C16.4988 17.5207 16.5855 17.4665 16.7363 17.453C17.0931 17.4214 17.8907 16.9833 18.0541 16.5317C18.2167 16.0801 18.2167 15.6908 18.167 15.6104Z" fill="white"/>
<path d="M20.4888 0H7.51123C3.43948 0 0 3.44039 0 7.51123V20.4879C0 24.5596 3.43948 28 7.51123 28H20.4888C24.5596 28 28 24.5596 28 20.487V7.51123C28 3.44039 24.5605 0 20.4888 0ZM26.1935 20.487C26.1935 23.5796 23.5814 26.1926 20.4888 26.1926H7.51123C4.41948 26.1926 1.80645 23.5805 1.80645 20.487V7.51123C1.80645 4.41948 4.41948 1.80645 7.51123 1.80645H20.4888C23.5805 1.80645 26.1935 4.41858 26.1935 7.51123V20.487Z" fill="white"/>
<path d="M14.1469 4.98584C9.25866 4.98584 5.28176 8.93565 5.28176 13.7914C5.28176 15.2555 5.64576 16.6907 6.33944 17.967L5.03427 21.8202C4.92498 22.1426 5.00627 22.4985 5.24473 22.7424C5.41724 22.9194 5.65118 23.0133 5.88963 23.0133C5.98085 23.0133 6.07298 22.9998 6.16331 22.9709L10.2143 21.6847C11.4291 22.2808 12.7803 22.5951 14.1469 22.5951C19.0361 22.5951 23.0139 18.6462 23.0139 13.7914C23.0139 8.93565 19.0361 4.98584 14.1469 4.98584ZM14.1451 20.7896C12.9492 20.7896 11.7687 20.4888 10.7318 19.9189C10.5981 19.8457 10.4482 19.8078 10.2974 19.8078C10.2061 19.8078 10.114 19.8213 10.0228 19.8502L7.31582 20.7092L8.17931 18.1621C8.26511 17.9092 8.2344 17.6301 8.09531 17.4016C7.43505 16.3177 7.0864 15.0695 7.0864 13.7923C7.0864 9.93371 10.2531 6.79319 14.1451 6.79319C18.038 6.79319 21.2056 9.93371 21.2056 13.7923C21.2056 17.65 18.0389 20.7896 14.1451 20.7896Z" fill="white"/>
</svg>
