<svg width="60" height="60" viewBox="0 0 60 60" fill="none" xmlns="http://www.w3.org/2000/svg">
<path d="M30 60C23.2635 60 18.6914 58.8074 16.5655 58.0964C15.6642 57.7952 15.0586 56.9532 15.0586 56.0014V41.147C15.0586 40.1952 15.6642 39.3532 16.5656 39.0519C17.3961 38.7742 18.6002 38.4229 20.1607 38.0979V30C20.1607 24.5746 24.5746 20.1607 29.9999 20.1607C31.4592 20.1607 32.8643 20.473 34.1763 21.0888C34.6158 21.2951 34.8047 21.8186 34.5984 22.2579C34.3922 22.6973 33.8686 22.8862 33.4294 22.6801C32.3529 22.1748 31.1991 21.9186 29.9999 21.9186C25.5438 21.9186 21.9185 25.5441 21.9185 30.0001V37.7726C22.4718 37.6823 23.0578 37.598 23.6763 37.522V30C23.6763 26.5131 26.5131 23.6763 29.9999 23.6763C33.4867 23.6763 36.3234 26.5131 36.3234 30V32.9576C36.7397 33.1072 37.665 33.1072 38.0812 32.9576V30C38.0812 27.9487 37.3118 25.9931 35.9147 24.4932C35.5839 24.138 35.6036 23.5819 35.9586 23.2509C36.3137 22.92 36.8699 22.9397 37.2008 23.295C38.9021 25.1214 39.8391 27.5025 39.8391 30V33.223C39.8391 34.2115 38.8287 34.8255 37.2023 34.8255C35.576 34.8255 34.5656 34.2115 34.5656 33.223V30C34.5656 27.4825 32.5174 25.4341 29.9999 25.4341C27.4823 25.4341 25.4343 27.4825 25.4343 30V37.3393C26.8229 37.2203 28.3463 37.1484 30 37.1484C36.7365 37.1484 41.3086 38.3411 43.4345 39.052C44.3358 39.3532 44.9414 40.1952 44.9414 41.147V49.7521C44.9414 50.2376 44.5479 50.631 44.0625 50.631C43.5771 50.631 43.1836 50.2376 43.1836 49.7521V41.147C43.1836 40.9523 43.0604 40.7803 42.877 40.7191C41.2471 40.174 36.7297 38.9062 30 38.9062C23.2703 38.9062 18.7529 40.174 17.1231 40.7191C16.9396 40.7803 16.8164 40.9523 16.8164 41.147V56.0014C16.8164 56.1961 16.9396 56.3681 17.123 56.4293C18.7529 56.9745 23.2703 58.2422 30 58.2422C36.7297 58.2422 41.2471 56.9745 42.8769 56.4293C43.0604 56.3681 43.1836 56.1961 43.1836 56.0014V53.2677C43.1836 52.7822 43.5771 52.3888 44.0625 52.3888C44.5479 52.3888 44.9414 52.7822 44.9414 53.2677V56.0014C44.9414 56.9532 44.3358 57.7952 43.4344 58.0965C41.3086 58.8074 36.7365 60 30 60ZM30.0586 55.057C29.5417 55.057 29.1211 54.6364 29.1211 54.1195C29.1211 53.6026 29.5417 53.182 30.0586 53.182C30.5755 53.182 30.9961 53.6026 30.9961 54.1195C30.9961 54.6364 30.5755 55.057 30.0586 55.057ZM30 50.631C29.5146 50.631 29.1211 50.2376 29.1211 49.7521V42.7148C29.1211 42.2293 29.5146 41.8359 30 41.8359C30.4854 41.8359 30.8789 42.2293 30.8789 42.7148V49.7521C30.8789 50.2375 30.4854 50.631 30 50.631ZM59.1211 30.8789C58.6357 30.8789 58.2422 30.4855 58.2422 30C58.2422 22.0146 54.8381 14.3662 48.9027 9.01605C48.5421 8.69121 48.5133 8.13527 48.8384 7.77481C49.1634 7.41434 49.719 7.38539 50.0796 7.71047C53.1707 10.4967 55.6079 13.8229 57.3236 17.5963C59.0995 21.5024 60 25.6757 60 30C60 30.4855 59.6065 30.8789 59.1211 30.8789ZM52.4009 30.8789C51.9155 30.8789 51.522 30.4855 51.522 30C51.522 18.1327 41.8672 8.47805 30 8.47805C20.8055 8.47805 12.6231 14.3169 9.63926 23.0074C9.48164 23.4667 8.98172 23.7107 8.52258 23.5533C8.06355 23.3955 7.8191 22.8957 7.97672 22.4366C11.2043 13.0361 20.0549 6.72023 30 6.72023C42.8365 6.72023 53.2798 17.1635 53.2798 30C53.2798 30.4855 52.8862 30.8789 52.4009 30.8789ZM45.6806 30.8789C45.1952 30.8789 44.8017 30.4855 44.8017 30C44.8017 21.8384 38.1618 15.1983 30 15.1983C21.8382 15.1983 15.1983 21.8384 15.1983 30C15.1983 30.4855 14.8048 30.8789 14.3194 30.8789C13.834 30.8789 13.4405 30.4855 13.4405 30C13.4405 20.8691 20.869 13.4405 30 13.4405C39.131 13.4405 46.5595 20.8691 46.5595 30C46.5595 30.4855 46.166 30.8789 45.6806 30.8789ZM7.59914 30.8789C7.11375 30.8789 6.72023 30.4855 6.72023 30C6.72023 28.5971 6.84598 27.1917 7.09406 25.8227C7.18055 25.3452 7.63793 25.0282 8.11559 25.1147C8.59324 25.2012 8.91023 25.6587 8.82363 26.1363C8.59418 27.4021 8.47793 28.702 8.47793 30C8.47805 30.4855 8.08453 30.8789 7.59914 30.8789ZM0.878906 30.8789C0.393516 30.8789 0 30.4855 0 30C0 21.9867 3.12059 14.453 8.78672 8.78672C14.4531 3.12059 21.9867 0 30 0C36.1871 0 42.1277 1.8682 47.1793 5.40281C47.5771 5.68113 47.6739 6.22922 47.3955 6.62684C47.1172 7.02469 46.5693 7.12113 46.1715 6.84316C41.4169 3.51633 35.8248 1.75781 30 1.75781C14.4272 1.75781 1.75781 14.4272 1.75781 30C1.75781 30.4855 1.3643 30.8789 0.878906 30.8789Z" fill="white"/>
</svg>
