<svg width="100" height="100" viewBox="0 0 100 100" fill="none" xmlns="http://www.w3.org/2000/svg">
<path d="M66.6666 8.33331H33.3333V11.6666H66.6666V8.33331Z" fill="#07B3EA"/>
<path d="M82.5001 62.5C82.5001 59.2837 79.8828 56.6666 76.6668 56.6666H73.3334V33.3333H70.0001V56.6666H65.8334C62.6172 56.6666 60.0001 59.2839 60.0001 62.5C60.0001 64.1329 60.6788 65.6066 61.7638 66.6666C60.6788 67.7266 60.0001 69.2004 60.0001 70.8333C60.0001 71.9569 60.3345 72.9979 60.8874 73.8891C58.8936 74.8177 57.5001 76.8266 57.5001 79.1666C57.5001 80.0648 57.7211 80.906 58.0853 81.6666H45.0001C45.0001 76.5706 42.4463 72.0606 38.5515 69.3489C42.3178 67.9133 45.0001 64.2644 45.0001 60C45.0001 59.0796 44.2547 58.3333 43.3334 58.3333H30.0001V41.6666H26.6667V58.3333C23.9097 58.3333 21.6667 60.5762 21.6667 63.3333V100H25.0001V63.3333C25.0001 62.4146 25.7472 61.6666 26.6667 61.6666H41.4551C40.7145 64.5385 38.1005 66.6666 35.0001 66.6666H30.0001C29.0788 66.6666 28.3334 67.4129 28.3334 68.3333C28.3334 69.2537 29.0788 70 30.0001 70C36.4324 70 41.6667 75.2335 41.6667 81.6666V83.3333C41.6667 84.2537 42.4122 85 43.3334 85H53.0853C52.7211 85.7606 52.5001 86.6019 52.5001 87.5C52.5001 90.7162 55.1174 93.3333 58.3334 93.3333V100H61.6667V93.3333H68.3334H69.1668C72.383 93.3333 75.0001 90.716 75.0001 87.5C75.0001 86.5923 74.7736 85.7431 74.402 84.9762C77.5072 84.8496 80.0001 82.3023 80.0001 79.1666C80.0001 78.0431 79.6657 77.0021 79.1128 76.1108C81.1065 75.1823 82.5001 73.1733 82.5001 70.8333C82.5001 69.2004 81.8213 67.7266 80.7363 66.6666C81.8213 65.6066 82.5001 64.1329 82.5001 62.5ZM69.1668 90H68.3334H60.0001H58.3334C56.9549 90 55.8334 88.8785 55.8334 87.5C55.8334 86.1214 56.9549 85 58.3334 85H63.3334H69.1668C70.5453 85 71.6668 86.1214 71.6668 87.5C71.6668 88.8785 70.5453 90 69.1668 90ZM74.1668 81.6666H69.1668H63.3334C61.9549 81.6666 60.8334 80.5452 60.8334 79.1666C60.8334 77.7881 61.9549 76.6666 63.3334 76.6666H65.8334H74.1668C75.5453 76.6666 76.6668 77.7881 76.6668 79.1666C76.6668 80.5452 75.5453 81.6666 74.1668 81.6666ZM76.6668 73.3333H74.1668H65.8334C64.4549 73.3333 63.3334 72.2119 63.3334 70.8333C63.3334 69.4548 64.4549 68.3333 65.8334 68.3333H76.6668C78.0453 68.3333 79.1668 69.4548 79.1668 70.8333C79.1668 72.2119 78.0453 73.3333 76.6668 73.3333ZM76.6668 65H65.8334C64.4549 65 63.3334 63.8785 63.3334 62.5C63.3334 61.1214 64.4549 60 65.8334 60H76.6668C78.0453 60 79.1668 61.1214 79.1668 62.5C79.1668 63.8785 78.0453 65 76.6668 65Z" fill="#07B3EA"/>
<path d="M24.9951 21.2142C24.9609 20.7356 24.7232 20.2946 24.3407 20.0048L22.6057 18.6896C22.1907 16.5885 20.3465 15 18.1411 15C15.6526 15 13.6228 17.0231 13.5903 19.5223C12.2588 19.2896 10.9861 18.7785 9.84674 18.011L9.2657 17.6188C8.75632 17.2746 8.09549 17.2371 7.55028 17.5283C7.00674 17.8173 6.66653 18.3837 6.66653 18.9998V20.3671C6.66653 22.3756 7.27195 24.2913 8.39507 25.9002L7.1484 27.1617C6.67486 27.6394 6.53632 28.3548 6.79528 28.9756C7.05382 29.5956 7.6609 30 8.3332 30H16.4094C19.6305 30 22.2932 27.5448 22.6513 24.3937L24.5182 22.505C24.8551 22.164 25.0292 21.6935 24.9951 21.2142ZM19.8403 22.4952C19.5311 22.8069 19.3584 23.2285 19.3584 23.6671C19.3584 25.3208 18.0351 26.6667 16.4092 26.6667H12.1694C12.4332 26.0596 12.3192 25.3271 11.8261 24.8283C11.0482 24.0406 10.4915 23.0494 10.2099 21.9808C11.8001 22.6515 13.509 22.9998 15.2572 22.9998C16.1784 22.9998 16.9238 22.2535 16.9238 21.3331V19.5833C16.9238 18.894 17.4707 18.3333 18.1413 18.3333C18.8119 18.3333 19.3588 18.894 19.3588 19.5833C19.3588 20.105 19.603 20.5965 20.018 20.9115L20.8124 21.5129L19.8403 22.4952Z" fill="#07B3EA"/>
<path d="M55 28.3333V25H50C49.0788 25 48.3333 25.7462 48.3333 26.6667V31.6667H45V35H48.3333V41.6667H51.6667V35H55V31.6667H51.6667V28.3333H55Z" fill="#07B3EA"/>
<path d="M60 18.3333H40C37.2429 18.3333 35 20.5762 35 23.3333V43.3333C35 46.0904 37.2429 48.3333 40 48.3333H60C62.7571 48.3333 65 46.0904 65 43.3333V23.3333C65 20.5762 62.7571 18.3333 60 18.3333ZM61.6667 43.3333C61.6667 44.2521 60.9196 45 60 45H40C39.0804 45 38.3333 44.2521 38.3333 43.3333V23.3333C38.3333 22.4146 39.0804 21.6666 40 21.6666H60C60.9196 21.6666 61.6667 22.4146 61.6667 23.3333V43.3333Z" fill="#07B3EA"/>
<path d="M25 8.33331H5C2.24292 8.33331 0 10.5762 0 13.3333V33.3333C0 36.0904 2.24292 38.3333 5 38.3333H25C27.7571 38.3333 30 36.0904 30 33.3333V13.3333C30 10.5762 27.7571 8.33331 25 8.33331ZM26.6667 33.3333C26.6667 34.2521 25.9196 35 25 35H5C4.08042 35 3.33333 34.2521 3.33333 33.3333V13.3333C3.33333 12.4146 4.08042 11.6666 5 11.6666H25C25.9196 11.6666 26.6667 12.4146 26.6667 13.3333V33.3333Z" fill="#07B3EA"/>
<path d="M95 0H75C72.2429 0 70 2.24292 70 5V25C70 27.7571 72.2429 30 75 30H95C97.7571 30 100 27.7571 100 25V5C100 2.24292 97.7571 0 95 0ZM96.6667 25C96.6667 25.9188 95.9196 26.6667 95 26.6667H75C74.0804 26.6667 73.3333 25.9188 73.3333 25V16.6667H76.8352C77.6096 20.4654 80.976 23.3333 85 23.3333C89.024 23.3333 92.3904 20.4654 93.1648 16.6667H96.6667V25ZM80 15C80 12.2429 82.2429 10 85 10C87.7571 10 90 12.2429 90 15C90 17.7571 87.7571 20 85 20C82.2429 20 80 17.7571 80 15ZM96.6667 13.3333H93.1648C92.3904 9.53458 89.024 6.66667 85 6.66667C80.976 6.66667 77.6096 9.53458 76.8352 13.3333H73.3333V5C73.3333 4.08125 74.0804 3.33333 75 3.33333H95C95.9196 3.33333 96.6667 4.08125 96.6667 5V13.3333Z" fill="#07B3EA"/>
<path d="M51.6666 68.3333H48.3333V71.6666H51.6666V68.3333Z" fill="#07B3EA"/>
</svg>
