<svg width="80" height="100" viewBox="0 0 80 100" fill="none" xmlns="http://www.w3.org/2000/svg">
<path d="M79.7401 42.3047C79.7401 35.6385 77.1585 29.3594 72.4706 24.6238C71.9012 24.0488 70.9737 24.0443 70.3991 24.6133C69.8243 25.1824 69.8194 26.11 70.3885 26.6848C74.5298 30.8682 76.8104 36.4152 76.8104 42.3047C76.8104 54.552 66.8466 64.5158 54.5995 64.5158C50.376 64.5158 46.2684 63.3256 42.7204 61.074C42.3485 60.8381 41.8903 60.7816 41.4723 60.9211L33.2399 63.6648L35.9835 55.4342C36.1227 55.0164 36.0667 54.5582 35.8309 54.1863C33.579 50.6353 32.3887 46.5268 32.3887 42.3047C32.3887 30.0576 42.3526 20.0938 54.5997 20.0938C58.3348 20.0938 62.0282 21.0389 65.2807 22.8266C65.9901 23.2162 66.8801 22.9576 67.2702 22.2486C67.6598 21.5396 67.4012 20.649 66.6923 20.2592C65.3163 19.5027 63.8706 18.8799 62.3792 18.3957V5.41016C62.3792 2.42695 59.9512 0 56.9671 0H5.6698C2.6866 0 0.259644 2.42695 0.259644 5.41016V94.5898C0.259644 97.573 2.6866 100 5.6698 100H56.9667C59.9509 100 62.3788 97.573 62.3788 94.5898V82.6172C62.3788 81.808 61.7231 81.1523 60.9139 81.1523C60.1048 81.1523 59.4491 81.808 59.4491 82.6172V94.5898C59.4491 95.9576 58.3356 97.0703 56.9667 97.0703H5.6698C4.30203 97.0703 3.18933 95.9576 3.18933 94.5898V5.41016C3.18933 4.04238 4.30203 2.92969 5.6698 2.92969H56.9667C58.3356 2.92969 59.4491 4.04238 59.4491 5.41016V17.6377C58.3339 17.4189 57.2028 17.2748 56.0643 17.2084V9.75195C56.0643 7.85664 54.5221 6.31445 52.6268 6.31445H41.6483C40.137 6.31445 38.8176 7.28262 38.3649 8.72637L38.2432 9.1168C38.1774 9.32852 37.9831 9.4707 37.7594 9.4707H24.8766C24.6534 9.4707 24.4585 9.32715 24.3923 9.11504L24.2706 8.72402C23.8188 7.28281 22.5007 6.31445 20.9899 6.31445H10.0114C8.11492 6.31445 6.57195 7.85664 6.57195 9.75195V15.2109C6.57195 16.0201 7.22761 16.6758 8.03679 16.6758C8.84597 16.6758 9.50164 16.0201 9.50164 15.2109V9.75195C9.50164 9.47188 9.73035 9.24414 10.0114 9.24414H20.9899C21.2134 9.24414 21.4083 9.38711 21.4741 9.59805L21.5956 9.98828C22.0471 11.4312 23.3655 12.4006 24.8766 12.4006H37.7594C39.2741 12.4006 40.5928 11.4299 41.0407 9.98691L41.161 9.60059C41.228 9.3875 41.4237 9.24434 41.6481 9.24434H52.6266C52.9067 9.24434 53.1344 9.47207 53.1344 9.75215V17.208C39.951 17.9693 29.4587 28.934 29.4587 42.3049C29.4587 46.8479 30.6766 51.2754 32.9878 55.1559L29.5337 65.5176C29.3583 66.0439 29.4952 66.6242 29.8876 67.0166C30.1669 67.2959 30.5413 67.4457 30.9237 67.4457C31.0786 67.4457 31.235 67.4211 31.3866 67.3705L41.7501 63.9166C45.21 65.9783 49.1071 67.1674 53.1344 67.4004V90.248C53.1344 90.5281 52.9067 90.7559 52.6266 90.7559H10.0116C9.73054 90.7559 9.50183 90.5281 9.50183 90.248V22.0469C9.50183 21.2377 8.84617 20.582 8.03699 20.582C7.22781 20.582 6.57214 21.2377 6.57214 22.0469V90.248C6.57214 92.1434 8.11511 93.6855 10.0116 93.6855H52.6268C54.5221 93.6855 56.0643 92.1434 56.0643 90.248V67.4016C57.2149 67.3352 58.3448 67.1908 59.4491 66.9742V75.7812C59.4491 76.5904 60.1048 77.2461 60.9139 77.2461C61.7231 77.2461 62.3788 76.5904 62.3788 75.7812V66.2119C72.4452 62.9281 79.7401 53.4529 79.7401 42.3047Z" fill="#07B3EA"/>
<path d="M55.1988 34.944C55.1988 33.8391 54.7687 32.8004 53.9875 32.019L50.2095 28.2411C49.4281 27.4598 48.3896 27.0297 47.2845 27.0297C46.1794 27.0297 45.141 27.4598 44.3595 28.2411L42.8484 29.7524C38.7361 33.8649 38.7361 40.5563 42.8484 44.669L52.6712 54.4914C54.6634 56.4836 57.3123 57.5809 60.1296 57.5809C62.947 57.5809 65.5959 56.4836 67.5882 54.4914L69.0992 52.9805C69.8804 52.1991 70.3105 51.1606 70.3105 50.0555C70.3105 48.9504 69.8804 47.912 69.0992 47.1309L65.321 43.3526C63.7082 41.7401 61.0845 41.7401 59.4716 43.3526L58.6185 44.2059L53.1341 38.7215L53.9875 37.8686C54.7687 37.0875 55.1988 36.0489 55.1988 34.944ZM57.5826 47.3137C58.1548 47.8856 59.0822 47.8856 59.6543 47.3137L61.5433 45.4246C62.0136 44.9543 62.7791 44.9545 63.2494 45.4244L67.0275 49.2028C67.2554 49.4307 67.3808 49.7336 67.3808 50.0557C67.3808 50.378 67.2552 50.6809 67.0273 50.909L65.5164 52.42C64.0777 53.8588 62.1646 54.6514 60.1296 54.6514C58.0949 54.6514 56.1818 53.8588 54.7431 52.42L44.9203 42.5977C41.9501 39.6274 41.9501 34.7944 44.9203 31.8243L46.4314 30.3131C46.6593 30.0852 46.9623 29.9596 47.2845 29.9596C47.6068 29.9596 47.9097 30.0852 48.1376 30.3131L51.9156 34.0911C52.3861 34.5614 52.3861 35.327 51.9158 35.7973L50.0267 37.6862C49.7519 37.9608 49.5976 38.3334 49.5976 38.7221C49.5976 39.1108 49.7519 39.483 50.0265 39.758L57.5826 47.3137Z" fill="#07B3EA"/>
</svg>
