<svg width="100" height="100" viewBox="0 0 100 100" fill="none" xmlns="http://www.w3.org/2000/svg">
<path d="M79.6876 25.6469L91.7298 13.6047L89.5204 11.3953L79.6876 21.2281L76.1048 17.6453L73.8954 19.8547L79.6876 25.6469Z" fill="#07B3EA"/>
<path d="M32.8125 20.3125H35.9375V23.4375H32.8125V20.3125Z" fill="#07B3EA"/>
<path d="M26.5625 20.3125H29.6875V23.4375H26.5625V20.3125Z" fill="#07B3EA"/>
<path d="M20.3125 20.3125H23.4375V23.4375H20.3125V20.3125Z" fill="#07B3EA"/>
<path d="M45.3125 20.3125H48.4375V23.4375H45.3125V20.3125Z" fill="#07B3EA"/>
<path d="M57.8125 20.3125H60.9375V23.4375H57.8125V20.3125Z" fill="#07B3EA"/>
<path d="M14.0625 20.3125H17.1875V23.4375H14.0625V20.3125Z" fill="#07B3EA"/>
<path d="M39.0625 20.3125H42.1875V23.4375H39.0625V20.3125Z" fill="#07B3EA"/>
<path d="M51.5625 20.3125H54.6875V23.4375H51.5625V20.3125Z" fill="#07B3EA"/>
<path d="M98.4375 17.1875C98.4375 8.57188 91.4281 1.5625 82.8125 1.5625C77.7156 1.5625 73.1969 4.02656 70.3422 7.8125H6.25C3.66562 7.8125 1.5625 9.91562 1.5625 12.5V65.625C1.5625 68.2094 3.66562 70.3125 6.25 70.3125H35.0031L35.0641 70.4344C35.6359 71.5766 35.9375 72.8531 35.9375 74.1281V80.5469C35.9375 82.225 36.3312 83.9078 37.0781 85.4109L40.625 92.5531V98.3672L68.75 98.4406V92.7078L71.25 89.375C72.6609 87.4938 73.4375 85.1625 73.4375 82.8125V70.3125H87.5C90.0844 70.3125 92.1875 68.2094 92.1875 65.625V29.6578C95.9734 26.8031 98.4375 22.2844 98.4375 17.1875ZM82.8125 4.6875C89.7047 4.6875 95.3125 10.2953 95.3125 17.1875C95.3125 24.0797 89.7047 29.6875 82.8125 29.6875C75.9203 29.6875 70.3125 24.0797 70.3125 17.1875C70.3125 10.2953 75.9203 4.6875 82.8125 4.6875ZM70.3422 26.5625H10.9375V17.1875H67.1875C67.1875 20.7078 68.3719 23.9469 70.3422 26.5625ZM70.3125 82.8125C70.3125 84.4922 69.7578 86.1562 68.75 87.5L65.625 91.6672V95.3094L43.75 95.25V91.8203L39.8766 84.0203C39.3438 82.9469 39.0625 81.7469 39.0625 80.5469V74.1281C39.0625 72.3703 38.6469 70.6094 37.8594 69.0359L36.0391 65.3953C35.9734 65.2625 35.9375 65.1109 35.9375 64.9625C35.9375 64.4297 36.3719 63.9969 37.0531 63.9969C41.6078 63.9969 45.3125 67.7031 45.3125 72.2578V74.9344V78.0594H48.4375V74.9344V72.2578V48.4375C48.4375 47.5766 49.1391 46.875 50 46.875C50.8609 46.875 51.5625 47.5766 51.5625 48.4375V62.5V68.75H54.6875V62.5C54.6875 61.6391 55.3891 60.9375 56.25 60.9375C57.1109 60.9375 57.8125 61.6391 57.8125 62.5V68.75H60.9375V62.5C60.9375 61.6391 61.6391 60.9375 62.5 60.9375C63.3609 60.9375 64.0625 61.6391 64.0625 62.5V65.625V68.75H67.1875V65.625C67.1875 64.7641 67.8891 64.0625 68.75 64.0625C69.6109 64.0625 70.3125 64.7641 70.3125 65.625V82.8125ZM89.0625 65.625C89.0625 66.4859 88.3609 67.1875 87.5 67.1875H73.4375V65.625C73.4375 63.0406 71.3344 60.9375 68.75 60.9375C68.1328 60.9375 67.5469 61.0641 67.0062 61.2812C66.4672 59.2891 64.6609 57.8125 62.5 57.8125C61.2953 57.8125 60.2062 58.2828 59.375 59.0312C58.5438 58.2812 57.4547 57.8125 56.25 57.8125C55.7 57.8125 55.1781 57.925 54.6875 58.1V48.4375C54.6875 45.8531 52.5844 43.75 50 43.75C47.4156 43.75 45.3125 45.8531 45.3125 48.4375V64.4641C43.2172 62.2594 40.2422 60.8719 36.9047 60.8719C34.65 60.8719 32.8141 62.7062 32.8125 64.9625C32.8125 65.5938 32.9625 66.2266 33.2437 66.7938L33.4422 67.1875H6.25C5.38906 67.1875 4.6875 66.4859 4.6875 65.625V12.5C4.6875 11.6391 5.38906 10.9375 6.25 10.9375H68.5016C68.0656 11.9312 67.725 12.975 67.5031 14.0625H7.8125V29.6875H73.4766C76.0844 31.6406 79.3094 32.8125 82.8125 32.8125C85.0344 32.8125 87.1469 32.3391 89.0625 31.4984V65.625Z" fill="#07B3EA"/>
<path d="M17.1875 32.8125C12.0172 32.8125 7.8125 37.0172 7.8125 42.1875C7.8125 47.3578 12.0172 51.5625 17.1875 51.5625C22.3578 51.5625 26.5625 47.3578 26.5625 42.1875C26.5625 37.0172 22.3578 32.8125 17.1875 32.8125ZM17.1875 48.4375C13.7406 48.4375 10.9375 45.6344 10.9375 42.1875C10.9375 38.7406 13.7406 35.9375 17.1875 35.9375C20.6344 35.9375 23.4375 38.7406 23.4375 42.1875C23.4375 45.6344 20.6344 48.4375 17.1875 48.4375Z" fill="#07B3EA"/>
<path d="M32.8125 42.1875H42.1875V32.8125H32.8125V42.1875ZM35.9375 35.9375H39.0625V39.0625H35.9375V35.9375Z" fill="#07B3EA"/>
<path d="M32.8125 54.6875H42.1875V45.3125H32.8125V54.6875ZM35.9375 48.4375H39.0625V51.5625H35.9375V48.4375Z" fill="#07B3EA"/>
<path d="M45.3125 42.1875H54.6875V32.8125H45.3125V42.1875ZM48.4375 35.9375H51.5625V39.0625H48.4375V35.9375Z" fill="#07B3EA"/>
<path d="M57.8125 42.1875H67.1875V32.8125H57.8125V42.1875ZM60.9375 35.9375H64.0625V39.0625H60.9375V35.9375Z" fill="#07B3EA"/>
<path d="M57.8125 54.6875H67.1875V45.3125H57.8125V54.6875ZM60.9375 48.4375H64.0625V51.5625H60.9375V48.4375Z" fill="#07B3EA"/>
<path d="M70.3125 57.8125H85.9375V35.9375H70.3125V57.8125ZM73.4375 39.0625H82.8125V54.6875H73.4375V39.0625Z" fill="#07B3EA"/>
<path d="M7.8125 64.0625H26.5625V54.6875H7.8125V64.0625ZM10.9375 57.8125H23.4375V60.9375H10.9375V57.8125Z" fill="#07B3EA"/>
</svg>
