<svg width="115" height="115" viewBox="0 0 115 115" fill="none" xmlns="http://www.w3.org/2000/svg">
<path d="M48.5156 21.5625H66.4844V25.1562H48.5156V21.5625Z" fill="white"/>
<path d="M48.5156 28.75H66.4844V32.3438H48.5156V28.75Z" fill="white"/>
<path d="M102.422 97.0312V82.6562C102.422 81.8584 101.895 81.1559 101.128 80.9313L59.2969 68.7305V46.7188H71.875C72.8687 46.7188 73.6719 45.9137 73.6719 44.9219V16.1719C73.6719 15.6957 73.4832 15.2375 73.1454 14.9015L62.3641 4.12023C62.0281 3.78242 61.5717 3.59375 61.0938 3.59375H43.125C42.1313 3.59375 41.3281 4.39875 41.3281 5.39062V44.9219C41.3281 45.9137 42.1313 46.7188 43.125 46.7188H55.7031V68.7305L13.8719 80.9313C13.1046 81.1559 12.5781 81.8584 12.5781 82.6562V97.0312C12.5781 97.8291 13.1046 98.5316 13.8719 98.7562L56.9969 111.334C57.1622 111.383 57.3293 111.406 57.5 111.406C57.6707 111.406 57.8378 111.383 58.0031 111.334L101.128 98.7562C101.895 98.5316 102.422 97.8291 102.422 97.0312ZM62.8906 9.72828L67.5373 14.375H62.8906V9.72828ZM44.9219 7.1875H59.2969V16.1719C59.2969 17.1637 60.1001 17.9688 61.0938 17.9688H70.0781V43.125H44.9219V7.1875ZM55.7031 72.4734V81.9123L51.5829 77.7921L49.0421 80.3329L56.2296 87.5204C56.58 87.8708 57.04 88.0469 57.5 88.0469C57.96 88.0469 58.42 87.8708 58.7704 87.5204L65.9579 80.3329L63.4171 77.7921L59.2969 81.9123V72.4734L94.2084 82.6562L57.5 93.362L20.7916 82.6562L55.7031 72.4734ZM16.1719 85.0515L55.7031 96.582V107.214L16.1719 95.6836V85.0515ZM59.2969 107.214V96.582L98.8281 85.0515V95.6836L59.2969 107.214Z" fill="white"/>
<path d="M48.5156 14.375H55.7031V17.9688H48.5156V14.375Z" fill="white"/>
<path d="M5.39062 46.7188H17.9688C17.9688 51.6727 21.9991 55.7031 26.9531 55.7031H32.3438C35.3158 55.7031 37.7344 58.1217 37.7344 61.0938V63.9436L33.6141 59.8234L31.0734 62.3641L38.2609 69.5516C38.6112 69.902 39.0713 70.0781 39.5312 70.0781C39.9912 70.0781 40.4513 69.902 40.8016 69.5516L47.9891 62.3641L45.4484 59.8234L41.3281 63.9436V61.0938C41.3281 56.1398 37.2977 52.1094 32.3438 52.1094H26.9531C23.9811 52.1094 21.5625 49.6908 21.5625 46.7188H34.1406C35.1343 46.7188 35.9375 45.9137 35.9375 44.9219V16.1719C35.9375 15.6957 35.7488 15.2375 35.411 14.9015L24.6298 4.12023C24.2937 3.78242 23.8373 3.59375 23.3594 3.59375H5.39062C4.39695 3.59375 3.59375 4.39875 3.59375 5.39062V44.9219C3.59375 45.9137 4.39695 46.7188 5.39062 46.7188ZM25.1562 9.72828L29.803 14.375H25.1562V9.72828ZM7.1875 7.1875H21.5625V16.1719C21.5625 17.1637 22.3657 17.9688 23.3594 17.9688H32.3438V43.125H7.1875V7.1875Z" fill="white"/>
<path d="M10.7812 21.5625H28.75V25.1562H10.7812V21.5625Z" fill="white"/>
<path d="M10.7812 28.75H28.75V32.3438H10.7812V28.75Z" fill="white"/>
<path d="M10.7812 35.9375H28.75V39.5312H10.7812V35.9375Z" fill="white"/>
<path d="M10.7812 14.375H17.9688V17.9688H10.7812V14.375Z" fill="white"/>
<path d="M111.406 44.9219V16.1719C111.406 15.6957 111.218 15.2375 110.88 14.9015L100.099 4.12023C99.7626 3.78242 99.3062 3.59375 98.8282 3.59375H80.8595C79.8658 3.59375 79.0626 4.39875 79.0626 5.39062V44.9219C79.0626 45.9137 79.8658 46.7188 80.8595 46.7188H93.4376C93.4376 49.6908 91.019 52.1094 88.047 52.1094H82.6564C77.7024 52.1094 73.672 56.1398 73.672 61.0938V63.9436L69.5518 59.8234L67.011 62.3641L74.1985 69.5516C74.5489 69.902 75.0089 70.0781 75.4689 70.0781C75.9289 70.0781 76.3889 69.902 76.7393 69.5516L83.9268 62.3641L81.386 59.8234L77.2658 63.9436V61.0938C77.2658 58.1217 79.6843 55.7031 82.6564 55.7031H88.047C93.001 55.7031 97.0314 51.6727 97.0314 46.7188H109.609C110.603 46.7188 111.406 45.9137 111.406 44.9219ZM100.625 9.72828L105.272 14.375H100.625V9.72828ZM82.6564 43.125V7.1875H97.0314V16.1719C97.0314 17.1637 97.8346 17.9688 98.8282 17.9688H107.813V43.125H82.6564Z" fill="white"/>
<path d="M86.25 21.5625H104.219V25.1562H86.25V21.5625Z" fill="white"/>
<path d="M86.25 28.75H104.219V32.3438H86.25V28.75Z" fill="white"/>
<path d="M86.25 35.9375H104.219V39.5312H86.25V35.9375Z" fill="white"/>
<path d="M86.25 14.375H93.4375V17.9688H86.25V14.375Z" fill="white"/>
<path d="M48.5156 35.9375H52.1094V39.5312H48.5156V35.9375Z" fill="white"/>
<path d="M55.7031 35.9375H59.2969V39.5312H55.7031V35.9375Z" fill="white"/>
<path d="M62.8906 35.9375H66.4844V39.5312H62.8906V35.9375Z" fill="white"/>
</svg>
