<svg width="115" height="115" viewBox="0 0 115 115" fill="none" xmlns="http://www.w3.org/2000/svg">
<g clip-path="url(#clip0)">
<path d="M49.263 9.41518C49.263 11.1691 47.8416 12.5913 46.0877 12.5913C44.3339 12.5913 42.9116 11.1691 42.9116 9.41518C42.9116 7.6613 44.3339 6.23994 46.0877 6.23994C47.8416 6.23994 49.263 7.6613 49.263 9.41518Z" fill="white"/>
<path d="M78.7498 15.6534H56.4082V10.096C56.4082 4.40533 51.7782 -0.224617 46.0875 -0.224617C40.3968 -0.224617 35.7669 4.40533 35.7669 10.096V15.6534H13.4243C9.98498 15.6534 7.18701 18.4513 7.18701 21.8907V108.537C7.18701 111.977 9.98498 114.776 13.4243 114.776H78.7498C82.1891 114.776 84.988 111.977 84.988 108.537V73.9475C84.988 73.0078 84.2264 72.2463 83.2868 72.2463C82.3471 72.2463 81.5855 73.0078 81.5855 73.9475V108.538C81.5855 110.102 80.3133 111.373 78.7498 111.373H13.4243C11.8608 111.373 10.5895 110.101 10.5895 108.538V21.8907C10.5895 20.3272 11.8608 19.0559 13.4243 19.0559H78.7498C80.3133 19.0559 81.5855 20.3281 81.5855 21.8907V66.037C81.5855 66.9758 82.3471 67.7374 83.2868 67.7374C84.2264 67.7374 84.988 66.9758 84.988 66.037V21.8907C84.988 18.4513 82.1891 15.6534 78.7498 15.6534ZM39.1693 10.096C39.1693 6.28117 42.2726 3.17787 46.0875 3.17787C49.9024 3.17787 53.0057 6.28117 53.0057 10.096V15.6534H39.1693V10.096Z" fill="white"/>
<path d="M61.5122 32.4385H30.6634C29.7237 32.4385 28.9622 33.2001 28.9622 34.1389C28.9622 35.0786 29.7237 35.8402 30.6634 35.8402H61.5113C62.451 35.8402 63.2125 35.0786 63.2125 34.1389C63.2125 33.2001 62.451 32.4385 61.5122 32.4385Z" fill="white"/>
<path d="M16.1464 51.8603C15.2076 51.8603 14.446 52.6218 14.446 53.5615V105.816C14.446 106.755 15.2076 107.517 16.1464 107.517H76.0286C76.9683 107.517 77.7299 106.755 77.7299 105.816V24.6123C77.7299 23.6735 76.9683 22.9119 76.0286 22.9119H16.1464C15.2076 22.9119 14.446 23.6735 14.446 24.6123V45.6151C14.446 46.5547 15.2076 47.3163 16.1464 47.3163C17.0861 47.3163 17.8477 46.5547 17.8477 45.6151V26.3135H74.3274V104.115H17.8477V53.5615C17.8477 52.6218 17.0861 51.8603 16.1464 51.8603Z" fill="white"/>
<path d="M22.8384 45.9345V55.0075C22.8384 55.9472 23.5999 56.7087 24.5396 56.7087H33.839C34.7787 56.7087 35.5402 55.9472 35.5402 55.0075V45.9345C35.5402 44.9948 34.7787 44.2332 33.839 44.2332H24.5396C23.5999 44.2332 22.8384 44.9948 22.8384 45.9345ZM26.2409 47.6357H32.1377V53.3062H26.2409V47.6357Z" fill="white"/>
<path d="M67.6363 44.4596H39.9637C39.024 44.4596 38.2625 45.222 38.2625 46.1608C38.2625 47.1005 39.024 47.8621 39.9637 47.8621H67.6363C68.5751 47.8621 69.3376 47.1005 69.3376 46.1608C69.3376 45.2212 68.5751 44.4596 67.6363 44.4596Z" fill="white"/>
<path d="M39.9637 56.7087H56.2944C57.2341 56.7087 57.9956 55.9472 57.9956 55.0075C57.9956 54.0678 57.2341 53.3063 56.2944 53.3063H39.9637C39.024 53.3063 38.2625 54.0678 38.2625 55.0075C38.2625 55.9472 39.024 56.7087 39.9637 56.7087Z" fill="white"/>
<path d="M22.8384 75.1942C22.8384 76.1339 23.5999 76.8955 24.5396 76.8955H33.839C34.7787 76.8955 35.5402 76.1339 35.5402 75.1942V66.1221C35.5402 65.1824 34.7787 64.4209 33.839 64.4209H24.5396C23.5999 64.4209 22.8384 65.1824 22.8384 66.1221V75.1942ZM26.2409 67.8234H32.1377V73.4939H26.2409V67.8234Z" fill="white"/>
<path d="M67.6363 64.6472H39.9637C39.024 64.6472 38.2625 65.4088 38.2625 66.3485C38.2625 67.2882 39.024 68.0497 39.9637 68.0497H67.6363C68.5751 68.0497 69.3376 67.2882 69.3376 66.3485C69.3376 65.4088 68.5751 64.6472 67.6363 64.6472Z" fill="white"/>
<path d="M39.9637 76.8955H56.2944C57.2341 76.8955 57.9956 76.134 57.9956 75.1943C57.9956 74.2555 57.2341 73.493 56.2944 73.493H39.9637C39.024 73.493 38.2625 74.2555 38.2625 75.1943C38.2625 76.1348 39.024 76.8955 39.9637 76.8955Z" fill="white"/>
<path d="M22.8384 95.382C22.8384 96.3216 23.5999 97.0832 24.5396 97.0832H33.839C34.7787 97.0832 35.5402 96.3216 35.5402 95.382V86.3089C35.5402 85.3693 34.7787 84.6077 33.839 84.6077H24.5396C23.5999 84.6077 22.8384 85.3693 22.8384 86.3089V95.382ZM26.2409 88.0102H32.1377V93.6807H26.2409V88.0102Z" fill="white"/>
<path d="M69.3376 86.5362C69.3376 85.5965 68.5751 84.8349 67.6363 84.8349H39.9637C39.024 84.8349 38.2625 85.5965 38.2625 86.5362C38.2625 87.475 39.024 88.2374 39.9637 88.2374H67.6363C68.5751 88.2374 69.3376 87.4758 69.3376 86.5362Z" fill="white"/>
<path d="M39.9637 93.6807C39.024 93.6807 38.2625 94.4423 38.2625 95.382C38.2625 96.3217 39.024 97.0832 39.9637 97.0832H56.2944C57.2341 97.0832 57.9956 96.3217 57.9956 95.382C57.9956 94.4423 57.2341 93.6807 56.2944 93.6807H39.9637Z" fill="white"/>
<path d="M103.02 15.6534H96.2163C93.4016 15.6534 91.1125 17.9425 91.1125 20.7562V96.5164C91.1125 96.906 91.2468 97.285 91.4925 97.5877L98.2966 105.98C98.6203 106.378 99.1055 106.61 99.6179 106.61C100.131 106.61 100.616 106.378 100.94 105.98L107.744 97.5877C107.991 97.285 108.124 96.906 108.124 96.5164V46.7276C108.124 45.7888 107.363 45.0272 106.423 45.0272C105.483 45.0272 104.722 45.7888 104.722 46.7276V95.9128L99.6179 102.208L94.515 95.9128V31.9841H97.9175V96.5164C97.9175 97.4561 98.6791 98.2177 99.6179 98.2177C100.558 98.2177 101.319 97.4561 101.319 96.5164V31.9841H104.722V38.8084C104.722 39.748 105.483 40.5096 106.423 40.5096C107.363 40.5096 108.124 39.748 108.124 38.8084V20.7562C108.124 17.9425 105.835 15.6534 103.02 15.6534ZM94.515 28.5825V20.7562C94.515 19.8183 95.2784 19.0559 96.2163 19.0559H103.021C103.959 19.0559 104.723 19.8183 104.723 20.7562V28.5825H94.515Z" fill="white"/>
</g>
<defs>
<clipPath id="clip0">
<rect width="115" height="115" fill="white"/>
</clipPath>
</defs>
</svg>
