<svg width="115" height="115" viewBox="0 0 115 115" fill="none" xmlns="http://www.w3.org/2000/svg">
<path d="M66.9064 36.7815L74.5291 29.1597L77.0699 31.7006L69.4473 39.3233L66.9064 36.7815Z" fill="white"/>
<path d="M74.0631 45.2123L84.4785 42.4213L85.4085 45.8931L74.9931 48.6832L74.0631 45.2123Z" fill="white"/>
<path d="M57.5457 31.2356L60.3366 20.822L63.8075 21.752L61.0175 32.1656L57.5457 31.2356Z" fill="white"/>
<path d="M28.75 14.0986H32.3438V35.6611H28.75V14.0986Z" fill="white"/>
<path d="M35.9375 14.0986H39.5312V28.4736H35.9375V14.0986Z" fill="white"/>
<path d="M43.125 14.0986H46.7188V21.2861H43.125V14.0986Z" fill="white"/>
<path d="M82.6562 68.0049H86.25V89.5674H82.6562V68.0049Z" fill="white"/>
<path d="M75.4688 75.1924H79.0625V89.5674H75.4688V75.1924Z" fill="white"/>
<path d="M68.2812 82.3799H71.875V89.5674H68.2812V82.3799Z" fill="white"/>
<path d="M111.406 100.349V48.2393C111.4 43.2794 107.382 39.2601 102.422 39.2549H95.2344V5.07652L88.3039 0.224609L83.1704 3.81836L78.0386 0.224609L72.9024 3.81836L67.7706 0.224609L62.6371 3.81836L57.5 0.224609L52.3682 3.81836L47.2329 0.224609L42.0993 3.81836L36.9632 0.224609L31.8296 3.81836L26.6925 0.224609L19.7656 5.07652V39.2549H12.5781C7.61829 39.2601 3.59989 43.2794 3.59375 48.2393V100.349H0V105.739C0.00614167 110.698 4.02454 114.717 8.98438 114.724H106.016C110.975 114.717 114.994 110.698 115 105.739V100.349H111.406ZM95.2344 53.6299H98.8281V93.1611H95.2344V53.6299ZM23.3594 6.94885L26.6961 4.61239L31.8331 8.20614L36.9675 4.61239L42.1029 8.20614L47.2364 4.61239L52.3717 8.20614L57.5035 4.61239L62.6371 8.20614L67.7706 4.61239L72.9024 8.20614L78.0386 4.61239L83.1704 8.20614L88.3039 4.61239L91.6406 6.94885V93.1611H23.3594V6.94885ZM7.1875 48.2393C7.1875 45.2614 9.60117 42.8486 12.5781 42.8486H19.7656V50.0361H12.5781V96.7549H102.422V50.0361H95.2344V42.8486H102.422C105.399 42.8486 107.812 45.2614 107.812 48.2393V100.349H64.6875V102.146C64.6875 103.138 63.8829 103.942 62.8906 103.942H52.1094C51.1171 103.942 50.3125 103.138 50.3125 102.146V100.349H7.1875V48.2393ZM19.7656 53.6299V93.1611H16.1719V53.6299H19.7656ZM111.406 105.739C111.406 108.716 108.993 111.13 106.016 111.13H8.98438C6.00742 111.13 3.59375 108.716 3.59375 105.739V103.942H47.0258C47.79 106.095 49.8256 107.533 52.1094 107.536H62.8906C65.1744 107.533 67.21 106.095 67.9742 103.942H111.406V105.739Z" fill="white"/>
<path d="M75.2117 55.2469L50.9741 31.0163L43.7629 49.7589L40.2227 53.2991L31.3304 62.1949L44.034 74.8993L46.5749 72.3584L52.9289 78.7107C55.0338 80.8164 58.4468 80.8173 60.5534 78.7124C62.6591 76.6076 62.6599 73.1937 60.5551 71.088L54.2029 64.7358L56.4762 62.4633L75.2117 55.2469ZM44.034 69.8175L36.4122 62.1949L41.4931 57.1122L49.1176 64.7358L44.034 69.8175ZM58.0107 73.6289C58.4775 74.0799 58.6652 74.7484 58.5003 75.3766C58.3362 76.0048 57.8449 76.4953 57.2167 76.6594C56.5885 76.8243 55.9208 76.6365 55.4698 76.1698L49.1158 69.8175L51.6585 67.2854L58.0107 73.6289ZM51.6585 62.1931L44.034 54.5696L46.8443 51.7593L52.3428 37.4668L68.763 53.8861L54.467 59.3794L51.6585 62.1931Z" fill="white"/>
<path d="M28.7878 69.8175L31.3287 67.2766L38.9532 74.8993L36.4123 77.4402L28.7878 69.8175Z" fill="white"/>
</svg>
