<svg width="113" height="123" viewBox="0 0 113 123" fill="none" xmlns="http://www.w3.org/2000/svg">
<path d="M105.016 30.25H102.682C104.767 27.7221 106.134 24.592 106.617 21.2379C107.101 17.8838 106.681 14.4492 105.407 11.3491C104.134 8.24909 102.062 5.61623 99.4412 3.76868C96.8207 1.92113 93.7641 0.937958 90.6406 0.937958C87.5172 0.937958 84.4605 1.92113 81.8401 3.76868C79.2196 5.61623 77.1475 8.24909 75.874 11.3491C74.6005 14.4492 74.1802 17.8838 74.6638 21.2379C75.1474 24.592 76.5143 27.7221 78.5993 30.25H56.5V10.7188C56.5 10.2008 56.3107 9.70397 55.9737 9.33768C55.6367 8.9714 55.1797 8.76563 54.7031 8.76563H47.5156C47.0391 8.76563 46.582 8.9714 46.245 9.33768C45.9081 9.70397 45.7188 10.2008 45.7188 10.7188V30.25H43.9219V2.90625C43.9219 2.38825 43.7326 1.89146 43.3956 1.52518C43.0586 1.1589 42.6016 0.953125 42.125 0.953125H34.9375C34.4609 0.953125 34.0039 1.1589 33.6669 1.52518C33.3299 1.89146 33.1406 2.38825 33.1406 2.90625V30.25H31.3438V16.5781C31.3438 16.0601 31.1544 15.5633 30.8175 15.1971C30.4805 14.8308 30.0234 14.625 29.5469 14.625H22.3594C21.8828 14.625 21.4258 14.8308 21.0888 15.1971C20.7518 15.5633 20.5625 16.0601 20.5625 16.5781V30.25H7.98438C6.07879 30.2523 4.25186 31.0762 2.90441 32.5408C1.55695 34.0054 0.799015 35.9912 0.796875 38.0625V96.6563C0.799015 98.7276 1.55695 100.713 2.90441 102.178C4.25186 103.643 6.07879 104.466 7.98438 104.469H45.0225L42.6259 112.281H36.7344C36.2578 112.281 35.8008 112.487 35.4638 112.853C35.1268 113.22 34.9375 113.716 34.9375 114.234V118.141H16.9688C16.4922 118.141 16.0351 118.346 15.6982 118.713C15.3612 119.079 15.1719 119.576 15.1719 120.094C15.1719 120.612 15.3612 121.109 15.6982 121.475C16.0351 121.841 16.4922 122.047 16.9688 122.047H96.0312C96.5078 122.047 96.9649 121.841 97.3018 121.475C97.6388 121.109 97.8281 120.612 97.8281 120.094C97.8281 119.576 97.6388 119.079 97.3018 118.713C96.9649 118.346 96.5078 118.141 96.0312 118.141H78.0625V114.234C78.0625 113.716 77.8732 113.22 77.5362 112.853C77.1992 112.487 76.7422 112.281 76.2656 112.281H70.3741L67.9775 104.469H105.016C106.921 104.466 108.748 103.643 110.096 102.178C111.443 100.713 112.201 98.7276 112.203 96.6563V38.0625C112.201 35.9912 111.443 34.0054 110.096 32.5408C108.748 31.0762 106.921 30.2523 105.016 30.25ZM92.4375 5.00098C95.123 5.42693 97.6102 6.78377 99.5293 8.86968C101.448 10.9556 102.697 13.6591 103.088 16.5781H92.4375V5.00098ZM91.3841 20.4844H103.088C102.778 22.8313 101.911 25.05 100.573 26.9224C99.2347 28.7949 97.4712 30.2565 95.4558 31.1636C93.4404 32.0708 91.2425 32.3922 89.0782 32.0963C86.9139 31.8004 84.8577 30.8974 83.1117 29.4761L91.3841 20.4844ZM78.0625 18.5313C78.0668 15.2451 79.1583 12.0702 81.1376 9.58619C83.1169 7.10218 85.8521 5.47475 88.8438 5.00098V17.7231L80.5714 26.7148C78.9403 24.3551 78.0597 21.4828 78.0625 18.5313ZM49.3125 12.6719H52.9062V49.7813H49.3125V12.6719ZM43.9219 34.1563H45.7188V49.7813H43.9219V34.1563ZM36.7344 4.85938H40.3281V49.7813H36.7344V4.85938ZM31.3438 34.1563H33.1406V49.7813H31.3438V34.1563ZM24.1562 18.5313H27.75V49.7813H24.1562V18.5313ZM74.4688 116.188V118.141H38.5312V116.188H74.4688ZM46.415 112.281L48.8116 104.469H64.1884L66.585 112.281H46.415ZM108.609 96.6563C108.608 97.6919 108.229 98.6846 107.555 99.4169C106.882 100.149 105.968 100.561 105.016 100.563H7.98438C7.03164 100.561 6.11828 100.149 5.44459 99.4169C4.7709 98.6846 4.39187 97.6919 4.39062 96.6563V92.75H108.609V96.6563ZM108.609 88.8438H4.39062V38.0625C4.39187 37.0269 4.7709 36.0341 5.44459 35.3019C6.11828 34.5696 7.03164 34.1576 7.98438 34.1563H20.5625V49.7813H18.7656V38.0625C18.7656 37.5445 18.5763 37.0477 18.2393 36.6814C17.9024 36.3152 17.4453 36.1094 16.9688 36.1094H9.78125C9.30469 36.1094 8.84765 36.3152 8.51067 36.6814C8.17369 37.0477 7.98438 37.5445 7.98438 38.0625V51.7344C7.98438 52.2524 8.17369 52.7492 8.51067 53.1155C8.84765 53.4817 9.30469 53.6875 9.78125 53.6875H67.2812C67.7578 53.6875 68.2149 53.4817 68.5518 53.1155C68.8888 52.7492 69.0781 52.2524 69.0781 51.7344V38.0625C69.0781 37.5445 68.8888 37.0477 68.5518 36.6814C68.2149 36.3152 67.7578 36.1094 67.2812 36.1094H60.0938C59.6172 36.1094 59.1601 36.3152 58.8232 36.6814C58.4862 37.0477 58.2969 37.5445 58.2969 38.0625V49.7813H56.5V34.1563H83.2465C85.5324 35.4397 88.0678 36.1094 90.6406 36.1094C93.2135 36.1094 95.7489 35.4397 98.0348 34.1563H105.016C105.968 34.1576 106.882 34.5696 107.555 35.3019C108.229 36.0341 108.608 37.0269 108.609 38.0625V88.8438ZM15.1719 40.0156V49.7813H11.5781V40.0156H15.1719ZM61.8906 49.7813V40.0156H65.4844V49.7813H61.8906Z" fill="white"/>
<path d="M20.5629 94.7031H9.78162C9.30506 94.7031 8.84801 94.9089 8.51103 95.2752C8.17405 95.6415 7.98474 96.1382 7.98474 96.6562C7.98474 97.1743 8.17405 97.671 8.51103 98.0373C8.84801 98.4036 9.30506 98.6094 9.78162 98.6094H20.5629C21.0394 98.6094 21.4965 98.4036 21.8334 98.0373C22.1704 97.671 22.3597 97.1743 22.3597 96.6562C22.3597 96.1382 22.1704 95.6415 21.8334 95.2752C21.4965 94.9089 21.0394 94.7031 20.5629 94.7031Z" fill="white"/>
<path d="M27.7495 94.7031H25.9526C25.4761 94.7031 25.019 94.9089 24.6821 95.2752C24.3451 95.6415 24.1558 96.1382 24.1558 96.6562C24.1558 97.1743 24.3451 97.671 24.6821 98.0373C25.019 98.4036 25.4761 98.6094 25.9526 98.6094H27.7495C28.2261 98.6094 28.6831 98.4036 29.0201 98.0373C29.3571 97.671 29.5464 97.1743 29.5464 96.6562C29.5464 96.1382 29.3571 95.6415 29.0201 95.2752C28.6831 94.9089 28.2261 94.7031 27.7495 94.7031Z" fill="white"/>
<path d="M76.2658 49.7813C76.5018 49.7816 76.7356 49.7313 76.9536 49.6331C77.1717 49.5349 77.3698 49.3909 77.5364 49.2092L84.1974 41.9688H99.6252C100.102 41.9688 100.559 41.763 100.896 41.3967C101.233 41.0304 101.422 40.5336 101.422 40.0156C101.422 39.4976 101.233 39.0008 100.896 38.6346C100.559 38.2683 100.102 38.0625 99.6252 38.0625H83.4533C83.2173 38.0625 82.9837 38.113 82.7657 38.2112C82.5477 38.3093 82.3496 38.4532 82.1827 38.6345L74.9952 46.447C74.7439 46.7202 74.5727 47.0682 74.5034 47.4471C74.4341 47.826 74.4697 48.2187 74.6057 48.5756C74.7417 48.9325 74.972 49.2375 75.2675 49.4521C75.563 49.6667 75.9104 49.7813 76.2658 49.7813Z" fill="white"/>
<path d="M99.6252 71.2656C98.6809 71.2663 97.7534 71.5367 96.9354 72.0496C96.1175 72.5624 95.4379 73.2998 94.9645 74.188L76.1535 62.2593C75.8987 60.9283 75.2259 59.735 74.2506 58.8839C73.2752 58.0329 72.058 57.5769 70.8073 57.5942C69.5567 57.6115 68.3505 58.101 67.3954 58.9788C66.4403 59.8566 65.7957 61.0681 65.5722 62.4057L46.6421 77.8379C46.1271 76.9759 45.4124 76.2764 44.5699 75.8098C43.7273 75.3433 42.7866 75.126 41.8423 75.18C40.898 75.2339 39.9834 75.5571 39.1905 76.1171C38.3976 76.6771 37.7543 77.4542 37.3253 78.3701L18.6153 69.896C18.3201 68.5581 17.6013 67.3756 16.5848 66.5557C15.5683 65.7358 14.3189 65.3307 13.0553 65.4113C11.7916 65.4919 10.5943 66.0531 9.67304 66.9966C8.75173 67.9401 8.16511 69.2058 8.01589 70.572C7.86666 71.9383 8.16435 73.3181 8.85682 74.4698C9.54929 75.6216 10.5924 76.4718 11.8036 76.8718C13.0147 77.2717 14.3167 77.1958 15.4815 76.6574C16.6464 76.119 17.5999 75.1524 18.1751 73.9267L36.885 82.4009C37.1739 83.7076 37.8673 84.8666 38.849 85.6836C39.8307 86.5005 41.041 86.9258 42.2769 86.888C43.5128 86.8502 44.6992 86.3517 45.6371 85.4761C46.575 84.6004 47.2074 83.4009 47.4282 82.0786L66.3583 66.6465C66.8598 67.4862 67.551 68.1721 68.366 68.6385C69.1809 69.1049 70.0923 69.3364 71.0131 69.3107C71.9338 69.2849 72.8331 69.0029 73.6249 68.4916C74.4168 67.9803 75.0747 67.2567 75.5358 66.3901L94.3469 78.3188C94.5545 79.4033 95.0407 80.4016 95.7491 81.1979C96.4574 81.9942 97.3589 82.556 98.3491 82.818C99.3392 83.0801 100.377 83.0317 101.343 82.6785C102.309 82.3253 103.163 81.6817 103.806 80.8224C104.449 79.9631 104.855 78.9233 104.977 77.8235C105.098 76.7237 104.93 75.609 104.493 74.6087C104.055 73.6083 103.365 72.7633 102.504 72.1716C101.642 71.5799 100.644 71.2658 99.6252 71.2656ZM15.1721 71.2754C15.1709 71.7942 14.9802 72.2914 14.6421 72.6576C14.3039 73.0238 13.8458 73.2291 13.3684 73.2285C12.8911 73.2279 12.4335 73.0213 12.0961 72.6542C11.7588 72.287 11.5693 71.7894 11.5693 71.2705C11.5693 70.7516 11.7588 70.254 12.0961 69.8868C12.4335 69.5197 12.8911 69.3131 13.3684 69.3125C13.8458 69.3118 14.3039 69.5172 14.6421 69.8834C14.9802 70.2496 15.1709 70.7467 15.1721 71.2656V71.2754ZM42.1252 82.9844C41.6488 82.9836 41.1922 82.7776 40.8553 82.4115C40.5185 82.0454 40.329 81.549 40.3283 81.0312V81.0215C40.3301 80.6356 40.437 80.2589 40.6355 79.939C40.834 79.6191 41.1153 79.3703 41.4437 79.224C41.7722 79.0777 42.1332 79.0404 42.4812 79.1168C42.8292 79.1933 43.1485 79.3801 43.3989 79.6536C43.6493 79.9271 43.8195 80.2752 43.8882 80.6538C43.9568 81.0324 43.9207 81.4246 43.7844 81.7809C43.6481 82.1372 43.4178 82.4417 43.1225 82.6559C42.8272 82.87 42.4802 82.9844 42.1252 82.9844ZM70.8752 65.4062C70.5198 65.4062 70.1724 65.2917 69.8769 65.0771C69.5814 64.8625 69.3511 64.5574 69.2151 64.2005C69.0791 63.8437 69.0435 63.4509 69.1128 63.0721C69.1822 62.6932 69.3533 62.3452 69.6046 62.072C69.8559 61.7989 70.1761 61.6129 70.5246 61.5375C70.8732 61.4622 71.2345 61.5008 71.5628 61.6487C71.8912 61.7965 72.1718 62.0468 72.3692 62.368C72.5667 62.6892 72.6721 63.0668 72.6721 63.4531C72.6714 63.9709 72.4819 64.4673 72.145 64.8334C71.8082 65.1995 71.3515 65.4055 70.8752 65.4062ZM99.6252 79.0781C99.2698 79.0781 98.9224 78.9636 98.6269 78.7489C98.3314 78.5343 98.1011 78.2293 97.9651 77.8724C97.8291 77.5155 97.7935 77.1228 97.8628 76.7439C97.9322 76.3651 98.1033 76.0171 98.3546 75.7439C98.6059 75.4708 98.9261 75.2847 99.2746 75.2094C99.6232 75.134 99.9845 75.1727 100.313 75.3205C100.641 75.4684 100.922 75.7187 101.119 76.0399C101.317 76.3611 101.422 76.7387 101.422 77.125C101.421 77.6428 101.232 78.1391 100.895 78.5053C100.558 78.8714 100.102 79.0774 99.6252 79.0781Z" fill="white"/>
<path d="M85.2505 82.9844H72.6724C72.1958 82.9844 71.7388 83.1902 71.4018 83.5564C71.0648 83.9227 70.8755 84.4195 70.8755 84.9375C70.8755 85.4555 71.0648 85.9523 71.4018 86.3186C71.7388 86.6849 72.1958 86.8906 72.6724 86.8906H85.2505C85.7271 86.8906 86.1841 86.6849 86.5211 86.3186C86.8581 85.9523 87.0474 85.4555 87.0474 84.9375C87.0474 84.4195 86.8581 83.9227 86.5211 83.5564C86.1841 83.1902 85.7271 82.9844 85.2505 82.9844Z" fill="white"/>
<path d="M85.2499 77.125H79.8593C79.3827 77.125 78.9256 77.3308 78.5887 77.6971C78.2517 78.0633 78.0624 78.5601 78.0624 79.0781C78.0624 79.5961 78.2517 80.0929 78.5887 80.4592C78.9256 80.8255 79.3827 81.0312 79.8593 81.0312H85.2499C85.7264 81.0312 86.1835 80.8255 86.5205 80.4592C86.8574 80.0929 87.0468 79.5961 87.0468 79.0781C87.0468 78.5601 86.8574 78.0633 86.5205 77.6971C86.1835 77.3308 85.7264 77.125 85.2499 77.125Z" fill="white"/>
<path d="M9.78162 59.5469H29.5472C30.0238 59.5469 30.4808 59.3411 30.8178 58.9748C31.1548 58.6086 31.3441 58.1118 31.3441 57.5938C31.3441 57.0758 31.1548 56.579 30.8178 56.2127C30.4808 55.8464 30.0238 55.6406 29.5472 55.6406H9.78162C9.30505 55.6406 8.84801 55.8464 8.51103 56.2127C8.17405 56.579 7.98474 57.0758 7.98474 57.5938C7.98474 58.1118 8.17405 58.6086 8.51103 58.9748C8.84801 59.3411 9.30505 59.5469 9.78162 59.5469Z" fill="white"/>
<path d="M34.9376 59.5469H36.7345C37.2111 59.5469 37.6681 59.3411 38.0051 58.9748C38.3421 58.6086 38.5314 58.1118 38.5314 57.5938C38.5314 57.0758 38.3421 56.579 38.0051 56.2127C37.6681 55.8464 37.2111 55.6406 36.7345 55.6406H34.9376C34.4611 55.6406 34.004 55.8464 33.667 56.2127C33.3301 56.579 33.1407 57.0758 33.1407 57.5938C33.1407 58.1118 33.3301 58.6086 33.667 58.9748C34.004 59.3411 34.4611 59.5469 34.9376 59.5469Z" fill="white"/>
</svg>
